G04*
G04 #@! TF.GenerationSoftware,Altium Limited,Altium Designer,18.0.12 (696)*
G04*
G04 Layer_Color=128*
%FSLAX44Y44*%
%MOMM*%
G71*
G01*
G75*
%ADD21R,1.3500X0.8000*%
%ADD22R,0.7500X0.9000*%
%ADD23R,0.9000X0.7500*%
%ADD24R,0.8000X1.3500*%
%ADD25R,1.9050X0.6604*%
%ADD80R,1.9050X0.6096*%
%ADD81R,1.0160X1.0160*%
%ADD82R,1.0160X1.0160*%
%ADD83R,0.8500X0.6000*%
%ADD84R,1.6000X1.0000*%
%ADD85R,0.7500X1.6500*%
%ADD86R,1.4000X1.2000*%
%ADD87R,1.5000X0.5500*%
%ADD88R,0.5500X1.5000*%
%ADD89R,3.0000X1.2000*%
%ADD90R,1.8288X1.7272*%
%ADD91R,3.2500X1.9000*%
%ADD92R,0.9500X1.9000*%
%ADD93R,0.6000X0.8500*%
%ADD94R,1.4000X2.2000*%
%ADD95R,0.3000X1.5000*%
%ADD96R,1.5000X0.3000*%
D21*
X257000Y779500D02*
D03*
Y796500D02*
D03*
D22*
X52250Y600250D02*
D03*
X38250D02*
D03*
X675500Y370000D02*
D03*
X689500D02*
D03*
X675500Y354200D02*
D03*
X689500D02*
D03*
X532250Y654000D02*
D03*
X518250D02*
D03*
X575750D02*
D03*
X561750D02*
D03*
X616500Y590750D02*
D03*
X602500D02*
D03*
X602250Y574750D02*
D03*
X616250D02*
D03*
X588500Y557000D02*
D03*
X574500D02*
D03*
X593750Y536250D02*
D03*
X607750D02*
D03*
X568400Y490000D02*
D03*
X582400D02*
D03*
X568400Y473800D02*
D03*
X582400D02*
D03*
X572140Y416000D02*
D03*
X586140D02*
D03*
X572140Y400250D02*
D03*
X586140D02*
D03*
X675500Y338400D02*
D03*
X689500D02*
D03*
X675500Y323000D02*
D03*
X689500D02*
D03*
Y306800D02*
D03*
X675500D02*
D03*
X708000Y386000D02*
D03*
X694000D02*
D03*
X736547Y336868D02*
D03*
X722547D02*
D03*
X750000Y354750D02*
D03*
X764000D02*
D03*
X764250Y370750D02*
D03*
X750250D02*
D03*
X904881Y294356D02*
D03*
X918881D02*
D03*
X905000Y278752D02*
D03*
X919000D02*
D03*
X946250Y174750D02*
D03*
X960250D02*
D03*
X568400Y270000D02*
D03*
X582400D02*
D03*
X568000Y253797D02*
D03*
X582000D02*
D03*
X600590Y232500D02*
D03*
X614590D02*
D03*
X72400Y81000D02*
D03*
X58400D02*
D03*
X145267D02*
D03*
X131267D02*
D03*
X218133D02*
D03*
X204133D02*
D03*
X291000D02*
D03*
X277000D02*
D03*
X291000Y173000D02*
D03*
X277000D02*
D03*
X218133D02*
D03*
X204133D02*
D03*
X145267D02*
D03*
X131267D02*
D03*
X72400Y173000D02*
D03*
X58400D02*
D03*
X290500Y275250D02*
D03*
X304500D02*
D03*
X417250Y270226D02*
D03*
X431250D02*
D03*
X417250Y254226D02*
D03*
X431250D02*
D03*
X235000Y289448D02*
D03*
X249000D02*
D03*
Y305052D02*
D03*
X235000D02*
D03*
X263000Y323000D02*
D03*
X277000D02*
D03*
X322000Y340775D02*
D03*
X308000D02*
D03*
X322000Y323787D02*
D03*
X308000D02*
D03*
X322000Y306800D02*
D03*
X308000D02*
D03*
X322000Y357762D02*
D03*
X308000D02*
D03*
Y374750D02*
D03*
X322000D02*
D03*
X52250Y381252D02*
D03*
X38250D02*
D03*
X81000Y350000D02*
D03*
X95000D02*
D03*
X95119Y365648D02*
D03*
X81119D02*
D03*
X95000Y381252D02*
D03*
X81000D02*
D03*
X95119Y584648D02*
D03*
X81119D02*
D03*
Y569000D02*
D03*
X95119D02*
D03*
X95000Y600252D02*
D03*
X81000D02*
D03*
X263000Y542000D02*
D03*
X277000D02*
D03*
X249000Y524052D02*
D03*
X235000D02*
D03*
Y508448D02*
D03*
X249000D02*
D03*
X291000Y494000D02*
D03*
X305000D02*
D03*
X256822Y846100D02*
D03*
X270822D02*
D03*
X228322Y895671D02*
D03*
X242322D02*
D03*
X197750Y899886D02*
D03*
X183750D02*
D03*
Y883886D02*
D03*
X197750D02*
D03*
X183750Y864386D02*
D03*
X197750D02*
D03*
X127750Y832000D02*
D03*
X141750D02*
D03*
X138500Y733750D02*
D03*
X152500D02*
D03*
X155750Y762000D02*
D03*
X169750D02*
D03*
X393750Y756250D02*
D03*
X379750D02*
D03*
X432000Y406200D02*
D03*
X418000D02*
D03*
X432000Y422000D02*
D03*
X418000D02*
D03*
X421000Y481500D02*
D03*
X435000D02*
D03*
X421000Y466250D02*
D03*
X435000D02*
D03*
X416000Y586250D02*
D03*
X402000D02*
D03*
X416250Y601500D02*
D03*
X402250D02*
D03*
X502250Y631750D02*
D03*
X488250D02*
D03*
X502250Y616500D02*
D03*
X488250D02*
D03*
X418000Y626250D02*
D03*
X432000D02*
D03*
Y642450D02*
D03*
X418000D02*
D03*
X428550Y754000D02*
D03*
X442550D02*
D03*
X468000Y682000D02*
D03*
X454000D02*
D03*
X971000Y498748D02*
D03*
X985000D02*
D03*
X971000Y514352D02*
D03*
X985000D02*
D03*
Y530000D02*
D03*
X971000D02*
D03*
X773000Y605000D02*
D03*
X759000D02*
D03*
X829000Y590552D02*
D03*
X815000D02*
D03*
Y574948D02*
D03*
X829000D02*
D03*
X800750Y557000D02*
D03*
X786750D02*
D03*
X768000Y530000D02*
D03*
X754000D02*
D03*
Y514352D02*
D03*
X768000D02*
D03*
X754000Y498748D02*
D03*
X768000D02*
D03*
X473500Y891000D02*
D03*
X487500D02*
D03*
X447450Y863000D02*
D03*
X433450D02*
D03*
X514000Y830000D02*
D03*
X500000D02*
D03*
X574000Y810750D02*
D03*
X560000D02*
D03*
X737000Y654000D02*
D03*
X723000D02*
D03*
X708000D02*
D03*
X694000D02*
D03*
X574000Y830000D02*
D03*
X560000D02*
D03*
X962000Y278750D02*
D03*
X948000D02*
D03*
X905000Y310000D02*
D03*
X919000D02*
D03*
D23*
X616000Y748250D02*
D03*
Y734250D02*
D03*
Y695500D02*
D03*
Y681500D02*
D03*
X561000Y605500D02*
D03*
Y619500D02*
D03*
X562250Y505250D02*
D03*
Y519250D02*
D03*
X577500D02*
D03*
Y505250D02*
D03*
X554250Y433090D02*
D03*
Y447090D02*
D03*
X586000Y365000D02*
D03*
Y351000D02*
D03*
X586000Y322450D02*
D03*
Y336450D02*
D03*
X919250Y202487D02*
D03*
Y216487D02*
D03*
X752600Y157250D02*
D03*
Y171250D02*
D03*
X783000Y96250D02*
D03*
Y110250D02*
D03*
X569000Y215360D02*
D03*
Y201360D02*
D03*
X584250Y215360D02*
D03*
Y201360D02*
D03*
X275000Y96000D02*
D03*
Y110000D02*
D03*
X291000Y96000D02*
D03*
Y110000D02*
D03*
X56000Y96000D02*
D03*
Y110000D02*
D03*
X129000Y96000D02*
D03*
Y110000D02*
D03*
X145267Y96000D02*
D03*
Y110000D02*
D03*
X202000Y96000D02*
D03*
Y110000D02*
D03*
X218133Y96000D02*
D03*
Y110000D02*
D03*
X72400Y96000D02*
D03*
Y110000D02*
D03*
X499000Y159250D02*
D03*
Y145250D02*
D03*
X483000Y178250D02*
D03*
Y164250D02*
D03*
X515000Y178250D02*
D03*
Y164250D02*
D03*
X499000Y116870D02*
D03*
Y130870D02*
D03*
X56000Y188000D02*
D03*
Y202000D02*
D03*
X72400Y188000D02*
D03*
Y202000D02*
D03*
X129000Y188000D02*
D03*
Y202000D02*
D03*
X145267Y188000D02*
D03*
Y202000D02*
D03*
X202000Y188000D02*
D03*
Y202000D02*
D03*
X218133Y188000D02*
D03*
Y202000D02*
D03*
X275000Y188000D02*
D03*
Y202000D02*
D03*
X291000Y188000D02*
D03*
Y202000D02*
D03*
X417000Y364046D02*
D03*
Y350046D02*
D03*
X417000Y322450D02*
D03*
Y336450D02*
D03*
X400289Y286930D02*
D03*
Y300930D02*
D03*
X61750Y905886D02*
D03*
Y891886D02*
D03*
Y875886D02*
D03*
Y861886D02*
D03*
X108750Y968000D02*
D03*
Y954000D02*
D03*
X124750D02*
D03*
Y968000D02*
D03*
X214286Y864386D02*
D03*
Y878386D02*
D03*
X198750Y792000D02*
D03*
Y778000D02*
D03*
X214750Y792000D02*
D03*
Y778000D02*
D03*
X275000Y796250D02*
D03*
Y782250D02*
D03*
X291000D02*
D03*
Y796250D02*
D03*
X353000Y705448D02*
D03*
Y691448D02*
D03*
X395000Y782250D02*
D03*
Y796250D02*
D03*
X380000Y782250D02*
D03*
Y796250D02*
D03*
X403000Y497430D02*
D03*
Y511430D02*
D03*
X440500Y570000D02*
D03*
Y556000D02*
D03*
X519000Y600250D02*
D03*
Y586250D02*
D03*
X468000Y725500D02*
D03*
Y739500D02*
D03*
Y711000D02*
D03*
Y697000D02*
D03*
X529000Y830000D02*
D03*
Y816000D02*
D03*
X545000Y830000D02*
D03*
Y816000D02*
D03*
X392250Y921937D02*
D03*
Y935937D02*
D03*
Y896096D02*
D03*
Y882095D02*
D03*
X625000Y952750D02*
D03*
Y938750D02*
D03*
X707333Y952750D02*
D03*
Y938750D02*
D03*
X789667Y952750D02*
D03*
Y938750D02*
D03*
X872000Y952750D02*
D03*
Y938750D02*
D03*
D24*
X396500Y738250D02*
D03*
X379500D02*
D03*
D25*
X606200Y362298D02*
D03*
Y349598D02*
D03*
X657000Y336898D02*
D03*
Y324198D02*
D03*
X606200Y336898D02*
D03*
Y324198D02*
D03*
X657000Y362298D02*
D03*
Y349598D02*
D03*
X394000Y324198D02*
D03*
Y336898D02*
D03*
X343200Y349598D02*
D03*
Y362298D02*
D03*
X394000Y349598D02*
D03*
Y362298D02*
D03*
X343200Y324198D02*
D03*
Y336898D02*
D03*
X424775Y705000D02*
D03*
Y717700D02*
D03*
X373975Y679600D02*
D03*
Y692300D02*
D03*
X424775Y679600D02*
D03*
Y692300D02*
D03*
X373975Y705000D02*
D03*
Y717700D02*
D03*
D80*
X114200Y598800D02*
D03*
Y586100D02*
D03*
Y573400D02*
D03*
Y560700D02*
D03*
Y548000D02*
D03*
Y535300D02*
D03*
Y522600D02*
D03*
Y509900D02*
D03*
Y497200D02*
D03*
X215800D02*
D03*
Y509900D02*
D03*
Y522600D02*
D03*
Y535300D02*
D03*
Y548000D02*
D03*
Y560700D02*
D03*
Y573400D02*
D03*
Y586100D02*
D03*
Y598800D02*
D03*
X114200Y379800D02*
D03*
Y367100D02*
D03*
Y354400D02*
D03*
Y341700D02*
D03*
Y329000D02*
D03*
Y316300D02*
D03*
Y303600D02*
D03*
Y290900D02*
D03*
Y278200D02*
D03*
X215800D02*
D03*
Y290900D02*
D03*
Y303600D02*
D03*
Y316300D02*
D03*
Y329000D02*
D03*
Y341700D02*
D03*
Y354400D02*
D03*
Y367100D02*
D03*
Y379800D02*
D03*
X885800Y280204D02*
D03*
Y292904D02*
D03*
Y305604D02*
D03*
Y318304D02*
D03*
Y331004D02*
D03*
Y343704D02*
D03*
Y356404D02*
D03*
Y369104D02*
D03*
Y381804D02*
D03*
X784200D02*
D03*
Y369104D02*
D03*
Y356404D02*
D03*
Y343704D02*
D03*
Y331004D02*
D03*
Y318304D02*
D03*
Y305604D02*
D03*
Y292904D02*
D03*
Y280204D02*
D03*
X736000Y500200D02*
D03*
Y512900D02*
D03*
Y525600D02*
D03*
Y538300D02*
D03*
Y551000D02*
D03*
Y563700D02*
D03*
Y576400D02*
D03*
Y589100D02*
D03*
Y601800D02*
D03*
X634400D02*
D03*
Y589100D02*
D03*
Y576400D02*
D03*
Y563700D02*
D03*
Y551000D02*
D03*
Y538300D02*
D03*
Y525600D02*
D03*
Y512900D02*
D03*
Y500200D02*
D03*
X948800Y500200D02*
D03*
Y512900D02*
D03*
Y525600D02*
D03*
Y538300D02*
D03*
Y551000D02*
D03*
Y563700D02*
D03*
Y576400D02*
D03*
Y589100D02*
D03*
Y601800D02*
D03*
X847200D02*
D03*
Y589100D02*
D03*
Y576400D02*
D03*
Y563700D02*
D03*
Y551000D02*
D03*
Y538300D02*
D03*
Y525600D02*
D03*
Y512900D02*
D03*
Y500200D02*
D03*
D81*
X593750Y519250D02*
D03*
X614070D02*
D03*
X603910Y496390D02*
D03*
X936090Y214610D02*
D03*
X956410D02*
D03*
X946250Y191750D02*
D03*
X600590Y215360D02*
D03*
X620910D02*
D03*
X610750Y192500D02*
D03*
X88680Y108000D02*
D03*
X109000D02*
D03*
X98840Y85140D02*
D03*
X234893Y108000D02*
D03*
X255213D02*
D03*
X245053Y85140D02*
D03*
X161787Y108000D02*
D03*
X182107D02*
D03*
X171947Y85140D02*
D03*
X308000Y108000D02*
D03*
X328320D02*
D03*
X318160Y85140D02*
D03*
X591840Y116860D02*
D03*
X612160D02*
D03*
X602000Y94000D02*
D03*
X387180Y116860D02*
D03*
X407500D02*
D03*
X397340Y94000D02*
D03*
X88680Y200123D02*
D03*
X109000D02*
D03*
X98840Y177263D02*
D03*
X162000Y200123D02*
D03*
X182320D02*
D03*
X172160Y177263D02*
D03*
X235000Y200123D02*
D03*
X255320D02*
D03*
X245160Y177263D02*
D03*
X308000Y200123D02*
D03*
X328320D02*
D03*
X318160Y177263D02*
D03*
D82*
X572140Y433090D02*
D03*
Y453410D02*
D03*
X595000Y443250D02*
D03*
X417250Y286930D02*
D03*
Y307250D02*
D03*
X440110Y297090D02*
D03*
X157750Y782000D02*
D03*
Y802320D02*
D03*
X180610Y792160D02*
D03*
X421000Y497430D02*
D03*
Y517750D02*
D03*
X443860Y507590D02*
D03*
X423110Y570000D02*
D03*
Y549680D02*
D03*
X400250Y559840D02*
D03*
X502250Y600250D02*
D03*
Y579930D02*
D03*
X479390Y590090D02*
D03*
D83*
X587000Y307000D02*
D03*
X611000D02*
D03*
D84*
X632000Y117437D02*
D03*
Y87437D02*
D03*
X572000Y117437D02*
D03*
Y87437D02*
D03*
X367000Y117437D02*
D03*
Y87437D02*
D03*
X427000Y117437D02*
D03*
Y87437D02*
D03*
D85*
X599000Y25000D02*
D03*
X627000D02*
D03*
X401000Y26000D02*
D03*
X373000D02*
D03*
X483000Y121390D02*
D03*
X455000D02*
D03*
X483000Y145250D02*
D03*
X455000D02*
D03*
X515000D02*
D03*
X543000D02*
D03*
X515000Y121390D02*
D03*
X543000D02*
D03*
D86*
X287703Y289552D02*
D03*
X265703D02*
D03*
Y306552D02*
D03*
X287703D02*
D03*
Y508552D02*
D03*
X265703D02*
D03*
Y525552D02*
D03*
X287703D02*
D03*
X776000Y573448D02*
D03*
X798000D02*
D03*
Y590448D02*
D03*
X776000D02*
D03*
X255250Y879500D02*
D03*
X233250D02*
D03*
Y862500D02*
D03*
X255250D02*
D03*
X711297Y353452D02*
D03*
X733297D02*
D03*
Y370452D02*
D03*
X711297D02*
D03*
X563750Y573448D02*
D03*
X585750D02*
D03*
Y590448D02*
D03*
X563750D02*
D03*
D87*
X165750Y922136D02*
D03*
Y914136D02*
D03*
Y906136D02*
D03*
Y898136D02*
D03*
Y890136D02*
D03*
Y882136D02*
D03*
Y874136D02*
D03*
Y866136D02*
D03*
X79750D02*
D03*
Y874136D02*
D03*
Y882136D02*
D03*
Y890136D02*
D03*
Y898136D02*
D03*
Y906136D02*
D03*
Y914136D02*
D03*
Y922136D02*
D03*
D88*
X150750Y851136D02*
D03*
X142750D02*
D03*
X134750D02*
D03*
X126750D02*
D03*
X118750D02*
D03*
X110750D02*
D03*
X102750D02*
D03*
X94750D02*
D03*
Y937136D02*
D03*
X102750D02*
D03*
X110750D02*
D03*
X118750D02*
D03*
X126750D02*
D03*
X134750D02*
D03*
X142750D02*
D03*
X150750D02*
D03*
D89*
X117500Y806050D02*
D03*
X61000D02*
D03*
Y780650D02*
D03*
X117500D02*
D03*
Y755250D02*
D03*
X61000D02*
D03*
D90*
X193302Y753000D02*
D03*
X221750D02*
D03*
D91*
X336000Y741000D02*
D03*
D92*
Y802000D02*
D03*
X359000D02*
D03*
X313000D02*
D03*
D93*
X436000Y350046D02*
D03*
Y374046D02*
D03*
D94*
X450700Y778000D02*
D03*
Y840000D02*
D03*
X425300D02*
D03*
Y778000D02*
D03*
D95*
X504500Y785000D02*
D03*
X509500D02*
D03*
X514500D02*
D03*
X519500D02*
D03*
X524500D02*
D03*
X529500D02*
D03*
X534500D02*
D03*
X539500D02*
D03*
X544500D02*
D03*
X549500D02*
D03*
X554500D02*
D03*
X559500D02*
D03*
X564500D02*
D03*
X569500D02*
D03*
X574500D02*
D03*
X579500D02*
D03*
Y671000D02*
D03*
X574500D02*
D03*
X569500D02*
D03*
X564500D02*
D03*
X559500D02*
D03*
X554500D02*
D03*
X549500D02*
D03*
X544500D02*
D03*
X539500D02*
D03*
X534500D02*
D03*
X529500D02*
D03*
X524500D02*
D03*
X519500D02*
D03*
X514500D02*
D03*
X509500D02*
D03*
X504500D02*
D03*
D96*
X599000Y765500D02*
D03*
Y760500D02*
D03*
Y755500D02*
D03*
Y750500D02*
D03*
Y745500D02*
D03*
Y740500D02*
D03*
Y735500D02*
D03*
Y730500D02*
D03*
Y725500D02*
D03*
Y720500D02*
D03*
Y715500D02*
D03*
Y710500D02*
D03*
Y705500D02*
D03*
Y700500D02*
D03*
Y695500D02*
D03*
Y690500D02*
D03*
X485000D02*
D03*
Y695500D02*
D03*
Y700500D02*
D03*
Y705500D02*
D03*
Y710500D02*
D03*
Y715500D02*
D03*
Y720500D02*
D03*
Y725500D02*
D03*
Y730500D02*
D03*
Y735500D02*
D03*
Y740500D02*
D03*
Y745500D02*
D03*
Y750500D02*
D03*
Y755500D02*
D03*
Y760500D02*
D03*
Y765500D02*
D03*
M02*
