G04*
G04 #@! TF.GenerationSoftware,Altium Limited,Altium Designer,18.0.12 (696)*
G04*
G04 Layer_Color=8388736*
%FSLAX44Y44*%
%MOMM*%
G71*
G01*
G75*
%ADD13C,0.1524*%
%ADD15C,0.2540*%
D13*
X1065602Y468005D02*
X1068141Y470544D01*
Y475623D01*
X1065602Y478162D01*
X1055446D01*
X1052906Y475623D01*
Y470544D01*
X1055446Y468005D01*
X1057985D01*
X1060524Y470544D01*
Y478162D01*
X1055446Y483240D02*
X1052906Y485779D01*
Y490858D01*
X1055446Y493397D01*
X1065602D01*
X1068141Y490858D01*
Y485779D01*
X1065602Y483240D01*
X1055446D01*
X1068141Y498475D02*
X1057985D01*
Y501014D01*
X1060524Y503554D01*
X1068141D01*
X1060524D01*
X1057985Y506093D01*
X1060524Y508632D01*
X1068141D01*
Y513710D02*
X1057985D01*
Y516249D01*
X1060524Y518789D01*
X1068141D01*
X1060524D01*
X1057985Y521328D01*
X1060524Y523867D01*
X1068141D01*
X1026794Y2484D02*
Y17719D01*
X1034411D01*
X1036951Y15180D01*
Y10101D01*
X1034411Y7562D01*
X1026794D01*
X1031872D02*
X1036951Y2484D01*
X1067421Y17719D02*
X1057264D01*
Y10101D01*
X1062342Y12640D01*
X1064881D01*
X1067421Y10101D01*
Y5023D01*
X1064881Y2484D01*
X1059803D01*
X1057264Y5023D01*
X1072499Y2484D02*
Y12640D01*
X1075038D01*
X1077577Y10101D01*
Y2484D01*
Y10101D01*
X1080117Y12640D01*
X1082656Y10101D01*
Y2484D01*
X1087734D02*
Y12640D01*
X1090273D01*
X1092812Y10101D01*
Y2484D01*
Y10101D01*
X1095352Y12640D01*
X1097891Y10101D01*
Y2484D01*
X461657Y1035108D02*
X466735D01*
X464196D01*
Y1050343D01*
X461657Y1047804D01*
X474353D02*
X476892Y1050343D01*
X481970D01*
X484510Y1047804D01*
Y1037648D01*
X481970Y1035108D01*
X476892D01*
X474353Y1037648D01*
Y1047804D01*
X489588D02*
X492127Y1050343D01*
X497206D01*
X499745Y1047804D01*
Y1037648D01*
X497206Y1035108D01*
X492127D01*
X489588Y1037648D01*
Y1047804D01*
X504823Y1035108D02*
Y1045265D01*
X507362D01*
X509902Y1042726D01*
Y1035108D01*
Y1042726D01*
X512441Y1045265D01*
X514980Y1042726D01*
Y1035108D01*
X520058D02*
Y1045265D01*
X522597D01*
X525136Y1042726D01*
Y1035108D01*
Y1042726D01*
X527676Y1045265D01*
X530215Y1042726D01*
Y1035108D01*
X-51609Y461657D02*
Y466735D01*
Y464196D01*
X-66844D01*
X-64304Y461657D01*
Y474353D02*
X-66844Y476892D01*
Y481970D01*
X-64304Y484510D01*
X-54148D01*
X-51609Y481970D01*
Y476892D01*
X-54148Y474353D01*
X-64304D01*
Y489588D02*
X-66844Y492127D01*
Y497206D01*
X-64304Y499745D01*
X-54148D01*
X-51609Y497206D01*
Y492127D01*
X-54148Y489588D01*
X-64304D01*
X-51609Y504823D02*
X-61765D01*
Y507362D01*
X-59226Y509902D01*
X-51609D01*
X-59226D01*
X-61765Y512441D01*
X-59226Y514980D01*
X-51609D01*
Y520058D02*
X-61765D01*
Y522597D01*
X-59226Y525136D01*
X-51609D01*
X-59226D01*
X-61765Y527676D01*
X-59226Y530215D01*
X-51609D01*
D15*
X1059000Y950000D02*
X1064080Y934760D01*
X1053920D02*
X1059000Y950000D01*
X1053920Y65240D02*
X1059000Y50000D01*
X1064080Y65240D01*
X1059000Y527931D02*
Y950000D01*
Y50000D02*
Y463941D01*
X1000000Y950000D02*
X1061540D01*
X1003302Y50000D02*
X1061540D01*
X985355Y14645D02*
X999724Y7460D01*
X985355Y14645D02*
X992540Y276D01*
X985355Y14645D02*
X1006314Y-6314D01*
X1024254Y11625D01*
X0Y1044250D02*
X15240Y1049330D01*
X0Y1044250D02*
X15240Y1039170D01*
X984760D02*
X1000000Y1044250D01*
X984760Y1049330D02*
X1000000Y1044250D01*
X0D02*
X457593D01*
X534279D02*
X1000000D01*
X0Y1000000D02*
Y1046790D01*
X1000000Y1000000D02*
Y1046790D01*
X-65830Y15240D02*
X-60750Y0D01*
X-55670Y15240D01*
X-60750Y1000000D02*
X-55670Y984760D01*
X-65830D02*
X-60750Y1000000D01*
Y0D02*
Y457593D01*
Y534279D02*
Y1000000D01*
X-63290Y0D02*
X0D01*
X-63290Y1000000D02*
X0D01*
M02*
