G04*
G04 #@! TF.GenerationSoftware,Altium Limited,Altium Designer,20.0.10 (225)*
G04*
G04 Layer_Color=8421504*
%FSLAX44Y44*%
%MOMM*%
G71*
G01*
G75*
%ADD18R,1.7272X1.8288*%
%ADD19R,0.6400X0.9500*%
%ADD20R,1.3500X0.8000*%
%ADD21R,0.7500X0.9000*%
%ADD22R,0.9000X0.7500*%
%ADD23R,0.8000X1.3500*%
%ADD24R,1.9050X0.6604*%
D18*
X454000Y407728D02*
D03*
Y379280D02*
D03*
Y627728D02*
D03*
Y599280D02*
D03*
Y252272D02*
D03*
Y280720D02*
D03*
X546000Y627728D02*
D03*
Y599280D02*
D03*
Y472272D02*
D03*
Y500720D02*
D03*
Y407728D02*
D03*
Y379280D02*
D03*
Y252272D02*
D03*
Y280720D02*
D03*
D19*
X622300Y365750D02*
D03*
X612800D02*
D03*
X631800Y339750D02*
D03*
X622300D02*
D03*
X612800D02*
D03*
X631800Y365750D02*
D03*
X666700Y339750D02*
D03*
X657200D02*
D03*
X676200Y313750D02*
D03*
X666700D02*
D03*
X657200D02*
D03*
X676200Y339750D02*
D03*
X344950Y343750D02*
D03*
X354450D02*
D03*
X335450Y369750D02*
D03*
X344950D02*
D03*
X354450D02*
D03*
X335450Y343750D02*
D03*
X379850Y317750D02*
D03*
X389350D02*
D03*
X370350Y343750D02*
D03*
X379850D02*
D03*
X389350D02*
D03*
X370350Y317750D02*
D03*
D20*
X401500Y833000D02*
D03*
Y850000D02*
D03*
Y793500D02*
D03*
Y810500D02*
D03*
X381500Y793500D02*
D03*
Y810500D02*
D03*
X361500Y793500D02*
D03*
Y810500D02*
D03*
D21*
X394500Y720000D02*
D03*
X380500D02*
D03*
X394500Y704000D02*
D03*
X380500D02*
D03*
X394500Y688000D02*
D03*
X380500D02*
D03*
Y672000D02*
D03*
X394500D02*
D03*
X560750Y786000D02*
D03*
X546750D02*
D03*
X531500D02*
D03*
X517500D02*
D03*
X573250Y759490D02*
D03*
X587250D02*
D03*
X519500D02*
D03*
X505500D02*
D03*
X961750Y504000D02*
D03*
X947750D02*
D03*
X702000Y560300D02*
D03*
X716000D02*
D03*
X653500Y597750D02*
D03*
X667500D02*
D03*
X759250Y302500D02*
D03*
X745250D02*
D03*
X696600Y379000D02*
D03*
X682600D02*
D03*
X597750Y365750D02*
D03*
X583750D02*
D03*
X636300Y381250D02*
D03*
X622300D02*
D03*
X306400Y375500D02*
D03*
X292400D02*
D03*
X330250Y327750D02*
D03*
X344250D02*
D03*
X365850Y302000D02*
D03*
X379850D02*
D03*
X303800Y280000D02*
D03*
X317800D02*
D03*
X303800Y501000D02*
D03*
X317800D02*
D03*
X306250Y598250D02*
D03*
X292250D02*
D03*
X558500Y759490D02*
D03*
X544500D02*
D03*
X716000Y502300D02*
D03*
X702000D02*
D03*
D22*
X485000Y760220D02*
D03*
Y746220D02*
D03*
X806750Y571700D02*
D03*
Y585700D02*
D03*
Y513700D02*
D03*
Y527700D02*
D03*
X830000Y344198D02*
D03*
Y330198D02*
D03*
X666750Y368750D02*
D03*
Y354750D02*
D03*
X217750Y553552D02*
D03*
Y567552D02*
D03*
X220000Y348352D02*
D03*
Y334352D02*
D03*
X406000Y317750D02*
D03*
Y303750D02*
D03*
D23*
X544500Y741000D02*
D03*
X561500D02*
D03*
Y720000D02*
D03*
X544500D02*
D03*
X519500Y741000D02*
D03*
X502500D02*
D03*
Y720000D02*
D03*
X519500D02*
D03*
X650500Y578750D02*
D03*
X667500D02*
D03*
X699600Y361000D02*
D03*
X682600D02*
D03*
X300800Y298000D02*
D03*
X317800D02*
D03*
X300800Y520000D02*
D03*
X317800D02*
D03*
D24*
X735600Y560300D02*
D03*
Y573000D02*
D03*
X786400Y585700D02*
D03*
Y598400D02*
D03*
X735600Y585700D02*
D03*
Y598400D02*
D03*
X786400Y560300D02*
D03*
Y573000D02*
D03*
X735600Y502300D02*
D03*
Y515000D02*
D03*
X786400Y527700D02*
D03*
Y540400D02*
D03*
X735600Y527700D02*
D03*
Y540400D02*
D03*
X786400Y502300D02*
D03*
Y515000D02*
D03*
X759200Y318350D02*
D03*
Y331050D02*
D03*
X810000Y343750D02*
D03*
Y356450D02*
D03*
X759200Y343750D02*
D03*
Y356450D02*
D03*
X810000Y318350D02*
D03*
Y331050D02*
D03*
X292400Y360200D02*
D03*
Y347500D02*
D03*
X241600Y334800D02*
D03*
Y322100D02*
D03*
X292400Y334800D02*
D03*
Y322100D02*
D03*
X241600Y360200D02*
D03*
Y347500D02*
D03*
X292400Y579400D02*
D03*
Y566700D02*
D03*
X241600Y554000D02*
D03*
Y541300D02*
D03*
X292400Y554000D02*
D03*
Y541300D02*
D03*
X241600Y579400D02*
D03*
Y566700D02*
D03*
M02*
