G04*
G04 #@! TF.GenerationSoftware,Altium Limited,Altium Designer,18.0.12 (696)*
G04*
G04 Layer_Color=32896*
%FSLAX44Y44*%
%MOMM*%
G71*
G01*
G75*
%ADD10C,0.2032*%
%ADD13C,0.1524*%
%ADD15C,0.2540*%
%ADD115C,0.0000*%
D10*
X300606Y286622D02*
G03*
X300606Y286622I-1043J0D01*
G01*
Y505622D02*
G03*
X300606Y505622I-1043J0D01*
G01*
X414451Y767958D02*
G03*
X414451Y767958I-762J0D01*
G01*
X765183Y593378D02*
G03*
X765183Y593378I-1043J0D01*
G01*
X268153Y859570D02*
G03*
X268153Y859570I-1043J0D01*
G01*
X700481Y373382D02*
G03*
X700481Y373382I-1043J0D01*
G01*
X552934Y593378D02*
G03*
X552934Y593378I-1043J0D01*
G01*
X700250Y277250D02*
X704250Y273250D01*
X700250Y277250D02*
Y365000D01*
X333750Y315250D02*
X344000D01*
X330000Y319000D02*
X333750Y315250D01*
X65000Y961000D02*
X68750Y964750D01*
X40750Y961000D02*
X65000D01*
X989000Y543250D02*
X992000Y540250D01*
X989000Y543250D02*
Y573250D01*
X460400Y847000D02*
X466000D01*
X435000D02*
X441000D01*
X466000Y771000D02*
Y847000D01*
X435000Y771000D02*
X441000D01*
X460400D02*
X466000D01*
X410000Y847000D02*
X415600D01*
X410000Y774000D02*
Y847000D01*
Y774000D02*
X413000Y771000D01*
X415600D01*
D13*
X150472Y918266D02*
G03*
X150472Y918266I-3592J0D01*
G01*
X32380Y593650D02*
X58120D01*
X32380D02*
Y606850D01*
X58120D01*
Y593650D02*
Y606850D01*
X171096Y605150D02*
X203100D01*
X171096Y598800D02*
Y605150D01*
X158650Y598800D02*
X171096D01*
X158650D02*
Y605150D01*
X126900D02*
X158650D01*
X126900Y490850D02*
Y605150D01*
Y490850D02*
X203100D01*
Y605150D01*
X171096Y386150D02*
X203100D01*
X171096Y379800D02*
Y386150D01*
X158650Y379800D02*
X171096D01*
X158650D02*
Y386150D01*
X126900D02*
X158650D01*
X126900Y271850D02*
Y386150D01*
Y271850D02*
X203100D01*
Y386150D01*
X695370Y363400D02*
Y376600D01*
X669630D02*
X695370D01*
X669630Y363400D02*
Y376600D01*
Y363400D02*
X695370D01*
Y347600D02*
Y360800D01*
X669630D02*
X695370D01*
X669630Y347600D02*
Y360800D01*
Y347600D02*
X695370D01*
X609400Y728380D02*
X622600D01*
Y754120D01*
X609400D02*
X622600D01*
X609400Y728380D02*
Y754120D01*
Y675630D02*
X622600D01*
Y701370D01*
X609400D02*
X622600D01*
X609400Y675630D02*
Y701370D01*
X512380Y647400D02*
Y660600D01*
Y647400D02*
X538120D01*
Y660600D01*
X512380D02*
X538120D01*
X555880Y647400D02*
X581620D01*
X555880D02*
Y660600D01*
X581620D01*
Y647400D02*
Y660600D01*
X554400Y599630D02*
Y625370D01*
X567600D01*
Y599630D02*
Y625370D01*
X554400Y599630D02*
X567600D01*
X596630Y584150D02*
X622370D01*
X596630D02*
Y597350D01*
X622370D01*
Y584150D02*
Y597350D01*
X596380Y581350D02*
X622120D01*
Y568150D02*
Y581350D01*
X596380Y568150D02*
X622120D01*
X596380D02*
Y581350D01*
X568630Y550400D02*
X594370D01*
X568630D02*
Y563600D01*
X594370D01*
Y550400D02*
Y563600D01*
X587880Y542850D02*
X613620D01*
Y529650D02*
Y542850D01*
X587880Y529650D02*
X613620D01*
X587880D02*
Y542850D01*
X586638Y502613D02*
Y526997D01*
Y502613D02*
X596290D01*
Y489405D02*
Y502613D01*
Y489405D02*
X611530D01*
Y502613D01*
X621182D01*
Y526997D01*
X586638D02*
X621182D01*
X555650Y499380D02*
Y525120D01*
X568850D01*
Y499380D02*
Y525120D01*
X555650Y499380D02*
X568850D01*
X584100D02*
Y525120D01*
X570900Y499380D02*
X584100D01*
X570900D02*
Y525120D01*
X584100D01*
X588270Y483400D02*
Y496600D01*
X562530D02*
X588270D01*
X562530Y483400D02*
Y496600D01*
Y483400D02*
X588270D01*
Y467200D02*
Y480400D01*
X562530D02*
X588270D01*
X562530Y467200D02*
Y480400D01*
Y467200D02*
X588270D01*
X564393Y425978D02*
X588777D01*
Y435630D01*
X601985D01*
Y450870D01*
X588777D02*
X601985D01*
X588777D02*
Y460522D01*
X564393D02*
X588777D01*
X564393Y425978D02*
Y460522D01*
X547650Y427220D02*
Y452960D01*
X560850D01*
Y427220D02*
Y452960D01*
X547650Y427220D02*
X560850D01*
X566270Y422600D02*
X592010D01*
Y409400D02*
Y422600D01*
X566270Y409400D02*
X592010D01*
X566270D02*
Y422600D01*
Y406850D02*
X592010D01*
Y393650D02*
Y406850D01*
X566270Y393650D02*
X592010D01*
X566270D02*
Y406850D01*
X579400Y345130D02*
X592600D01*
Y370870D01*
X579400D02*
X592600D01*
X579400Y345130D02*
Y370870D01*
X579400Y342320D02*
X592600D01*
X579400Y316580D02*
Y342320D01*
Y316580D02*
X592600D01*
Y342320D01*
X588500Y300000D02*
X588500Y301016D01*
X588500Y312984D02*
Y314000D01*
X609500Y313056D02*
Y314000D01*
Y300000D02*
Y300944D01*
X593150Y300000D02*
Y314000D01*
X588500Y300000D02*
X609500D01*
X588500Y314000D02*
X609500D01*
X695370Y331800D02*
Y345000D01*
X669630D02*
X695370D01*
X669630Y331800D02*
Y345000D01*
Y331800D02*
X695370D01*
Y316400D02*
Y329600D01*
X669630D02*
X695370D01*
X669630Y316400D02*
Y329600D01*
Y316400D02*
X695370D01*
X669630Y300200D02*
Y313400D01*
Y300200D02*
X695370D01*
Y313400D01*
X669630D02*
X695370D01*
X639220Y369918D02*
X644300Y364838D01*
Y316578D02*
Y364838D01*
X618900Y316578D02*
X644300D01*
X618900D02*
Y369918D01*
X639220D01*
X688130Y379400D02*
X713870D01*
X688130D02*
Y392600D01*
X713870D01*
Y379400D02*
Y392600D01*
X716677Y330268D02*
X742417D01*
X716677D02*
Y343468D01*
X742417D01*
Y330268D02*
Y343468D01*
X744130Y361350D02*
X769870D01*
Y348150D02*
Y361350D01*
X744130Y348150D02*
X769870D01*
X744130D02*
Y361350D01*
X744380Y364150D02*
X770120D01*
X744380D02*
Y377350D01*
X770120D01*
Y364150D02*
Y377350D01*
X796900Y273854D02*
X828904D01*
Y280204D01*
X841350D01*
Y273854D02*
Y280204D01*
Y273854D02*
X873100D01*
Y388154D01*
X796900D02*
X873100D01*
X796900Y273854D02*
Y388154D01*
X899010Y300956D02*
X924751D01*
Y287756D02*
Y300956D01*
X899010Y287756D02*
X924751D01*
X899010D02*
Y300956D01*
X899130Y285352D02*
X924870D01*
Y272152D02*
Y285352D01*
X899130Y272152D02*
X924870D01*
X899130D02*
Y285352D01*
X912650Y222357D02*
X925850D01*
X912650Y196617D02*
Y222357D01*
Y196617D02*
X925850D01*
Y222357D01*
X928978Y197973D02*
Y222357D01*
Y197973D02*
X938630D01*
Y184765D02*
Y197973D01*
Y184765D02*
X953870D01*
Y197973D01*
X963522D01*
Y222357D01*
X928978D02*
X963522D01*
X966120Y168150D02*
Y181350D01*
X940380D02*
X966120D01*
X940380Y168150D02*
Y181350D01*
Y168150D02*
X966120D01*
X746000Y177120D02*
X759200D01*
X746000Y151380D02*
Y177120D01*
Y151380D02*
X759200D01*
Y177120D01*
X776400Y116120D02*
X789600D01*
X776400Y90380D02*
Y116120D01*
Y90380D02*
X789600D01*
Y116120D01*
X588270Y263400D02*
Y276600D01*
X562530D02*
X588270D01*
X562530Y263400D02*
Y276600D01*
Y263400D02*
X588270D01*
X587870Y247197D02*
Y260397D01*
X562130D02*
X587870D01*
X562130Y247197D02*
Y260397D01*
Y247197D02*
X587870D01*
X594720Y239100D02*
X620460D01*
Y225900D02*
Y239100D01*
X594720Y225900D02*
X620460D01*
X594720D02*
Y239100D01*
X575600Y195490D02*
Y221230D01*
X562400Y195490D02*
X575600D01*
X562400D02*
Y221230D01*
X575600D01*
X590850Y195490D02*
Y221230D01*
X577650Y195490D02*
X590850D01*
X577650D02*
Y221230D01*
X590850D01*
X593478Y198723D02*
Y223107D01*
Y198723D02*
X603130D01*
Y185515D02*
Y198723D01*
Y185515D02*
X618370D01*
Y198723D01*
X628022D01*
Y223107D01*
X593478D02*
X628022D01*
X268400Y115870D02*
X281600D01*
X268400Y90130D02*
Y115870D01*
Y90130D02*
X281600D01*
Y115870D01*
X284400D02*
X297600D01*
X284400Y90130D02*
Y115870D01*
Y90130D02*
X297600D01*
Y115870D01*
X49400D02*
X62600D01*
X49400Y90130D02*
Y115870D01*
Y90130D02*
X62600D01*
Y115870D01*
X122400D02*
X135600D01*
X122400Y90130D02*
Y115870D01*
Y90130D02*
X135600D01*
Y115870D01*
X138667D02*
X151867D01*
X138667Y90130D02*
Y115870D01*
Y90130D02*
X151867D01*
Y115870D01*
X195400D02*
X208600D01*
X195400Y90130D02*
Y115870D01*
Y90130D02*
X208600D01*
Y115870D01*
X211533D02*
X224733D01*
X211533Y90130D02*
Y115870D01*
Y90130D02*
X224733D01*
Y115870D01*
X65800D02*
X79000D01*
X65800Y90130D02*
Y115870D01*
Y90130D02*
X79000D01*
Y115870D01*
X52530Y74400D02*
Y87600D01*
Y74400D02*
X78270D01*
Y87600D01*
X52530D02*
X78270D01*
X125397Y74400D02*
Y87600D01*
Y74400D02*
X151137D01*
Y87600D01*
X125397D02*
X151137D01*
X198263Y74400D02*
Y87600D01*
Y74400D02*
X224003D01*
Y87600D01*
X198263D02*
X224003D01*
X271130Y74400D02*
Y87600D01*
Y74400D02*
X296870D01*
Y87600D01*
X271130D02*
X296870D01*
X81568Y91363D02*
Y115747D01*
Y91363D02*
X91220D01*
Y78155D02*
Y91363D01*
Y78155D02*
X106460D01*
Y91363D01*
X116112D01*
Y115747D01*
X81568D02*
X116112D01*
X227781Y91363D02*
Y115747D01*
Y91363D02*
X237433D01*
Y78155D02*
Y91363D01*
Y78155D02*
X252673D01*
Y91363D01*
X262325D01*
Y115747D01*
X227781D02*
X262325D01*
X154675Y91363D02*
Y115747D01*
Y91363D02*
X164327D01*
Y78155D02*
Y91363D01*
Y78155D02*
X179567D01*
Y91363D01*
X189219D01*
Y115747D01*
X154675D02*
X189219D01*
X300888Y91363D02*
Y115747D01*
Y91363D02*
X310540D01*
Y78155D02*
Y91363D01*
Y78155D02*
X325780D01*
Y91363D01*
X335432D01*
Y115747D01*
X300888D02*
X335432D01*
X642140Y80307D02*
Y124607D01*
X621860Y80307D02*
X642140D01*
X621860Y124607D02*
X642140D01*
X621860Y80307D02*
Y124607D01*
X584728Y100223D02*
Y124607D01*
Y100223D02*
X594380D01*
Y87015D02*
Y100223D01*
Y87015D02*
X609620D01*
Y100223D01*
X619272D01*
Y124607D01*
X584728D02*
X619272D01*
X582140Y80307D02*
Y124607D01*
X561860Y80307D02*
X582140D01*
X561860Y124607D02*
X582140D01*
X561860Y80307D02*
Y124607D01*
X593070Y14610D02*
Y35390D01*
Y14610D02*
X632930D01*
X593070Y35390D02*
X632930D01*
Y14610D02*
Y35390D01*
X406930Y15610D02*
Y36390D01*
X367070D02*
X406930D01*
X367070Y15610D02*
X406930D01*
X367070D02*
Y36390D01*
X377140Y80307D02*
Y124607D01*
X356860Y80307D02*
X377140D01*
X356860Y124607D02*
X377140D01*
X356860Y80307D02*
Y124607D01*
X380068Y100223D02*
Y124607D01*
Y100223D02*
X389720D01*
Y87015D02*
Y100223D01*
Y87015D02*
X404960D01*
Y100223D01*
X414612D01*
Y124607D01*
X380068D02*
X414612D01*
X437140Y80307D02*
Y124607D01*
X416860Y80307D02*
X437140D01*
X416860Y124607D02*
X437140D01*
X416860Y80307D02*
Y124607D01*
X488930Y111000D02*
Y131780D01*
X449070D02*
X488930D01*
X449070Y111000D02*
X488930D01*
X449070D02*
Y131780D01*
X488930Y134860D02*
Y155640D01*
X449070D02*
X488930D01*
X449070Y134860D02*
X488930D01*
X449070D02*
Y155640D01*
X492400Y139380D02*
X505600D01*
Y165120D01*
X492400D02*
X505600D01*
X492400Y139380D02*
Y165120D01*
X476400Y158380D02*
X489600D01*
Y184120D01*
X476400D02*
X489600D01*
X476400Y158380D02*
Y184120D01*
X508400Y158380D02*
X521600D01*
Y184120D01*
X508400D02*
X521600D01*
X508400Y158380D02*
Y184120D01*
X492400Y136740D02*
X505600D01*
X492400Y111000D02*
Y136740D01*
Y111000D02*
X505600D01*
Y136740D01*
X509070Y134860D02*
Y155640D01*
Y134860D02*
X548930D01*
X509070Y155640D02*
X548930D01*
Y134860D02*
Y155640D01*
X509070Y111000D02*
Y131780D01*
Y111000D02*
X548930D01*
X509070Y131780D02*
X548930D01*
Y111000D02*
Y131780D01*
X271130Y166400D02*
Y179600D01*
Y166400D02*
X296870D01*
Y179600D01*
X271130D02*
X296870D01*
X198263Y166400D02*
Y179600D01*
Y166400D02*
X224003D01*
Y179600D01*
X198263D02*
X224003D01*
X125397Y166400D02*
Y179600D01*
Y166400D02*
X151137D01*
Y179600D01*
X125397D02*
X151137D01*
X52530Y166400D02*
Y179600D01*
Y166400D02*
X78270D01*
Y179600D01*
X52530D02*
X78270D01*
X49400Y207870D02*
X62600D01*
X49400Y182130D02*
Y207870D01*
Y182130D02*
X62600D01*
Y207870D01*
X65800D02*
X79000D01*
X65800Y182130D02*
Y207870D01*
Y182130D02*
X79000D01*
Y207870D01*
X81568Y183486D02*
Y207870D01*
Y183486D02*
X91220D01*
Y170278D02*
Y183486D01*
Y170278D02*
X106460D01*
Y183486D01*
X116112D01*
Y207870D01*
X81568D02*
X116112D01*
X154888Y183486D02*
Y207870D01*
Y183486D02*
X164540D01*
Y170278D02*
Y183486D01*
Y170278D02*
X179780D01*
Y183486D01*
X189432D01*
Y207870D01*
X154888D02*
X189432D01*
X122400Y207870D02*
X135600D01*
X122400Y182130D02*
Y207870D01*
Y182130D02*
X135600D01*
Y207870D01*
X138667D02*
X151867D01*
X138667Y182130D02*
Y207870D01*
Y182130D02*
X151867D01*
Y207870D01*
X195400D02*
X208600D01*
X195400Y182130D02*
Y207870D01*
Y182130D02*
X208600D01*
Y207870D01*
X211533D02*
X224733D01*
X211533Y182130D02*
Y207870D01*
Y182130D02*
X224733D01*
Y207870D01*
X227888Y183486D02*
Y207870D01*
Y183486D02*
X237540D01*
Y170278D02*
Y183486D01*
Y170278D02*
X252780D01*
Y183486D01*
X262432D01*
Y207870D01*
X227888D02*
X262432D01*
X268400Y207870D02*
X281600D01*
X268400Y182130D02*
Y207870D01*
Y182130D02*
X281600D01*
Y207870D01*
X284400D02*
X297600D01*
X284400Y182130D02*
Y207870D01*
Y182130D02*
X297600D01*
Y207870D01*
X300888Y183486D02*
Y207870D01*
Y183486D02*
X310540D01*
Y170278D02*
Y183486D01*
Y170278D02*
X325780D01*
Y183486D01*
X335432D01*
Y207870D01*
X300888D02*
X335432D01*
X284630Y281850D02*
X310370D01*
Y268650D02*
Y281850D01*
X284630Y268650D02*
X310370D01*
X284630D02*
Y281850D01*
X355900Y321658D02*
X360980Y316578D01*
X355900Y321658D02*
Y369918D01*
X381300D01*
Y316578D02*
Y369918D01*
X360980Y316578D02*
X381300D01*
X410400Y344176D02*
X423600D01*
Y369916D01*
X410400D02*
X423600D01*
X410400Y344176D02*
Y369916D01*
X410400Y342320D02*
X423600D01*
X410400Y316580D02*
Y342320D01*
Y316580D02*
X423600D01*
Y342320D01*
X409503Y279818D02*
X433887D01*
Y289470D01*
X447095D01*
Y304710D01*
X433887D02*
X447095D01*
X433887D02*
Y314362D01*
X409503D02*
X433887D01*
X409503Y279818D02*
Y314362D01*
X411380Y276826D02*
X437120D01*
Y263626D02*
Y276826D01*
X411380Y263626D02*
X437120D01*
X411380D02*
Y276826D01*
Y260826D02*
X437120D01*
Y247626D02*
Y260826D01*
X411380Y247626D02*
X437120D01*
X411380D02*
Y260826D01*
X393689Y281060D02*
Y306800D01*
X406889D01*
Y281060D02*
Y306800D01*
X393689Y281060D02*
X406889D01*
X229130Y296048D02*
X254870D01*
Y282848D02*
Y296048D01*
X229130Y282848D02*
X254870D01*
X229130D02*
Y296048D01*
Y298452D02*
X254870D01*
X229130D02*
Y311652D01*
X254870D01*
Y298452D02*
Y311652D01*
X257130Y329600D02*
X282870D01*
Y316400D02*
Y329600D01*
X257130Y316400D02*
X282870D01*
X257130D02*
Y329600D01*
X302130Y334175D02*
Y347375D01*
Y334175D02*
X327870D01*
Y347375D01*
X302130D02*
X327870D01*
X302130Y317188D02*
Y330388D01*
Y317188D02*
X327870D01*
Y330388D01*
X302130D02*
X327870D01*
X302130Y300200D02*
Y313400D01*
Y300200D02*
X327870D01*
Y313400D01*
X302130D02*
X327870D01*
X302130Y351162D02*
Y364362D01*
Y351162D02*
X327870D01*
Y364362D01*
X302130D02*
X327870D01*
Y368150D02*
Y381350D01*
X302130D02*
X327870D01*
X302130Y368150D02*
Y381350D01*
Y368150D02*
X327870D01*
X32380Y374652D02*
X58120D01*
X32380D02*
Y387852D01*
X58120D01*
Y374652D02*
Y387852D01*
X75130Y356600D02*
X100870D01*
Y343400D02*
Y356600D01*
X75130Y343400D02*
X100870D01*
X75130D02*
Y356600D01*
X75249Y359048D02*
X100989D01*
X75249D02*
Y372248D01*
X100989D01*
Y359048D02*
Y372248D01*
X75130Y374652D02*
X100870D01*
X75130D02*
Y387852D01*
X100870D01*
Y374652D02*
Y387852D01*
X75250Y578048D02*
X100990D01*
X75250D02*
Y591248D01*
X100990D01*
Y578048D02*
Y591248D01*
X75250Y575600D02*
X100990D01*
Y562400D02*
Y575600D01*
X75250Y562400D02*
X100990D01*
X75250D02*
Y575600D01*
X75130Y593652D02*
X100870D01*
X75130D02*
Y606852D01*
X100870D01*
Y593652D02*
Y606852D01*
X257130Y548600D02*
X282870D01*
Y535400D02*
Y548600D01*
X257130Y535400D02*
X282870D01*
X257130D02*
Y548600D01*
X229130Y517452D02*
X254870D01*
X229130D02*
Y530652D01*
X254870D01*
Y517452D02*
Y530652D01*
X229130Y515048D02*
X254870D01*
Y501848D02*
Y515048D01*
X229130Y501848D02*
X254870D01*
X229130D02*
Y515048D01*
X285130Y500600D02*
X310870D01*
Y487400D02*
Y500600D01*
X285130Y487400D02*
X310870D01*
X285130D02*
Y500600D01*
X68350Y886016D02*
Y911756D01*
X55150Y886016D02*
X68350D01*
X55150D02*
Y911756D01*
X68350D01*
Y856016D02*
Y881756D01*
X55150Y856016D02*
X68350D01*
X55150D02*
Y881756D01*
X68350D01*
X115350Y948130D02*
Y973870D01*
X102150Y948130D02*
X115350D01*
X102150D02*
Y973870D01*
X115350D01*
X118150Y948130D02*
Y973870D01*
X131350D01*
Y948130D02*
Y973870D01*
X118150Y948130D02*
X131350D01*
X212350Y959050D02*
Y984450D01*
X142500D02*
X212350D01*
X136150Y978100D02*
X142500Y984450D01*
X136150Y959050D02*
Y978100D01*
Y959050D02*
X212350D01*
X154790Y862386D02*
Y920516D01*
X149420Y925886D02*
X154790Y920516D01*
X91000Y925886D02*
X149420D01*
X91000Y862386D02*
Y925886D01*
Y862386D02*
X154790D01*
X250952Y852700D02*
X276692D01*
Y839500D02*
Y852700D01*
X250952Y839500D02*
X276692D01*
X250952D02*
Y852700D01*
X222452Y902271D02*
X248192D01*
Y889071D02*
Y902271D01*
X222452Y889071D02*
X248192D01*
X222452D02*
Y902271D01*
X177880Y893286D02*
X203620D01*
X177880D02*
Y906486D01*
X203620D01*
Y893286D02*
Y906486D01*
X177880Y890486D02*
X203620D01*
Y877286D02*
Y890486D01*
X177880Y877286D02*
X203620D01*
X177880D02*
Y890486D01*
X207687Y858516D02*
Y884256D01*
X220887D01*
Y858516D02*
Y884256D01*
X207687Y858516D02*
X220887D01*
X177880Y870986D02*
X203620D01*
Y857786D02*
Y870986D01*
X177880Y857786D02*
X203620D01*
X177880D02*
Y870986D01*
X121880Y838600D02*
X147620D01*
Y825400D02*
Y838600D01*
X121880Y825400D02*
X147620D01*
X121880D02*
Y838600D01*
X114340Y741280D02*
Y746360D01*
X63540D02*
X68620Y741280D01*
X114340D01*
X63540Y818750D02*
X114340D01*
Y814940D02*
Y818750D01*
X63540Y814940D02*
Y818750D01*
X158370Y727150D02*
Y740350D01*
X132630D02*
X158370D01*
X132630Y727150D02*
Y740350D01*
Y727150D02*
X158370D01*
X175620Y755400D02*
Y768600D01*
X149880D02*
X175620D01*
X149880Y755400D02*
Y768600D01*
Y755400D02*
X175620D01*
X150003Y774888D02*
X174387D01*
Y784540D01*
X187595D01*
Y799780D01*
X174387D02*
X187595D01*
X174387D02*
Y809432D01*
X150003D02*
X174387D01*
X150003Y774888D02*
Y809432D01*
X192150Y772130D02*
X205350D01*
Y797870D01*
X192150D02*
X205350D01*
X192150Y772130D02*
Y797870D01*
X208150Y772130D02*
X221350D01*
Y797870D01*
X208150D02*
X221350D01*
X208150Y772130D02*
Y797870D01*
X181618Y764430D02*
X203208D01*
X181618Y741570D02*
Y764430D01*
Y741570D02*
X203208D01*
X212098D02*
X239530D01*
X234196D02*
Y764430D01*
X212098D02*
X239530D01*
X235466Y741570D02*
Y764430D01*
X239530Y741570D02*
Y764430D01*
X237498Y741570D02*
Y764430D01*
X248050Y802720D02*
X265950D01*
Y773280D02*
Y802720D01*
X248050Y773280D02*
X265950D01*
X248050D02*
Y802720D01*
X281600Y776380D02*
Y802120D01*
X268400Y776380D02*
X281600D01*
X268400D02*
Y802120D01*
X281600D01*
X284400Y776380D02*
Y802120D01*
X297600D01*
Y776380D02*
Y802120D01*
X284400Y776380D02*
X297600D01*
X346400Y685578D02*
X359600D01*
Y711318D01*
X346400D02*
X359600D01*
X346400Y685578D02*
Y711318D01*
X388400Y776380D02*
Y802120D01*
X401600D01*
Y776380D02*
Y802120D01*
X388400Y776380D02*
X401600D01*
X373400D02*
Y802120D01*
X386600D01*
Y776380D02*
Y802120D01*
X373400Y776380D02*
X386600D01*
X373880Y749650D02*
X399620D01*
X373880D02*
Y762850D01*
X399620D01*
Y749650D02*
Y762850D01*
X373280Y729300D02*
Y747200D01*
X402720D01*
Y729300D02*
Y747200D01*
X373280Y729300D02*
X402720D01*
X441984Y351546D02*
X443000Y351546D01*
X429000D02*
X430016D01*
X429000Y372546D02*
X429944D01*
X442056D02*
X443000D01*
X429000Y356196D02*
X443000D01*
Y351546D02*
Y372546D01*
X429000Y351546D02*
Y372546D01*
X412130Y399600D02*
Y412800D01*
Y399600D02*
X437870D01*
Y412800D01*
X412130D02*
X437870D01*
X412130Y415400D02*
Y428600D01*
Y415400D02*
X437870D01*
Y428600D01*
X412130D02*
X437870D01*
X415130Y488100D02*
X440870D01*
Y474900D02*
Y488100D01*
X415130Y474900D02*
X440870D01*
X415130D02*
Y488100D01*
Y472850D02*
X440870D01*
Y459650D02*
Y472850D01*
X415130Y459650D02*
X440870D01*
X415130D02*
Y472850D01*
X396400Y491560D02*
Y517300D01*
X409600D01*
Y491560D02*
Y517300D01*
X396400Y491560D02*
X409600D01*
X413253Y490318D02*
X437637D01*
Y499970D01*
X450845D01*
Y515210D01*
X437637D02*
X450845D01*
X437637D02*
Y524862D01*
X413253D02*
X437637D01*
X413253Y490318D02*
Y524862D01*
X406473Y577112D02*
X430857D01*
X406473Y567460D02*
Y577112D01*
X393265Y567460D02*
X406473D01*
X393265Y552220D02*
Y567460D01*
Y552220D02*
X406473D01*
Y542568D02*
Y552220D01*
Y542568D02*
X430857D01*
Y577112D01*
X447100Y550130D02*
Y575870D01*
X433900Y550130D02*
X447100D01*
X433900D02*
Y575870D01*
X447100D01*
X396130Y579650D02*
X421870D01*
X396130D02*
Y592850D01*
X421870D01*
Y579650D02*
Y592850D01*
X396380Y594900D02*
X422120D01*
X396380D02*
Y608100D01*
X422120D01*
Y594900D02*
Y608100D01*
X482380Y625150D02*
X508120D01*
X482380D02*
Y638350D01*
X508120D01*
Y625150D02*
Y638350D01*
X482380Y609900D02*
X508120D01*
X482380D02*
Y623100D01*
X508120D01*
Y609900D02*
Y623100D01*
X485613Y607362D02*
X509997D01*
X485613Y597710D02*
Y607362D01*
X472405Y597710D02*
X485613D01*
X472405Y582470D02*
Y597710D01*
Y582470D02*
X485613D01*
Y572818D02*
Y582470D01*
Y572818D02*
X509997D01*
Y607362D01*
X525600Y580380D02*
Y606120D01*
X512400Y580380D02*
X525600D01*
X512400D02*
Y606120D01*
X525600D01*
X412130Y632850D02*
X437870D01*
Y619650D02*
Y632850D01*
X412130Y619650D02*
X437870D01*
X412130D02*
Y632850D01*
Y635850D02*
Y649050D01*
Y635850D02*
X437870D01*
Y649050D01*
X412130D02*
X437870D01*
X422680Y760600D02*
X448420D01*
Y747400D02*
Y760600D01*
X422680Y747400D02*
X448420D01*
X422680D02*
Y760600D01*
X461400Y745370D02*
X474600D01*
X461400Y719630D02*
Y745370D01*
Y719630D02*
X474600D01*
Y745370D01*
X448130Y675400D02*
Y688600D01*
Y675400D02*
X473870D01*
Y688600D01*
X448130D02*
X473870D01*
X474600Y691130D02*
Y716870D01*
X461400Y691130D02*
X474600D01*
X461400D02*
Y716870D01*
X474600D01*
X965130Y505348D02*
X990870D01*
Y492148D02*
Y505348D01*
X965130Y492148D02*
X990870D01*
X965130D02*
Y505348D01*
Y520952D02*
X990870D01*
Y507752D02*
Y520952D01*
X965130Y507752D02*
X990870D01*
X965130D02*
Y520952D01*
Y523400D02*
X990870D01*
X965130D02*
Y536600D01*
X990870D01*
Y523400D02*
Y536600D01*
X753130Y598400D02*
X778870D01*
X753130D02*
Y611600D01*
X778870D01*
Y598400D02*
Y611600D01*
X809130Y583952D02*
X834870D01*
X809130D02*
Y597152D01*
X834870D01*
Y583952D02*
Y597152D01*
X809130Y581548D02*
X834870D01*
Y568348D02*
Y581548D01*
X809130Y568348D02*
X834870D01*
X809130D02*
Y581548D01*
X780880Y550400D02*
X806620D01*
X780880D02*
Y563600D01*
X806620D01*
Y550400D02*
Y563600D01*
X748130Y523400D02*
X773870D01*
X748130D02*
Y536600D01*
X773870D01*
Y523400D02*
Y536600D01*
X748130Y520952D02*
X773870D01*
Y507752D02*
Y520952D01*
X748130Y507752D02*
X773870D01*
X748130D02*
Y520952D01*
Y505348D02*
X773870D01*
Y492148D02*
Y505348D01*
X748130Y492148D02*
X773870D01*
X748130D02*
Y505348D01*
X647100Y493850D02*
X679104D01*
Y500200D01*
X691550D01*
Y493850D02*
Y500200D01*
Y493850D02*
X723300D01*
Y608150D01*
X647100D02*
X723300D01*
X647100Y493850D02*
Y608150D01*
X859900Y493850D02*
X891904D01*
Y500200D01*
X904350D01*
Y493850D02*
Y500200D01*
Y493850D02*
X936100D01*
Y608150D01*
X859900D02*
X936100D01*
X859900Y493850D02*
Y608150D01*
X493370Y884400D02*
Y897600D01*
X467630D02*
X493370D01*
X467630Y884400D02*
Y897600D01*
Y884400D02*
X493370D01*
X427580Y856400D02*
X453320D01*
X427580D02*
Y869600D01*
X453320D01*
Y856400D02*
Y869600D01*
X494130Y823400D02*
X519870D01*
X494130D02*
Y836600D01*
X519870D01*
Y823400D02*
Y836600D01*
X522400Y810130D02*
Y835870D01*
X535600D01*
Y810130D02*
Y835870D01*
X522400Y810130D02*
X535600D01*
X538400D02*
Y835870D01*
X551600D01*
Y810130D02*
Y835870D01*
X538400Y810130D02*
X551600D01*
X554130Y804150D02*
X579870D01*
X554130D02*
Y817350D01*
X579870D01*
Y804150D02*
Y817350D01*
X502092Y774078D02*
X587558D01*
Y682384D02*
Y774078D01*
X495864Y682384D02*
X587558D01*
X495864D02*
Y767850D01*
X502092Y774078D01*
X385650Y916067D02*
Y941807D01*
X398850D01*
Y916067D02*
Y941807D01*
X385650Y916067D02*
X398850D01*
Y876226D02*
Y901965D01*
X385650Y876226D02*
X398850D01*
X385650D02*
Y901965D01*
X398850D01*
X618400Y932880D02*
X631600D01*
Y958620D01*
X618400D02*
X631600D01*
X618400Y932880D02*
Y958620D01*
X700733Y932880D02*
X713933D01*
Y958620D01*
X700733D02*
X713933D01*
X700733Y932880D02*
Y958620D01*
X783067Y932880D02*
X796267D01*
Y958620D01*
X783067D02*
X796267D01*
X783067Y932880D02*
Y958620D01*
X865400Y932880D02*
X878600D01*
Y958620D01*
X865400D02*
X878600D01*
X865400Y932880D02*
Y958620D01*
X717130Y647400D02*
X742870D01*
X717130D02*
Y660600D01*
X742870D01*
Y647400D02*
Y660600D01*
X688130Y647400D02*
X713870D01*
X688130D02*
Y660600D01*
X713870D01*
Y647400D02*
Y660600D01*
X386675Y725320D02*
X406995D01*
X386675Y671980D02*
Y725320D01*
Y671980D02*
X412075D01*
Y720240D01*
X406995Y725320D02*
X412075Y720240D01*
X554130Y823400D02*
Y836600D01*
Y823400D02*
X579870D01*
Y836600D01*
X554130D02*
X579870D01*
X942130Y272150D02*
Y285350D01*
Y272150D02*
X967870D01*
Y285350D01*
X942130D02*
X967870D01*
X924870Y303400D02*
Y316600D01*
X899130D02*
X924870D01*
X899130Y303400D02*
Y316600D01*
Y303400D02*
X924870D01*
X57190Y733660D02*
Y736707D01*
Y735183D01*
X66331D01*
X64808Y733660D01*
X118150Y738484D02*
Y732390D01*
X124244Y738484D01*
X125767D01*
X127291Y736961D01*
Y733913D01*
X125767Y732390D01*
X131141Y822244D02*
X129618Y819197D01*
X126571Y816150D01*
X123524D01*
X122000Y817673D01*
Y820721D01*
X123524Y822244D01*
X125047D01*
X126571Y820721D01*
Y816150D01*
X60641Y825244D02*
Y819150D01*
X56070D01*
X57594Y822197D01*
Y823720D01*
X56070Y825244D01*
X53024D01*
X51500Y823720D01*
Y820674D01*
X53024Y819150D01*
X382500Y285250D02*
X390117D01*
Y289059D01*
X388848Y290328D01*
X386309D01*
X385039Y289059D01*
Y285250D01*
Y287789D02*
X382500Y290328D01*
X388848Y292868D02*
X390117Y294137D01*
Y296676D01*
X388848Y297946D01*
X387578D01*
X386309Y296676D01*
X385039Y297946D01*
X383770D01*
X382500Y296676D01*
Y294137D01*
X383770Y292868D01*
X385039D01*
X386309Y294137D01*
X387578Y292868D01*
X388848D01*
X386309Y294137D02*
Y296676D01*
X390117Y305563D02*
X388848Y303024D01*
X386309Y300485D01*
X383770D01*
X382500Y301755D01*
Y304294D01*
X383770Y305563D01*
X385039D01*
X386309Y304294D01*
Y300485D01*
X383750Y495000D02*
X391367D01*
Y498809D01*
X390098Y500078D01*
X387559D01*
X386289Y498809D01*
Y495000D01*
Y497539D02*
X383750Y500078D01*
X390098Y502617D02*
X391367Y503887D01*
Y506426D01*
X390098Y507696D01*
X388828D01*
X387559Y506426D01*
X386289Y507696D01*
X385020D01*
X383750Y506426D01*
Y503887D01*
X385020Y502617D01*
X386289D01*
X387559Y503887D01*
X388828Y502617D01*
X390098D01*
X387559Y503887D02*
Y506426D01*
X391367Y515313D02*
Y510235D01*
X387559D01*
X388828Y512774D01*
Y514044D01*
X387559Y515313D01*
X385020D01*
X383750Y514044D01*
Y511505D01*
X385020Y510235D01*
X644750Y230000D02*
Y237617D01*
X640941D01*
X639672Y236348D01*
Y233809D01*
X640941Y232539D01*
X644750D01*
X642211D02*
X639672Y230000D01*
X637132Y236348D02*
X635863Y237617D01*
X633324D01*
X632054Y236348D01*
Y235078D01*
X633324Y233809D01*
X632054Y232539D01*
Y231270D01*
X633324Y230000D01*
X635863D01*
X637132Y231270D01*
Y232539D01*
X635863Y233809D01*
X637132Y235078D01*
Y236348D01*
X635863Y233809D02*
X633324D01*
X625706Y230000D02*
Y237617D01*
X629515Y233809D01*
X624437D01*
X536000Y430750D02*
X543618D01*
Y434559D01*
X542348Y435828D01*
X539809D01*
X538539Y434559D01*
Y430750D01*
Y433289D02*
X536000Y435828D01*
X542348Y438368D02*
X543618Y439637D01*
Y442176D01*
X542348Y443446D01*
X541078D01*
X539809Y442176D01*
X538539Y443446D01*
X537270D01*
X536000Y442176D01*
Y439637D01*
X537270Y438368D01*
X538539D01*
X539809Y439637D01*
X541078Y438368D01*
X542348D01*
X539809Y439637D02*
Y442176D01*
X542348Y445985D02*
X543618Y447255D01*
Y449794D01*
X542348Y451063D01*
X541078D01*
X539809Y449794D01*
Y448524D01*
Y449794D01*
X538539Y451063D01*
X537270D01*
X536000Y449794D01*
Y447255D01*
X537270Y445985D01*
X460250Y265750D02*
Y273368D01*
X456441D01*
X455172Y272098D01*
Y269559D01*
X456441Y268289D01*
X460250D01*
X457711D02*
X455172Y265750D01*
X452632Y273368D02*
X447554D01*
Y272098D01*
X452632Y267020D01*
Y265750D01*
X441206D02*
Y273368D01*
X445015Y269559D01*
X439937D01*
X465000Y476750D02*
Y484367D01*
X461191D01*
X459922Y483098D01*
Y480559D01*
X461191Y479289D01*
X465000D01*
X462461D02*
X459922Y476750D01*
X457383Y484367D02*
X452304D01*
Y483098D01*
X457383Y478020D01*
Y476750D01*
X449765Y483098D02*
X448495Y484367D01*
X445956D01*
X444687Y483098D01*
Y481828D01*
X445956Y480559D01*
X447226D01*
X445956D01*
X444687Y479289D01*
Y478020D01*
X445956Y476750D01*
X448495D01*
X449765Y478020D01*
X580000Y171000D02*
X587617D01*
Y174809D01*
X586348Y176078D01*
X583809D01*
X582539Y174809D01*
Y171000D01*
Y173539D02*
X580000Y176078D01*
X587617Y178617D02*
Y183696D01*
X586348D01*
X581270Y178617D01*
X580000D01*
Y191313D02*
Y186235D01*
X585078Y191313D01*
X586348D01*
X587617Y190044D01*
Y187505D01*
X586348Y186235D01*
X562750Y412500D02*
Y420117D01*
X558941D01*
X557672Y418848D01*
Y416309D01*
X558941Y415039D01*
X562750D01*
X560211D02*
X557672Y412500D01*
X555132Y420117D02*
X550054D01*
Y418848D01*
X555132Y413770D01*
Y412500D01*
X547515D02*
X544976D01*
X546245D01*
Y420117D01*
X547515Y418848D01*
X461250Y250250D02*
Y257868D01*
X457441D01*
X456172Y256598D01*
Y254059D01*
X457441Y252789D01*
X461250D01*
X458711D02*
X456172Y250250D01*
X453633Y257868D02*
X448554D01*
Y256598D01*
X453633Y251520D01*
Y250250D01*
X446015Y256598D02*
X444745Y257868D01*
X442206D01*
X440937Y256598D01*
Y251520D01*
X442206Y250250D01*
X444745D01*
X446015Y251520D01*
Y256598D01*
X465000Y462000D02*
Y469618D01*
X461191D01*
X459922Y468348D01*
Y465809D01*
X461191Y464539D01*
X465000D01*
X462461D02*
X459922Y462000D01*
X452304Y469618D02*
X454843Y468348D01*
X457383Y465809D01*
Y463270D01*
X456113Y462000D01*
X453574D01*
X452304Y463270D01*
Y464539D01*
X453574Y465809D01*
X457383D01*
X449765Y463270D02*
X448495Y462000D01*
X445956D01*
X444687Y463270D01*
Y468348D01*
X445956Y469618D01*
X448495D01*
X449765Y468348D01*
Y467078D01*
X448495Y465809D01*
X444687D01*
X564500Y171250D02*
X572118D01*
Y175059D01*
X570848Y176328D01*
X568309D01*
X567039Y175059D01*
Y171250D01*
Y173789D02*
X564500Y176328D01*
X572118Y183946D02*
X570848Y181407D01*
X568309Y178867D01*
X565770D01*
X564500Y180137D01*
Y182676D01*
X565770Y183946D01*
X567039D01*
X568309Y182676D01*
Y178867D01*
X570848Y186485D02*
X572118Y187755D01*
Y190294D01*
X570848Y191563D01*
X569578D01*
X568309Y190294D01*
X567039Y191563D01*
X565770D01*
X564500Y190294D01*
Y187755D01*
X565770Y186485D01*
X567039D01*
X568309Y187755D01*
X569578Y186485D01*
X570848D01*
X568309Y187755D02*
Y190294D01*
X562250Y397750D02*
Y405368D01*
X558441D01*
X557172Y404098D01*
Y401559D01*
X558441Y400289D01*
X562250D01*
X559711D02*
X557172Y397750D01*
X549554Y405368D02*
X552093Y404098D01*
X554632Y401559D01*
Y399020D01*
X553363Y397750D01*
X550824D01*
X549554Y399020D01*
Y400289D01*
X550824Y401559D01*
X554632D01*
X547015Y405368D02*
X541937D01*
Y404098D01*
X547015Y399020D01*
Y397750D01*
X517500Y556000D02*
X525117D01*
Y559809D01*
X523848Y561078D01*
X521309D01*
X520039Y559809D01*
Y556000D01*
Y558539D02*
X517500Y561078D01*
X525117Y568696D02*
Y563618D01*
X521309D01*
X522578Y566157D01*
Y567426D01*
X521309Y568696D01*
X518770D01*
X517500Y567426D01*
Y564887D01*
X518770Y563618D01*
X523848Y571235D02*
X525117Y572505D01*
Y575044D01*
X523848Y576313D01*
X518770D01*
X517500Y575044D01*
Y572505D01*
X518770Y571235D01*
X523848D01*
X619500Y546000D02*
Y553618D01*
X615691D01*
X614422Y552348D01*
Y549809D01*
X615691Y548539D01*
X619500D01*
X616961D02*
X614422Y546000D01*
X608074D02*
Y553618D01*
X611883Y549809D01*
X606804D01*
X604265Y547270D02*
X602995Y546000D01*
X600456D01*
X599187Y547270D01*
Y552348D01*
X600456Y553618D01*
X602995D01*
X604265Y552348D01*
Y551078D01*
X602995Y549809D01*
X599187D01*
X451000Y552500D02*
X458618D01*
Y556309D01*
X457348Y557578D01*
X454809D01*
X453539Y556309D01*
Y552500D01*
Y555039D02*
X451000Y557578D01*
Y563926D02*
X458618D01*
X454809Y560117D01*
Y565196D01*
X457348Y567735D02*
X458618Y569005D01*
Y571544D01*
X457348Y572813D01*
X456078D01*
X454809Y571544D01*
X453539Y572813D01*
X452270D01*
X451000Y571544D01*
Y569005D01*
X452270Y567735D01*
X453539D01*
X454809Y569005D01*
X456078Y567735D01*
X457348D01*
X454809Y569005D02*
Y571544D01*
X579000Y529250D02*
Y536867D01*
X575191D01*
X573922Y535598D01*
Y533059D01*
X575191Y531789D01*
X579000D01*
X576461D02*
X573922Y529250D01*
X567574D02*
Y536867D01*
X571382Y533059D01*
X566304D01*
X563765Y536867D02*
X558687D01*
Y535598D01*
X563765Y530520D01*
Y529250D01*
X532250Y613250D02*
Y620868D01*
X528441D01*
X527172Y619598D01*
Y617059D01*
X528441Y615789D01*
X532250D01*
X529711D02*
X527172Y613250D01*
X520824D02*
Y620868D01*
X524632Y617059D01*
X519554D01*
X511937Y620868D02*
X514476Y619598D01*
X517015Y617059D01*
Y614520D01*
X515745Y613250D01*
X513206D01*
X511937Y614520D01*
Y615789D01*
X513206Y617059D01*
X517015D01*
X391750Y583500D02*
Y591118D01*
X387941D01*
X386672Y589848D01*
Y587309D01*
X387941Y586039D01*
X391750D01*
X389211D02*
X386672Y583500D01*
X380324D02*
Y591118D01*
X384132Y587309D01*
X379054D01*
X371437Y591118D02*
X376515D01*
Y587309D01*
X373976Y588578D01*
X372706D01*
X371437Y587309D01*
Y584770D01*
X372706Y583500D01*
X375245D01*
X376515Y584770D01*
X543750Y503250D02*
X551367D01*
Y507059D01*
X550098Y508328D01*
X547559D01*
X546289Y507059D01*
Y503250D01*
Y505789D02*
X543750Y508328D01*
Y514676D02*
X551367D01*
X547559Y510868D01*
Y515946D01*
X543750Y522294D02*
X551367D01*
X547559Y518485D01*
Y523563D01*
X532000Y627000D02*
Y634618D01*
X528191D01*
X526922Y633348D01*
Y630809D01*
X528191Y629539D01*
X532000D01*
X529461D02*
X526922Y627000D01*
X520574D02*
Y634618D01*
X524383Y630809D01*
X519304D01*
X516765Y633348D02*
X515495Y634618D01*
X512956D01*
X511687Y633348D01*
Y632078D01*
X512956Y630809D01*
X514226D01*
X512956D01*
X511687Y629539D01*
Y628270D01*
X512956Y627000D01*
X515495D01*
X516765Y628270D01*
X392250Y597500D02*
Y605117D01*
X388441D01*
X387172Y603848D01*
Y601309D01*
X388441Y600039D01*
X392250D01*
X389711D02*
X387172Y597500D01*
X380824D02*
Y605117D01*
X384632Y601309D01*
X379554D01*
X371937Y597500D02*
X377015D01*
X371937Y602578D01*
Y603848D01*
X373206Y605117D01*
X375745D01*
X377015Y603848D01*
X465172Y292270D02*
Y297348D01*
X466441Y298617D01*
X468980D01*
X470250Y297348D01*
Y292270D01*
X468980Y291000D01*
X466441D01*
X467711Y293539D02*
X465172Y291000D01*
X466441D02*
X465172Y292270D01*
X462632Y291000D02*
X460093D01*
X461363D01*
Y298617D01*
X462632Y297348D01*
X451206Y298617D02*
X456284D01*
Y294809D01*
X453745Y296078D01*
X452476D01*
X451206Y294809D01*
Y292270D01*
X452476Y291000D01*
X455015D01*
X456284Y292270D01*
X468922Y504270D02*
Y509348D01*
X470191Y510617D01*
X472730D01*
X474000Y509348D01*
Y504270D01*
X472730Y503000D01*
X470191D01*
X471461Y505539D02*
X468922Y503000D01*
X470191D02*
X468922Y504270D01*
X466382Y503000D02*
X463843D01*
X465113D01*
Y510617D01*
X466382Y509348D01*
X456226Y503000D02*
Y510617D01*
X460034Y506809D01*
X454956D01*
X612672Y175020D02*
Y180098D01*
X613941Y181367D01*
X616480D01*
X617750Y180098D01*
Y175020D01*
X616480Y173750D01*
X613941D01*
X615211Y176289D02*
X612672Y173750D01*
X613941D02*
X612672Y175020D01*
X610132Y173750D02*
X607593D01*
X608863D01*
Y181367D01*
X610132Y180098D01*
X603784D02*
X602515Y181367D01*
X599976D01*
X598706Y180098D01*
Y178828D01*
X599976Y177559D01*
X601245D01*
X599976D01*
X598706Y176289D01*
Y175020D01*
X599976Y173750D01*
X602515D01*
X603784Y175020D01*
X620172Y444520D02*
Y449598D01*
X621441Y450868D01*
X623980D01*
X625250Y449598D01*
Y444520D01*
X623980Y443250D01*
X621441D01*
X622711Y445789D02*
X620172Y443250D01*
X621441D02*
X620172Y444520D01*
X617632Y443250D02*
X615093D01*
X616363D01*
Y450868D01*
X617632Y449598D01*
X606206Y443250D02*
X611284D01*
X606206Y448328D01*
Y449598D01*
X607476Y450868D01*
X610015D01*
X611284Y449598D01*
X622172Y487520D02*
Y492598D01*
X623441Y493867D01*
X625980D01*
X627250Y492598D01*
Y487520D01*
X625980Y486250D01*
X623441D01*
X624711Y488789D02*
X622172Y486250D01*
X623441D02*
X622172Y487520D01*
X619632Y492598D02*
X618363Y493867D01*
X615824D01*
X614554Y492598D01*
Y491328D01*
X615824Y490059D01*
X617093D01*
X615824D01*
X614554Y488789D01*
Y487520D01*
X615824Y486250D01*
X618363D01*
X619632Y487520D01*
X384422Y558520D02*
Y563598D01*
X385691Y564868D01*
X388230D01*
X389500Y563598D01*
Y558520D01*
X388230Y557250D01*
X385691D01*
X386961Y559789D02*
X384422Y557250D01*
X385691D02*
X384422Y558520D01*
X376804Y557250D02*
X381883D01*
X376804Y562328D01*
Y563598D01*
X378074Y564868D01*
X380613D01*
X381883Y563598D01*
X497422Y563270D02*
Y568348D01*
X498691Y569618D01*
X501230D01*
X502500Y568348D01*
Y563270D01*
X501230Y562000D01*
X498691D01*
X499961Y564539D02*
X497422Y562000D01*
X498691D02*
X497422Y563270D01*
X494883Y562000D02*
X492343D01*
X493613D01*
Y569618D01*
X494883Y568348D01*
X599172Y813598D02*
X600441Y814867D01*
X602980D01*
X604250Y813598D01*
Y808520D01*
X602980Y807250D01*
X600441D01*
X599172Y808520D01*
X591554Y814867D02*
X596632D01*
Y811059D01*
X594093Y812328D01*
X592824D01*
X591554Y811059D01*
Y808520D01*
X592824Y807250D01*
X595363D01*
X596632Y808520D01*
X589015Y814867D02*
X583937D01*
Y813598D01*
X589015Y808520D01*
Y807250D01*
X179500Y827250D02*
Y834867D01*
X175691D01*
X174422Y833598D01*
Y831059D01*
X175691Y829789D01*
X179500D01*
X176961D02*
X174422Y827250D01*
X171882D02*
X169343D01*
X170613D01*
Y834867D01*
X171882Y833598D01*
X165534D02*
X164265Y834867D01*
X161726D01*
X160456Y833598D01*
Y828520D01*
X161726Y827250D01*
X164265D01*
X165534Y828520D01*
Y833598D01*
X157917Y828520D02*
X156647Y827250D01*
X154108D01*
X152839Y828520D01*
Y833598D01*
X154108Y834867D01*
X156647D01*
X157917Y833598D01*
Y832328D01*
X156647Y831059D01*
X152839D01*
X156750Y715000D02*
Y722618D01*
X152941D01*
X151672Y721348D01*
Y718809D01*
X152941Y717539D01*
X156750D01*
X154211D02*
X151672Y715000D01*
X149132D02*
X146593D01*
X147863D01*
Y722618D01*
X149132Y721348D01*
X142785Y715000D02*
X140245D01*
X141515D01*
Y722618D01*
X142785Y721348D01*
X131358Y715000D02*
X136437D01*
X131358Y720078D01*
Y721348D01*
X132628Y722618D01*
X135167D01*
X136437Y721348D01*
X240422Y975098D02*
X241691Y976367D01*
X244230D01*
X245500Y975098D01*
Y970020D01*
X244230Y968750D01*
X241691D01*
X240422Y970020D01*
X234074Y976367D02*
X236613D01*
X237882Y975098D01*
Y970020D01*
X236613Y968750D01*
X234074D01*
X232804Y970020D01*
Y975098D01*
X234074Y976367D01*
X230265Y968750D02*
Y976367D01*
X225187Y968750D01*
Y976367D01*
X222647D02*
X217569D01*
Y975098D01*
X222647Y970020D01*
Y968750D01*
X100172Y830498D02*
X101441Y831768D01*
X103980D01*
X105250Y830498D01*
Y825420D01*
X103980Y824150D01*
X101441D01*
X100172Y825420D01*
X93824Y831768D02*
X96363D01*
X97633Y830498D01*
Y825420D01*
X96363Y824150D01*
X93824D01*
X92554Y825420D01*
Y830498D01*
X93824Y831768D01*
X90015Y824150D02*
Y831768D01*
X84937Y824150D01*
Y831768D01*
X82397Y830498D02*
X81128Y831768D01*
X78589D01*
X77319Y830498D01*
Y829228D01*
X78589Y827959D01*
X77319Y826689D01*
Y825420D01*
X78589Y824150D01*
X81128D01*
X82397Y825420D01*
Y826689D01*
X81128Y827959D01*
X82397Y829228D01*
Y830498D01*
X81128Y827959D02*
X78589D01*
X579120Y851532D02*
X574042D01*
Y850262D01*
X579120Y845184D01*
Y843914D01*
X574042D01*
X566424D02*
X571502D01*
X566424Y848992D01*
Y850262D01*
X567694Y851532D01*
X570233D01*
X571502Y850262D01*
X489000Y834118D02*
X483922D01*
Y832848D01*
X489000Y827770D01*
Y826500D01*
X483922D01*
X481382D02*
X478843D01*
X480113D01*
Y834118D01*
X481382Y832848D01*
X471000Y864368D02*
Y863098D01*
X468461Y860559D01*
X465922Y863098D01*
Y864368D01*
X468461Y860559D02*
Y856750D01*
X463382Y864368D02*
X458304D01*
Y863098D01*
X463382Y858020D01*
Y856750D01*
X267732Y900221D02*
Y898952D01*
X265193Y896413D01*
X262654Y898952D01*
Y900221D01*
X265193Y896413D02*
Y892604D01*
X255036Y900221D02*
X257575Y898952D01*
X260114Y896413D01*
Y893874D01*
X258845Y892604D01*
X256306D01*
X255036Y893874D01*
Y895143D01*
X256306Y896413D01*
X260114D01*
X271750Y278617D02*
Y277348D01*
X269211Y274809D01*
X266672Y277348D01*
Y278617D01*
X269211Y274809D02*
Y271000D01*
X259054Y278617D02*
X264132D01*
Y274809D01*
X261593Y276078D01*
X260324D01*
X259054Y274809D01*
Y272270D01*
X260324Y271000D01*
X262863D01*
X264132Y272270D01*
X739140Y391030D02*
Y389760D01*
X736601Y387221D01*
X734062Y389760D01*
Y391030D01*
X736601Y387221D02*
Y383412D01*
X727714D02*
Y391030D01*
X731523Y387221D01*
X726444D01*
X803910Y610993D02*
Y609724D01*
X801371Y607185D01*
X798832Y609724D01*
Y610993D01*
X801371Y607185D02*
Y603376D01*
X796292Y609724D02*
X795023Y610993D01*
X792484D01*
X791214Y609724D01*
Y608454D01*
X792484Y607185D01*
X793753D01*
X792484D01*
X791214Y605915D01*
Y604646D01*
X792484Y603376D01*
X795023D01*
X796292Y604646D01*
X591566Y610993D02*
Y609724D01*
X589027Y607185D01*
X586488Y609724D01*
Y610993D01*
X589027Y607185D02*
Y603376D01*
X578870D02*
X583949D01*
X578870Y608454D01*
Y609724D01*
X580140Y610993D01*
X582679D01*
X583949Y609724D01*
X307000Y541618D02*
Y540348D01*
X304461Y537809D01*
X301922Y540348D01*
Y541618D01*
X304461Y537809D02*
Y534000D01*
X299382D02*
X296843D01*
X298113D01*
Y541618D01*
X299382Y540348D01*
X408000Y667868D02*
Y661520D01*
X406730Y660250D01*
X404191D01*
X402922Y661520D01*
Y667868D01*
X395304Y660250D02*
X400382D01*
X395304Y665328D01*
Y666598D01*
X396574Y667868D01*
X399113D01*
X400382Y666598D01*
X392765D02*
X391495Y667868D01*
X388956D01*
X387687Y666598D01*
Y661520D01*
X388956Y660250D01*
X391495D01*
X392765Y661520D01*
Y666598D01*
X297250Y755368D02*
Y749020D01*
X295980Y747750D01*
X293441D01*
X292172Y749020D01*
Y755368D01*
X289632Y747750D02*
X287093D01*
X288363D01*
Y755368D01*
X289632Y754098D01*
X283284Y749020D02*
X282015Y747750D01*
X279476D01*
X278206Y749020D01*
Y754098D01*
X279476Y755368D01*
X282015D01*
X283284Y754098D01*
Y752828D01*
X282015Y751559D01*
X278206D01*
X612000Y792367D02*
Y786020D01*
X610730Y784750D01*
X608191D01*
X606922Y786020D01*
Y792367D01*
X604383Y784750D02*
X601843D01*
X603113D01*
Y792367D01*
X604383Y791098D01*
X598035D02*
X596765Y792367D01*
X594226D01*
X592956Y791098D01*
Y789828D01*
X594226Y788559D01*
X592956Y787289D01*
Y786020D01*
X594226Y784750D01*
X596765D01*
X598035Y786020D01*
Y787289D01*
X596765Y788559D01*
X598035Y789828D01*
Y791098D01*
X596765Y788559D02*
X594226D01*
X191000Y942368D02*
Y936020D01*
X189730Y934750D01*
X187191D01*
X185922Y936020D01*
Y942368D01*
X183382Y934750D02*
X180843D01*
X182113D01*
Y942368D01*
X183382Y941098D01*
X177034D02*
X175765Y942368D01*
X173226D01*
X171956Y941098D01*
Y939828D01*
X173226Y938559D01*
X174495D01*
X173226D01*
X171956Y937289D01*
Y936020D01*
X173226Y934750D01*
X175765D01*
X177034Y936020D01*
X380000Y381618D02*
Y375270D01*
X378730Y374000D01*
X376191D01*
X374922Y375270D01*
Y381618D01*
X372383Y374000D02*
X369843D01*
X371113D01*
Y381618D01*
X372383Y380348D01*
X360956Y374000D02*
X366035D01*
X360956Y379078D01*
Y380348D01*
X362226Y381618D01*
X364765D01*
X366035Y380348D01*
X638750Y383368D02*
Y377020D01*
X637480Y375750D01*
X634941D01*
X633672Y377020D01*
Y383368D01*
X631133Y375750D02*
X628593D01*
X629863D01*
Y383368D01*
X631133Y382098D01*
X624785Y375750D02*
X622245D01*
X623515D01*
Y383368D01*
X624785Y382098D01*
X185000Y396618D02*
Y390270D01*
X183730Y389000D01*
X181191D01*
X179922Y390270D01*
Y396618D01*
X177383Y395348D02*
X176113Y396618D01*
X173574D01*
X172304Y395348D01*
Y394078D01*
X173574Y392809D01*
X172304Y391539D01*
Y390270D01*
X173574Y389000D01*
X176113D01*
X177383Y390270D01*
Y391539D01*
X176113Y392809D01*
X177383Y394078D01*
Y395348D01*
X176113Y392809D02*
X173574D01*
X853000Y269618D02*
Y263270D01*
X851730Y262000D01*
X849191D01*
X847922Y263270D01*
Y269618D01*
X845383D02*
X840304D01*
Y268348D01*
X845383Y263270D01*
Y262000D01*
X931000Y490617D02*
Y484270D01*
X929730Y483000D01*
X927191D01*
X925922Y484270D01*
Y490617D01*
X923382Y489348D02*
X922113Y490617D01*
X919574D01*
X918304Y489348D01*
Y488078D01*
X919574Y486809D01*
X920843D01*
X919574D01*
X918304Y485539D01*
Y484270D01*
X919574Y483000D01*
X922113D01*
X923382Y484270D01*
X727250Y490117D02*
Y483770D01*
X725980Y482500D01*
X723441D01*
X722172Y483770D01*
Y490117D01*
X714554Y482500D02*
X719632D01*
X714554Y487578D01*
Y488848D01*
X715824Y490117D01*
X718363D01*
X719632Y488848D01*
X182500Y617118D02*
Y610770D01*
X181230Y609500D01*
X178691D01*
X177422Y610770D01*
Y617118D01*
X174883Y609500D02*
X172343D01*
X173613D01*
Y617118D01*
X174883Y615848D01*
X457368Y353000D02*
Y358078D01*
Y355539D01*
X449750D01*
X457368Y360617D02*
Y365696D01*
X456098D01*
X451020Y360617D01*
X449750D01*
Y365696D01*
X456098Y368235D02*
X457368Y369505D01*
Y372044D01*
X456098Y373313D01*
X454828D01*
X453559Y372044D01*
Y370774D01*
Y372044D01*
X452289Y373313D01*
X451020D01*
X449750Y372044D01*
Y369505D01*
X451020Y368235D01*
X614750Y137867D02*
X609672D01*
X612211D01*
Y130250D01*
X607132Y137867D02*
X602054D01*
Y136598D01*
X607132Y131520D01*
Y130250D01*
X602054D01*
X594437D02*
X599515D01*
X594437Y135328D01*
Y136598D01*
X595706Y137867D01*
X598245D01*
X599515Y136598D01*
X409250Y138868D02*
X404172D01*
X406711D01*
Y131250D01*
X401632Y138868D02*
X396554D01*
Y137598D01*
X401632Y132520D01*
Y131250D01*
X396554D01*
X394015D02*
X391476D01*
X392745D01*
Y138868D01*
X394015Y137598D01*
X272500Y807000D02*
X280117D01*
Y810809D01*
X278848Y812078D01*
X276309D01*
X275039Y810809D01*
Y807000D01*
Y809539D02*
X272500Y812078D01*
Y814617D02*
Y817157D01*
Y815887D01*
X280117D01*
X278848Y814617D01*
Y820965D02*
X280117Y822235D01*
Y824774D01*
X278848Y826044D01*
X277578D01*
X276309Y824774D01*
Y823505D01*
Y824774D01*
X275039Y826044D01*
X273770D01*
X272500Y824774D01*
Y822235D01*
X273770Y820965D01*
X280117Y833661D02*
X278848Y831122D01*
X276309Y828583D01*
X273770D01*
X272500Y829853D01*
Y832392D01*
X273770Y833661D01*
X275039D01*
X276309Y832392D01*
Y828583D01*
X468500Y417250D02*
Y424868D01*
X464691D01*
X463422Y423598D01*
Y421059D01*
X464691Y419789D01*
X468500D01*
X465961D02*
X463422Y417250D01*
X460882D02*
X458343D01*
X459613D01*
Y424868D01*
X460882Y423598D01*
X454534D02*
X453265Y424868D01*
X450726D01*
X449456Y423598D01*
Y422328D01*
X450726Y421059D01*
X451995D01*
X450726D01*
X449456Y419789D01*
Y418520D01*
X450726Y417250D01*
X453265D01*
X454534Y418520D01*
X441839Y424868D02*
X446917D01*
Y421059D01*
X444378Y422328D01*
X443108D01*
X441839Y421059D01*
Y418520D01*
X443108Y417250D01*
X445647D01*
X446917Y418520D01*
X468000Y402500D02*
Y410117D01*
X464191D01*
X462922Y408848D01*
Y406309D01*
X464191Y405039D01*
X468000D01*
X465461D02*
X462922Y402500D01*
X460382D02*
X457843D01*
X459113D01*
Y410117D01*
X460382Y408848D01*
X454035D02*
X452765Y410117D01*
X450226D01*
X448956Y408848D01*
Y407578D01*
X450226Y406309D01*
X451495D01*
X450226D01*
X448956Y405039D01*
Y403770D01*
X450226Y402500D01*
X452765D01*
X454035Y403770D01*
X442608Y402500D02*
Y410117D01*
X446417Y406309D01*
X441339D01*
X288750Y806500D02*
X296367D01*
Y810309D01*
X295098Y811578D01*
X292559D01*
X291289Y810309D01*
Y806500D01*
Y809039D02*
X288750Y811578D01*
Y814118D02*
Y816657D01*
Y815387D01*
X296367D01*
X295098Y814118D01*
Y820465D02*
X296367Y821735D01*
Y824274D01*
X295098Y825544D01*
X293828D01*
X292559Y824274D01*
Y823005D01*
Y824274D01*
X291289Y825544D01*
X290020D01*
X288750Y824274D01*
Y821735D01*
X290020Y820465D01*
X295098Y828083D02*
X296367Y829353D01*
Y831892D01*
X295098Y833161D01*
X293828D01*
X292559Y831892D01*
Y830622D01*
Y831892D01*
X291289Y833161D01*
X290020D01*
X288750Y831892D01*
Y829353D01*
X290020Y828083D01*
X558250Y250000D02*
Y257617D01*
X554441D01*
X553172Y256348D01*
Y253809D01*
X554441Y252539D01*
X558250D01*
X555711D02*
X553172Y250000D01*
X550633D02*
X548093D01*
X549363D01*
Y257617D01*
X550633Y256348D01*
X539206Y250000D02*
X544285D01*
X539206Y255078D01*
Y256348D01*
X540476Y257617D01*
X543015D01*
X544285Y256348D01*
X536667Y251270D02*
X535397Y250000D01*
X532858D01*
X531589Y251270D01*
Y256348D01*
X532858Y257617D01*
X535397D01*
X536667Y256348D01*
Y255078D01*
X535397Y253809D01*
X531589D01*
X558250Y267500D02*
Y275117D01*
X554441D01*
X553172Y273848D01*
Y271309D01*
X554441Y270039D01*
X558250D01*
X555711D02*
X553172Y267500D01*
X550633D02*
X548093D01*
X549363D01*
Y275117D01*
X550633Y273848D01*
X539206Y267500D02*
X544285D01*
X539206Y272578D01*
Y273848D01*
X540476Y275117D01*
X543015D01*
X544285Y273848D01*
X536667D02*
X535397Y275117D01*
X532858D01*
X531589Y273848D01*
Y272578D01*
X532858Y271309D01*
X531589Y270039D01*
Y268770D01*
X532858Y267500D01*
X535397D01*
X536667Y268770D01*
Y270039D01*
X535397Y271309D01*
X536667Y272578D01*
Y273848D01*
X535397Y271309D02*
X532858D01*
X558750Y470750D02*
Y478368D01*
X554941D01*
X553672Y477098D01*
Y474559D01*
X554941Y473289D01*
X558750D01*
X556211D02*
X553672Y470750D01*
X551133D02*
X548593D01*
X549863D01*
Y478368D01*
X551133Y477098D01*
X539706Y470750D02*
X544785D01*
X539706Y475828D01*
Y477098D01*
X540976Y478368D01*
X543515D01*
X544785Y477098D01*
X532089Y478368D02*
X537167D01*
Y474559D01*
X534628Y475828D01*
X533358D01*
X532089Y474559D01*
Y472020D01*
X533358Y470750D01*
X535897D01*
X537167Y472020D01*
X559250Y486750D02*
Y494367D01*
X555441D01*
X554172Y493098D01*
Y490559D01*
X555441Y489289D01*
X559250D01*
X556711D02*
X554172Y486750D01*
X551632D02*
X549093D01*
X550363D01*
Y494367D01*
X551632Y493098D01*
X540206Y486750D02*
X545285D01*
X540206Y491828D01*
Y493098D01*
X541476Y494367D01*
X544015D01*
X545285Y493098D01*
X533858Y486750D02*
Y494367D01*
X537667Y490559D01*
X532589D01*
X494500Y903000D02*
Y910618D01*
X490691D01*
X489422Y909348D01*
Y906809D01*
X490691Y905539D01*
X494500D01*
X491961D02*
X489422Y903000D01*
X486883D02*
X484343D01*
X485613D01*
Y910618D01*
X486883Y909348D01*
X475456Y903000D02*
X480535D01*
X475456Y908078D01*
Y909348D01*
X476726Y910618D01*
X479265D01*
X480535Y909348D01*
X472917D02*
X471647Y910618D01*
X469108D01*
X467839Y909348D01*
Y908078D01*
X469108Y906809D01*
X470378D01*
X469108D01*
X467839Y905539D01*
Y904270D01*
X469108Y903000D01*
X471647D01*
X472917Y904270D01*
X468000Y621750D02*
Y629367D01*
X464191D01*
X462922Y628098D01*
Y625559D01*
X464191Y624289D01*
X468000D01*
X465461D02*
X462922Y621750D01*
X460382D02*
X457843D01*
X459113D01*
Y629367D01*
X460382Y628098D01*
X448956Y621750D02*
X454035D01*
X448956Y626828D01*
Y628098D01*
X450226Y629367D01*
X452765D01*
X454035Y628098D01*
X441339Y621750D02*
X446417D01*
X441339Y626828D01*
Y628098D01*
X442608Y629367D01*
X445147D01*
X446417Y628098D01*
X466250Y637750D02*
Y645368D01*
X462441D01*
X461172Y644098D01*
Y641559D01*
X462441Y640289D01*
X466250D01*
X463711D02*
X461172Y637750D01*
X458633D02*
X456093D01*
X457363D01*
Y645368D01*
X458633Y644098D01*
X447206Y637750D02*
X452285D01*
X447206Y642828D01*
Y644098D01*
X448476Y645368D01*
X451015D01*
X452285Y644098D01*
X444667Y637750D02*
X442128D01*
X443397D01*
Y645368D01*
X444667Y644098D01*
X542000Y840500D02*
X549618D01*
Y844309D01*
X548348Y845578D01*
X545809D01*
X544539Y844309D01*
Y840500D01*
Y843039D02*
X542000Y845578D01*
Y848118D02*
Y850657D01*
Y849387D01*
X549618D01*
X548348Y848118D01*
X542000Y859544D02*
Y854465D01*
X547078Y859544D01*
X548348D01*
X549618Y858274D01*
Y855735D01*
X548348Y854465D01*
Y862083D02*
X549618Y863353D01*
Y865892D01*
X548348Y867161D01*
X543270D01*
X542000Y865892D01*
Y863353D01*
X543270Y862083D01*
X548348D01*
X525750Y840500D02*
X533368D01*
Y844309D01*
X532098Y845578D01*
X529559D01*
X528289Y844309D01*
Y840500D01*
Y843039D02*
X525750Y845578D01*
Y848118D02*
Y850657D01*
Y849387D01*
X533368D01*
X532098Y848118D01*
X525750Y854465D02*
Y857005D01*
Y855735D01*
X533368D01*
X532098Y854465D01*
X527020Y860813D02*
X525750Y862083D01*
Y864622D01*
X527020Y865892D01*
X532098D01*
X533368Y864622D01*
Y862083D01*
X532098Y860813D01*
X530828D01*
X529559Y862083D01*
Y865892D01*
X175000Y744250D02*
Y751868D01*
X171191D01*
X169922Y750598D01*
Y748059D01*
X171191Y746789D01*
X175000D01*
X172461D02*
X169922Y744250D01*
X167383D02*
X164843D01*
X166113D01*
Y751868D01*
X167383Y750598D01*
X161035Y744250D02*
X158495D01*
X159765D01*
Y751868D01*
X161035Y750598D01*
X150878Y744250D02*
Y751868D01*
X154687Y748059D01*
X149608D01*
X84500Y953500D02*
X92118D01*
Y957309D01*
X90848Y958578D01*
X88309D01*
X87039Y957309D01*
Y953500D01*
Y956039D02*
X84500Y958578D01*
Y961118D02*
Y963657D01*
Y962387D01*
X92118D01*
X90848Y961118D01*
X84500Y967466D02*
Y970005D01*
Y968735D01*
X92118D01*
X90848Y967466D01*
Y973813D02*
X92118Y975083D01*
Y977622D01*
X90848Y978892D01*
X89578D01*
X88309Y977622D01*
Y976353D01*
Y977622D01*
X87039Y978892D01*
X85770D01*
X84500Y977622D01*
Y975083D01*
X85770Y973813D01*
X200500Y846250D02*
Y853868D01*
X196691D01*
X195422Y852598D01*
Y850059D01*
X196691Y848789D01*
X200500D01*
X197961D02*
X195422Y846250D01*
X192882D02*
X190343D01*
X191613D01*
Y853868D01*
X192882Y852598D01*
X186535Y846250D02*
X183995D01*
X185265D01*
Y853868D01*
X186535Y852598D01*
X180187Y846250D02*
X177647D01*
X178917D01*
Y853868D01*
X180187Y852598D01*
X196500Y802000D02*
X204118D01*
Y805809D01*
X202848Y807078D01*
X200309D01*
X199039Y805809D01*
Y802000D01*
Y804539D02*
X196500Y807078D01*
Y809618D02*
Y812157D01*
Y810887D01*
X204118D01*
X202848Y809618D01*
X196500Y815965D02*
Y818505D01*
Y817235D01*
X204118D01*
X202848Y815965D01*
Y822313D02*
X204118Y823583D01*
Y826122D01*
X202848Y827392D01*
X197770D01*
X196500Y826122D01*
Y823583D01*
X197770Y822313D01*
X202848D01*
X226500Y773500D02*
X234118D01*
Y777309D01*
X232848Y778578D01*
X230309D01*
X229039Y777309D01*
Y773500D01*
Y776039D02*
X226500Y778578D01*
Y781117D02*
Y783657D01*
Y782387D01*
X234118D01*
X232848Y781117D01*
Y787466D02*
X234118Y788735D01*
Y791274D01*
X232848Y792544D01*
X227770D01*
X226500Y791274D01*
Y788735D01*
X227770Y787466D01*
X232848D01*
Y795083D02*
X234118Y796353D01*
Y798892D01*
X232848Y800161D01*
X231578D01*
X230309Y798892D01*
X229039Y800161D01*
X227770D01*
X226500Y798892D01*
Y796353D01*
X227770Y795083D01*
X229039D01*
X230309Y796353D01*
X231578Y795083D01*
X232848D01*
X230309Y796353D02*
Y798892D01*
X403250Y917000D02*
X410868D01*
Y920809D01*
X409598Y922078D01*
X407059D01*
X405789Y920809D01*
Y917000D01*
Y919539D02*
X403250Y922078D01*
Y924617D02*
Y927157D01*
Y925887D01*
X410868D01*
X409598Y924617D01*
Y930965D02*
X410868Y932235D01*
Y934774D01*
X409598Y936044D01*
X404520D01*
X403250Y934774D01*
Y932235D01*
X404520Y930965D01*
X409598D01*
X410868Y938583D02*
Y943661D01*
X409598D01*
X404520Y938583D01*
X403250D01*
X402750Y877500D02*
X410368D01*
Y881309D01*
X409098Y882578D01*
X406559D01*
X405289Y881309D01*
Y877500D01*
Y880039D02*
X402750Y882578D01*
Y885117D02*
Y887657D01*
Y886387D01*
X410368D01*
X409098Y885117D01*
Y891466D02*
X410368Y892735D01*
Y895274D01*
X409098Y896544D01*
X404020D01*
X402750Y895274D01*
Y892735D01*
X404020Y891466D01*
X409098D01*
X410368Y904161D02*
X409098Y901622D01*
X406559Y899083D01*
X404020D01*
X402750Y900353D01*
Y902892D01*
X404020Y904161D01*
X405289D01*
X406559Y902892D01*
Y899083D01*
X219250Y852750D02*
X211632D01*
Y848941D01*
X212902Y847672D01*
X215441D01*
X216711Y848941D01*
Y852750D01*
Y850211D02*
X219250Y847672D01*
Y845133D02*
Y842593D01*
Y843863D01*
X211632D01*
X212902Y845133D01*
Y838784D02*
X211632Y837515D01*
Y834976D01*
X212902Y833706D01*
X217980D01*
X219250Y834976D01*
Y837515D01*
X217980Y838784D01*
X212902D01*
X211632Y826089D02*
Y831167D01*
X215441D01*
X214172Y828628D01*
Y827358D01*
X215441Y826089D01*
X217980D01*
X219250Y827358D01*
Y829897D01*
X217980Y831167D01*
X297500Y355000D02*
Y362617D01*
X293691D01*
X292422Y361348D01*
Y358809D01*
X293691Y357539D01*
X297500D01*
X294961D02*
X292422Y355000D01*
X289883D02*
X287343D01*
X288613D01*
Y362617D01*
X289883Y361348D01*
X283535D02*
X282265Y362617D01*
X279726D01*
X278456Y361348D01*
Y356270D01*
X279726Y355000D01*
X282265D01*
X283535Y356270D01*
Y361348D01*
X272108Y355000D02*
Y362617D01*
X275917Y358809D01*
X270839D01*
X363000Y303750D02*
Y311367D01*
X359191D01*
X357922Y310098D01*
Y307559D01*
X359191Y306289D01*
X363000D01*
X360461D02*
X357922Y303750D01*
X355382D02*
X352843D01*
X354113D01*
Y311367D01*
X355382Y310098D01*
X349035D02*
X347765Y311367D01*
X345226D01*
X343956Y310098D01*
Y305020D01*
X345226Y303750D01*
X347765D01*
X349035Y305020D01*
Y310098D01*
X341417D02*
X340147Y311367D01*
X337608D01*
X336339Y310098D01*
Y308828D01*
X337608Y307559D01*
X338878D01*
X337608D01*
X336339Y306289D01*
Y305020D01*
X337608Y303750D01*
X340147D01*
X341417Y305020D01*
X299000Y337250D02*
Y344868D01*
X295191D01*
X293922Y343598D01*
Y341059D01*
X295191Y339789D01*
X299000D01*
X296461D02*
X293922Y337250D01*
X291383D02*
X288843D01*
X290113D01*
Y344868D01*
X291383Y343598D01*
X285035D02*
X283765Y344868D01*
X281226D01*
X279956Y343598D01*
Y338520D01*
X281226Y337250D01*
X283765D01*
X285035Y338520D01*
Y343598D01*
X272339Y337250D02*
X277417D01*
X272339Y342328D01*
Y343598D01*
X273608Y344868D01*
X276147D01*
X277417Y343598D01*
X339000Y289000D02*
Y296618D01*
X335191D01*
X333922Y295348D01*
Y292809D01*
X335191Y291539D01*
X339000D01*
X336461D02*
X333922Y289000D01*
X331382D02*
X328843D01*
X330113D01*
Y296618D01*
X331382Y295348D01*
X325034D02*
X323765Y296618D01*
X321226D01*
X319956Y295348D01*
Y290270D01*
X321226Y289000D01*
X323765D01*
X325034Y290270D01*
Y295348D01*
X317417Y289000D02*
X314878D01*
X316147D01*
Y296618D01*
X317417Y295348D01*
X733750Y271000D02*
Y278617D01*
X729941D01*
X728672Y277348D01*
Y274809D01*
X729941Y273539D01*
X733750D01*
X731211D02*
X728672Y271000D01*
X726133D02*
X723593D01*
X724863D01*
Y278617D01*
X726133Y277348D01*
X719784D02*
X718515Y278617D01*
X715976D01*
X714706Y277348D01*
Y272270D01*
X715976Y271000D01*
X718515D01*
X719784Y272270D01*
Y277348D01*
X712167D02*
X710897Y278617D01*
X708358D01*
X707089Y277348D01*
Y272270D01*
X708358Y271000D01*
X710897D01*
X712167Y272270D01*
Y277348D01*
X567750Y320750D02*
X575368D01*
Y324559D01*
X574098Y325828D01*
X571559D01*
X570289Y324559D01*
Y320750D01*
Y323289D02*
X567750Y325828D01*
X569020Y328368D02*
X567750Y329637D01*
Y332176D01*
X569020Y333446D01*
X574098D01*
X575368Y332176D01*
Y329637D01*
X574098Y328368D01*
X572828D01*
X571559Y329637D01*
Y333446D01*
X569020Y335985D02*
X567750Y337255D01*
Y339794D01*
X569020Y341063D01*
X574098D01*
X575368Y339794D01*
Y337255D01*
X574098Y335985D01*
X572828D01*
X571559Y337255D01*
Y341063D01*
X727402Y295000D02*
Y302617D01*
X723593D01*
X722324Y301348D01*
Y298809D01*
X723593Y297539D01*
X727402D01*
X724863D02*
X722324Y295000D01*
X719784Y296270D02*
X718515Y295000D01*
X715976D01*
X714706Y296270D01*
Y301348D01*
X715976Y302617D01*
X718515D01*
X719784Y301348D01*
Y300078D01*
X718515Y298809D01*
X714706D01*
X712167Y301348D02*
X710897Y302617D01*
X708358D01*
X707089Y301348D01*
Y300078D01*
X708358Y298809D01*
X707089Y297539D01*
Y296270D01*
X708358Y295000D01*
X710897D01*
X712167Y296270D01*
Y297539D01*
X710897Y298809D01*
X712167Y300078D01*
Y301348D01*
X710897Y298809D02*
X708358D01*
X727402Y283000D02*
Y290618D01*
X723593D01*
X722324Y289348D01*
Y286809D01*
X723593Y285539D01*
X727402D01*
X724863D02*
X722324Y283000D01*
X719784Y284270D02*
X718515Y283000D01*
X715976D01*
X714706Y284270D01*
Y289348D01*
X715976Y290618D01*
X718515D01*
X719784Y289348D01*
Y288078D01*
X718515Y286809D01*
X714706D01*
X712167Y290618D02*
X707089D01*
Y289348D01*
X712167Y284270D01*
Y283000D01*
X727402Y307000D02*
Y314618D01*
X723593D01*
X722324Y313348D01*
Y310809D01*
X723593Y309539D01*
X727402D01*
X724863D02*
X722324Y307000D01*
X719784Y308270D02*
X718515Y307000D01*
X715976D01*
X714706Y308270D01*
Y313348D01*
X715976Y314618D01*
X718515D01*
X719784Y313348D01*
Y312078D01*
X718515Y310809D01*
X714706D01*
X707089Y314618D02*
X709628Y313348D01*
X712167Y310809D01*
Y308270D01*
X710897Y307000D01*
X708358D01*
X707089Y308270D01*
Y309539D01*
X708358Y310809D01*
X712167D01*
X765000Y93750D02*
X772618D01*
Y97559D01*
X771348Y98828D01*
X768809D01*
X767539Y97559D01*
Y93750D01*
Y96289D02*
X765000Y98828D01*
X766270Y101368D02*
X765000Y102637D01*
Y105176D01*
X766270Y106446D01*
X771348D01*
X772618Y105176D01*
Y102637D01*
X771348Y101368D01*
X770078D01*
X768809Y102637D01*
Y106446D01*
X772618Y114063D02*
Y108985D01*
X768809D01*
X770078Y111524D01*
Y112794D01*
X768809Y114063D01*
X766270D01*
X765000Y112794D01*
Y110255D01*
X766270Y108985D01*
X927250Y227000D02*
Y234618D01*
X923441D01*
X922172Y233348D01*
Y230809D01*
X923441Y229539D01*
X927250D01*
X924711D02*
X922172Y227000D01*
X919632Y228270D02*
X918363Y227000D01*
X915824D01*
X914554Y228270D01*
Y233348D01*
X915824Y234618D01*
X918363D01*
X919632Y233348D01*
Y232078D01*
X918363Y230809D01*
X914554D01*
X908206Y227000D02*
Y234618D01*
X912015Y230809D01*
X906937D01*
X762500Y154750D02*
X770117D01*
Y158559D01*
X768848Y159828D01*
X766309D01*
X765039Y158559D01*
Y154750D01*
Y157289D02*
X762500Y159828D01*
X763770Y162368D02*
X762500Y163637D01*
Y166176D01*
X763770Y167446D01*
X768848D01*
X770117Y166176D01*
Y163637D01*
X768848Y162368D01*
X767578D01*
X766309Y163637D01*
Y167446D01*
X768848Y169985D02*
X770117Y171255D01*
Y173794D01*
X768848Y175063D01*
X767578D01*
X766309Y173794D01*
Y172524D01*
Y173794D01*
X765039Y175063D01*
X763770D01*
X762500Y173794D01*
Y171255D01*
X763770Y169985D01*
X713232Y667892D02*
Y675509D01*
X709423D01*
X708154Y674240D01*
Y671701D01*
X709423Y670431D01*
X713232D01*
X710693D02*
X708154Y667892D01*
X705614Y669162D02*
X704345Y667892D01*
X701806D01*
X700536Y669162D01*
Y674240D01*
X701806Y675509D01*
X704345D01*
X705614Y674240D01*
Y672970D01*
X704345Y671701D01*
X700536D01*
X692919Y667892D02*
X697997D01*
X692919Y672970D01*
Y674240D01*
X694188Y675509D01*
X696727D01*
X697997Y674240D01*
X987000Y172000D02*
Y179618D01*
X983191D01*
X981922Y178348D01*
Y175809D01*
X983191Y174539D01*
X987000D01*
X984461D02*
X981922Y172000D01*
X979382Y173270D02*
X978113Y172000D01*
X975574D01*
X974304Y173270D01*
Y178348D01*
X975574Y179618D01*
X978113D01*
X979382Y178348D01*
Y177078D01*
X978113Y175809D01*
X974304D01*
X971765Y172000D02*
X969226D01*
X970495D01*
Y179618D01*
X971765Y178348D01*
X282500Y122250D02*
Y129867D01*
X278691D01*
X277422Y128598D01*
Y126059D01*
X278691Y124789D01*
X282500D01*
X279961D02*
X277422Y122250D01*
X274883Y128598D02*
X273613Y129867D01*
X271074D01*
X269804Y128598D01*
Y127328D01*
X271074Y126059D01*
X269804Y124789D01*
Y123520D01*
X271074Y122250D01*
X273613D01*
X274883Y123520D01*
Y124789D01*
X273613Y126059D01*
X274883Y127328D01*
Y128598D01*
X273613Y126059D02*
X271074D01*
X262187Y122250D02*
X267265D01*
X262187Y127328D01*
Y128598D01*
X263456Y129867D01*
X265995D01*
X267265Y128598D01*
X206750Y121250D02*
Y128868D01*
X202941D01*
X201672Y127598D01*
Y125059D01*
X202941Y123789D01*
X206750D01*
X204211D02*
X201672Y121250D01*
X199132Y127598D02*
X197863Y128868D01*
X195324D01*
X194054Y127598D01*
Y126328D01*
X195324Y125059D01*
X194054Y123789D01*
Y122520D01*
X195324Y121250D01*
X197863D01*
X199132Y122520D01*
Y123789D01*
X197863Y125059D01*
X199132Y126328D01*
Y127598D01*
X197863Y125059D02*
X195324D01*
X191515Y121250D02*
X188976D01*
X190245D01*
Y128868D01*
X191515Y127598D01*
X137000Y120000D02*
Y127618D01*
X133191D01*
X131922Y126348D01*
Y123809D01*
X133191Y122539D01*
X137000D01*
X134461D02*
X131922Y120000D01*
X129382Y126348D02*
X128113Y127618D01*
X125574D01*
X124304Y126348D01*
Y125078D01*
X125574Y123809D01*
X124304Y122539D01*
Y121270D01*
X125574Y120000D01*
X128113D01*
X129382Y121270D01*
Y122539D01*
X128113Y123809D01*
X129382Y125078D01*
Y126348D01*
X128113Y123809D02*
X125574D01*
X121765Y126348D02*
X120495Y127618D01*
X117956D01*
X116687Y126348D01*
Y121270D01*
X117956Y120000D01*
X120495D01*
X121765Y121270D01*
Y126348D01*
X61750Y120250D02*
Y127867D01*
X57941D01*
X56672Y126598D01*
Y124059D01*
X57941Y122789D01*
X61750D01*
X59211D02*
X56672Y120250D01*
X54132Y127867D02*
X49054D01*
Y126598D01*
X54132Y121520D01*
Y120250D01*
X46515Y121520D02*
X45245Y120250D01*
X42706D01*
X41437Y121520D01*
Y126598D01*
X42706Y127867D01*
X45245D01*
X46515Y126598D01*
Y125328D01*
X45245Y124059D01*
X41437D01*
X268500Y211750D02*
X276117D01*
Y215559D01*
X274848Y216828D01*
X272309D01*
X271039Y215559D01*
Y211750D01*
Y214289D02*
X268500Y216828D01*
X276117Y219368D02*
Y224446D01*
X274848D01*
X269770Y219368D01*
X268500D01*
X274848Y226985D02*
X276117Y228255D01*
Y230794D01*
X274848Y232063D01*
X273578D01*
X272309Y230794D01*
X271039Y232063D01*
X269770D01*
X268500Y230794D01*
Y228255D01*
X269770Y226985D01*
X271039D01*
X272309Y228255D01*
X273578Y226985D01*
X274848D01*
X272309Y228255D02*
Y230794D01*
X195750Y212500D02*
X203368D01*
Y216309D01*
X202098Y217578D01*
X199559D01*
X198289Y216309D01*
Y212500D01*
Y215039D02*
X195750Y217578D01*
X203368Y220117D02*
Y225196D01*
X202098D01*
X197020Y220117D01*
X195750D01*
X203368Y227735D02*
Y232813D01*
X202098D01*
X197020Y227735D01*
X195750D01*
X119750Y213250D02*
X127367D01*
Y217059D01*
X126098Y218328D01*
X123559D01*
X122289Y217059D01*
Y213250D01*
Y215789D02*
X119750Y218328D01*
X127367Y220868D02*
Y225946D01*
X126098D01*
X121020Y220868D01*
X119750D01*
X127367Y233563D02*
X126098Y231024D01*
X123559Y228485D01*
X121020D01*
X119750Y229755D01*
Y232294D01*
X121020Y233563D01*
X122289D01*
X123559Y232294D01*
Y228485D01*
X49250Y212250D02*
X56867D01*
Y216059D01*
X55598Y217328D01*
X53059D01*
X51789Y216059D01*
Y212250D01*
Y214789D02*
X49250Y217328D01*
X56867Y219867D02*
Y224946D01*
X55598D01*
X50520Y219867D01*
X49250D01*
X56867Y232563D02*
Y227485D01*
X53059D01*
X54328Y230024D01*
Y231294D01*
X53059Y232563D01*
X50520D01*
X49250Y231294D01*
Y228755D01*
X50520Y227485D01*
X307750Y122250D02*
Y129867D01*
X303941D01*
X302672Y128598D01*
Y126059D01*
X303941Y124789D01*
X307750D01*
X305211D02*
X302672Y122250D01*
X295054Y129867D02*
X297593Y128598D01*
X300133Y126059D01*
Y123520D01*
X298863Y122250D01*
X296324D01*
X295054Y123520D01*
Y124789D01*
X296324Y126059D01*
X300133D01*
X287437Y129867D02*
X289976Y128598D01*
X292515Y126059D01*
Y123520D01*
X291245Y122250D01*
X288706D01*
X287437Y123520D01*
Y124789D01*
X288706Y126059D01*
X292515D01*
X231250Y120750D02*
Y128368D01*
X227441D01*
X226172Y127098D01*
Y124559D01*
X227441Y123289D01*
X231250D01*
X228711D02*
X226172Y120750D01*
X218554Y128368D02*
X221093Y127098D01*
X223633Y124559D01*
Y122020D01*
X222363Y120750D01*
X219824D01*
X218554Y122020D01*
Y123289D01*
X219824Y124559D01*
X223633D01*
X210937Y128368D02*
X216015D01*
Y124559D01*
X213476Y125828D01*
X212206D01*
X210937Y124559D01*
Y122020D01*
X212206Y120750D01*
X214745D01*
X216015Y122020D01*
X161000Y120000D02*
Y127618D01*
X157191D01*
X155922Y126348D01*
Y123809D01*
X157191Y122539D01*
X161000D01*
X158461D02*
X155922Y120000D01*
X148304Y127618D02*
X150843Y126348D01*
X153383Y123809D01*
Y121270D01*
X152113Y120000D01*
X149574D01*
X148304Y121270D01*
Y122539D01*
X149574Y123809D01*
X153383D01*
X141956Y120000D02*
Y127618D01*
X145765Y123809D01*
X140687D01*
X85750Y121000D02*
Y128617D01*
X81941D01*
X80672Y127348D01*
Y124809D01*
X81941Y123539D01*
X85750D01*
X83211D02*
X80672Y121000D01*
X73054Y128617D02*
X75593Y127348D01*
X78133Y124809D01*
Y122270D01*
X76863Y121000D01*
X74324D01*
X73054Y122270D01*
Y123539D01*
X74324Y124809D01*
X78133D01*
X70515Y127348D02*
X69245Y128617D01*
X66706D01*
X65437Y127348D01*
Y126078D01*
X66706Y124809D01*
X67976D01*
X66706D01*
X65437Y123539D01*
Y122270D01*
X66706Y121000D01*
X69245D01*
X70515Y122270D01*
X290000Y212000D02*
X297617D01*
Y215809D01*
X296348Y217078D01*
X293809D01*
X292539Y215809D01*
Y212000D01*
Y214539D02*
X290000Y217078D01*
X297617Y224696D02*
X296348Y222157D01*
X293809Y219618D01*
X291270D01*
X290000Y220887D01*
Y223426D01*
X291270Y224696D01*
X292539D01*
X293809Y223426D01*
Y219618D01*
X290000Y232313D02*
Y227235D01*
X295078Y232313D01*
X296348D01*
X297617Y231044D01*
Y228505D01*
X296348Y227235D01*
X217500Y213250D02*
X225117D01*
Y217059D01*
X223848Y218328D01*
X221309D01*
X220039Y217059D01*
Y213250D01*
Y215789D02*
X217500Y218328D01*
X225117Y225946D02*
X223848Y223407D01*
X221309Y220868D01*
X218770D01*
X217500Y222137D01*
Y224676D01*
X218770Y225946D01*
X220039D01*
X221309Y224676D01*
Y220868D01*
X217500Y228485D02*
Y231024D01*
Y229755D01*
X225117D01*
X223848Y228485D01*
X144750Y213000D02*
X152367D01*
Y216809D01*
X151098Y218078D01*
X148559D01*
X147289Y216809D01*
Y213000D01*
Y215539D02*
X144750Y218078D01*
X152367Y225696D02*
X151098Y223157D01*
X148559Y220618D01*
X146020D01*
X144750Y221887D01*
Y224426D01*
X146020Y225696D01*
X147289D01*
X148559Y224426D01*
Y220618D01*
X151098Y228235D02*
X152367Y229505D01*
Y232044D01*
X151098Y233313D01*
X146020D01*
X144750Y232044D01*
Y229505D01*
X146020Y228235D01*
X151098D01*
X71250Y211750D02*
X78868D01*
Y215559D01*
X77598Y216828D01*
X75059D01*
X73789Y215559D01*
Y211750D01*
Y214289D02*
X71250Y216828D01*
X78868Y224446D02*
Y219368D01*
X75059D01*
X76328Y221907D01*
Y223176D01*
X75059Y224446D01*
X72520D01*
X71250Y223176D01*
Y220637D01*
X72520Y219368D01*
Y226985D02*
X71250Y228255D01*
Y230794D01*
X72520Y232063D01*
X77598D01*
X78868Y230794D01*
Y228255D01*
X77598Y226985D01*
X76328D01*
X75059Y228255D01*
Y232063D01*
X307750Y84250D02*
X300133D01*
Y80441D01*
X301402Y79172D01*
X303941D01*
X305211Y80441D01*
Y84250D01*
Y81711D02*
X307750Y79172D01*
X300133Y71554D02*
Y76632D01*
X303941D01*
X302672Y74093D01*
Y72824D01*
X303941Y71554D01*
X306480D01*
X307750Y72824D01*
Y75363D01*
X306480Y76632D01*
X301402Y69015D02*
X300133Y67745D01*
Y65206D01*
X301402Y63937D01*
X302672D01*
X303941Y65206D01*
X305211Y63937D01*
X306480D01*
X307750Y65206D01*
Y67745D01*
X306480Y69015D01*
X305211D01*
X303941Y67745D01*
X302672Y69015D01*
X301402D01*
X303941Y67745D02*
Y65206D01*
X197500Y70500D02*
X189883D01*
Y66691D01*
X191152Y65422D01*
X193691D01*
X194961Y66691D01*
Y70500D01*
Y67961D02*
X197500Y65422D01*
X189883Y57804D02*
Y62882D01*
X193691D01*
X192422Y60343D01*
Y59074D01*
X193691Y57804D01*
X196230D01*
X197500Y59074D01*
Y61613D01*
X196230Y62882D01*
X189883Y55265D02*
Y50187D01*
X191152D01*
X196230Y55265D01*
X197500D01*
X141000Y70250D02*
X133383D01*
Y66441D01*
X134652Y65172D01*
X137191D01*
X138461Y66441D01*
Y70250D01*
Y67711D02*
X141000Y65172D01*
X133383Y57554D02*
Y62632D01*
X137191D01*
X135922Y60093D01*
Y58824D01*
X137191Y57554D01*
X139730D01*
X141000Y58824D01*
Y61363D01*
X139730Y62632D01*
X133383Y49937D02*
X134652Y52476D01*
X137191Y55015D01*
X139730D01*
X141000Y53745D01*
Y51206D01*
X139730Y49937D01*
X138461D01*
X137191Y51206D01*
Y55015D01*
X47500Y79500D02*
Y87118D01*
X43691D01*
X42422Y85848D01*
Y83309D01*
X43691Y82039D01*
X47500D01*
X44961D02*
X42422Y79500D01*
X34804Y87118D02*
X39883D01*
Y83309D01*
X37343Y84578D01*
X36074D01*
X34804Y83309D01*
Y80770D01*
X36074Y79500D01*
X38613D01*
X39883Y80770D01*
X27187Y87118D02*
X32265D01*
Y83309D01*
X29726Y84578D01*
X28456D01*
X27187Y83309D01*
Y80770D01*
X28456Y79500D01*
X30995D01*
X32265Y80770D01*
X279500Y211750D02*
X287118D01*
Y215559D01*
X285848Y216828D01*
X283309D01*
X282039Y215559D01*
Y211750D01*
Y214289D02*
X279500Y216828D01*
X287118Y224446D02*
Y219368D01*
X283309D01*
X284578Y221907D01*
Y223176D01*
X283309Y224446D01*
X280770D01*
X279500Y223176D01*
Y220637D01*
X280770Y219368D01*
X279500Y230794D02*
X287118D01*
X283309Y226985D01*
Y232063D01*
X206250Y212750D02*
X213867D01*
Y216559D01*
X212598Y217828D01*
X210059D01*
X208789Y216559D01*
Y212750D01*
Y215289D02*
X206250Y217828D01*
X213867Y225446D02*
Y220368D01*
X210059D01*
X211328Y222907D01*
Y224176D01*
X210059Y225446D01*
X207520D01*
X206250Y224176D01*
Y221637D01*
X207520Y220368D01*
X212598Y227985D02*
X213867Y229255D01*
Y231794D01*
X212598Y233063D01*
X211328D01*
X210059Y231794D01*
Y230524D01*
Y231794D01*
X208789Y233063D01*
X207520D01*
X206250Y231794D01*
Y229255D01*
X207520Y227985D01*
X133000Y213250D02*
X140618D01*
Y217059D01*
X139348Y218328D01*
X136809D01*
X135539Y217059D01*
Y213250D01*
Y215789D02*
X133000Y218328D01*
X140618Y225946D02*
Y220868D01*
X136809D01*
X138078Y223407D01*
Y224676D01*
X136809Y225946D01*
X134270D01*
X133000Y224676D01*
Y222137D01*
X134270Y220868D01*
X133000Y233563D02*
Y228485D01*
X138078Y233563D01*
X139348D01*
X140618Y232294D01*
Y229755D01*
X139348Y228485D01*
X60500Y212500D02*
X68117D01*
Y216309D01*
X66848Y217578D01*
X64309D01*
X63039Y216309D01*
Y212500D01*
Y215039D02*
X60500Y217578D01*
X68117Y225196D02*
Y220117D01*
X64309D01*
X65578Y222657D01*
Y223926D01*
X64309Y225196D01*
X61770D01*
X60500Y223926D01*
Y221387D01*
X61770Y220117D01*
X60500Y227735D02*
Y230274D01*
Y229005D01*
X68117D01*
X66848Y227735D01*
X876000Y929500D02*
X868382D01*
Y925691D01*
X869652Y924422D01*
X872191D01*
X873461Y925691D01*
Y929500D01*
Y926961D02*
X876000Y924422D01*
Y918074D02*
X868382D01*
X872191Y921882D01*
Y916804D01*
X876000Y914265D02*
Y911726D01*
Y912995D01*
X868382D01*
X869652Y914265D01*
X792500Y929250D02*
X784883D01*
Y925441D01*
X786152Y924172D01*
X788691D01*
X789961Y925441D01*
Y929250D01*
Y926711D02*
X792500Y924172D01*
Y917824D02*
X784883D01*
X788691Y921633D01*
Y916554D01*
X786152Y914015D02*
X784883Y912745D01*
Y910206D01*
X786152Y908937D01*
X791230D01*
X792500Y910206D01*
Y912745D01*
X791230Y914015D01*
X786152D01*
X711000Y929250D02*
X703382D01*
Y925441D01*
X704652Y924172D01*
X707191D01*
X708461Y925441D01*
Y929250D01*
Y926711D02*
X711000Y924172D01*
X704652Y921633D02*
X703382Y920363D01*
Y917824D01*
X704652Y916554D01*
X705922D01*
X707191Y917824D01*
Y919093D01*
Y917824D01*
X708461Y916554D01*
X709730D01*
X711000Y917824D01*
Y920363D01*
X709730Y921633D01*
Y914015D02*
X711000Y912745D01*
Y910206D01*
X709730Y908937D01*
X704652D01*
X703382Y910206D01*
Y912745D01*
X704652Y914015D01*
X705922D01*
X707191Y912745D01*
Y908937D01*
X627750Y929000D02*
X620132D01*
Y925191D01*
X621402Y923922D01*
X623941D01*
X625211Y925191D01*
Y929000D01*
Y926461D02*
X627750Y923922D01*
X621402Y921383D02*
X620132Y920113D01*
Y917574D01*
X621402Y916304D01*
X622672D01*
X623941Y917574D01*
Y918843D01*
Y917574D01*
X625211Y916304D01*
X626480D01*
X627750Y917574D01*
Y920113D01*
X626480Y921383D01*
X621402Y913765D02*
X620132Y912495D01*
Y909956D01*
X621402Y908687D01*
X622672D01*
X623941Y909956D01*
X625211Y908687D01*
X626480D01*
X627750Y909956D01*
Y912495D01*
X626480Y913765D01*
X625211D01*
X623941Y912495D01*
X622672Y913765D01*
X621402D01*
X623941Y912495D02*
Y909956D01*
X587750Y22750D02*
Y30368D01*
X583941D01*
X582672Y29098D01*
Y26559D01*
X583941Y25289D01*
X587750D01*
X585211D02*
X582672Y22750D01*
X580132Y29098D02*
X578863Y30368D01*
X576324D01*
X575054Y29098D01*
Y27828D01*
X576324Y26559D01*
X577593D01*
X576324D01*
X575054Y25289D01*
Y24020D01*
X576324Y22750D01*
X578863D01*
X580132Y24020D01*
X572515Y30368D02*
X567437D01*
Y29098D01*
X572515Y24020D01*
Y22750D01*
X251500Y271000D02*
Y278617D01*
X247691D01*
X246422Y277348D01*
Y274809D01*
X247691Y273539D01*
X251500D01*
X248961D02*
X246422Y271000D01*
X243883Y277348D02*
X242613Y278617D01*
X240074D01*
X238804Y277348D01*
Y276078D01*
X240074Y274809D01*
X241343D01*
X240074D01*
X238804Y273539D01*
Y272270D01*
X240074Y271000D01*
X242613D01*
X243883Y272270D01*
X231187Y278617D02*
X233726Y277348D01*
X236265Y274809D01*
Y272270D01*
X234995Y271000D01*
X232456D01*
X231187Y272270D01*
Y273539D01*
X232456Y274809D01*
X236265D01*
X768250Y382750D02*
Y390368D01*
X764441D01*
X763172Y389098D01*
Y386559D01*
X764441Y385289D01*
X768250D01*
X765711D02*
X763172Y382750D01*
X760632Y389098D02*
X759363Y390368D01*
X756824D01*
X755554Y389098D01*
Y387828D01*
X756824Y386559D01*
X758093D01*
X756824D01*
X755554Y385289D01*
Y384020D01*
X756824Y382750D01*
X759363D01*
X760632Y384020D01*
X747937Y390368D02*
X753015D01*
Y386559D01*
X750476Y387828D01*
X749206D01*
X747937Y386559D01*
Y384020D01*
X749206Y382750D01*
X751745D01*
X753015Y384020D01*
X512000Y188250D02*
X519618D01*
Y192059D01*
X518348Y193328D01*
X515809D01*
X514539Y192059D01*
Y188250D01*
Y190789D02*
X512000Y193328D01*
X518348Y195868D02*
X519618Y197137D01*
Y199676D01*
X518348Y200946D01*
X517078D01*
X515809Y199676D01*
Y198407D01*
Y199676D01*
X514539Y200946D01*
X513270D01*
X512000Y199676D01*
Y197137D01*
X513270Y195868D01*
X512000Y207294D02*
X519618D01*
X515809Y203485D01*
Y208563D01*
X547750Y159750D02*
Y167367D01*
X543941D01*
X542672Y166098D01*
Y163559D01*
X543941Y162289D01*
X547750D01*
X545211D02*
X542672Y159750D01*
X540132Y166098D02*
X538863Y167367D01*
X536324D01*
X535054Y166098D01*
Y164828D01*
X536324Y163559D01*
X537593D01*
X536324D01*
X535054Y162289D01*
Y161020D01*
X536324Y159750D01*
X538863D01*
X540132Y161020D01*
X532515Y166098D02*
X531245Y167367D01*
X528706D01*
X527437Y166098D01*
Y164828D01*
X528706Y163559D01*
X529976D01*
X528706D01*
X527437Y162289D01*
Y161020D01*
X528706Y159750D01*
X531245D01*
X532515Y161020D01*
X548000Y99500D02*
Y107118D01*
X544191D01*
X542922Y105848D01*
Y103309D01*
X544191Y102039D01*
X548000D01*
X545461D02*
X542922Y99500D01*
X540382Y105848D02*
X539113Y107118D01*
X536574D01*
X535304Y105848D01*
Y104578D01*
X536574Y103309D01*
X537843D01*
X536574D01*
X535304Y102039D01*
Y100770D01*
X536574Y99500D01*
X539113D01*
X540382Y100770D01*
X527687Y99500D02*
X532765D01*
X527687Y104578D01*
Y105848D01*
X528956Y107118D01*
X531495D01*
X532765Y105848D01*
X250000Y316750D02*
Y324367D01*
X246191D01*
X244922Y323098D01*
Y320559D01*
X246191Y319289D01*
X250000D01*
X247461D02*
X244922Y316750D01*
X242383Y323098D02*
X241113Y324367D01*
X238574D01*
X237304Y323098D01*
Y321828D01*
X238574Y320559D01*
X239843D01*
X238574D01*
X237304Y319289D01*
Y318020D01*
X238574Y316750D01*
X241113D01*
X242383Y318020D01*
X234765Y316750D02*
X232226D01*
X233495D01*
Y324367D01*
X234765Y323098D01*
X767750Y337500D02*
Y345117D01*
X763941D01*
X762672Y343848D01*
Y341309D01*
X763941Y340039D01*
X767750D01*
X765211D02*
X762672Y337500D01*
X760133Y343848D02*
X758863Y345117D01*
X756324D01*
X755054Y343848D01*
Y342578D01*
X756324Y341309D01*
X757593D01*
X756324D01*
X755054Y340039D01*
Y338770D01*
X756324Y337500D01*
X758863D01*
X760133Y338770D01*
X752515Y343848D02*
X751245Y345117D01*
X748706D01*
X747437Y343848D01*
Y338770D01*
X748706Y337500D01*
X751245D01*
X752515Y338770D01*
Y343848D01*
X431250Y21000D02*
Y28617D01*
X427441D01*
X426172Y27348D01*
Y24809D01*
X427441Y23539D01*
X431250D01*
X428711D02*
X426172Y21000D01*
X418554D02*
X423633D01*
X418554Y26078D01*
Y27348D01*
X419824Y28617D01*
X422363D01*
X423633Y27348D01*
X416015Y28617D02*
X410937D01*
Y27348D01*
X416015Y22270D01*
Y21000D01*
X28750Y378250D02*
Y385868D01*
X24941D01*
X23672Y384598D01*
Y382059D01*
X24941Y380789D01*
X28750D01*
X26211D02*
X23672Y378250D01*
X16054D02*
X21133D01*
X16054Y383328D01*
Y384598D01*
X17324Y385868D01*
X19863D01*
X21133Y384598D01*
X8437Y385868D02*
X10976Y384598D01*
X13515Y382059D01*
Y379520D01*
X12245Y378250D01*
X9706D01*
X8437Y379520D01*
Y380789D01*
X9706Y382059D01*
X13515D01*
X967232Y292734D02*
Y300352D01*
X963423D01*
X962154Y299082D01*
Y296543D01*
X963423Y295273D01*
X967232D01*
X964693D02*
X962154Y292734D01*
X954536D02*
X959614D01*
X954536Y297812D01*
Y299082D01*
X955806Y300352D01*
X958345D01*
X959614Y299082D01*
X946919Y300352D02*
X951997D01*
Y296543D01*
X949458Y297812D01*
X948188D01*
X946919Y296543D01*
Y294004D01*
X948188Y292734D01*
X950727D01*
X951997Y294004D01*
X70250Y346750D02*
Y354367D01*
X66441D01*
X65172Y353098D01*
Y350559D01*
X66441Y349289D01*
X70250D01*
X67711D02*
X65172Y346750D01*
X57554D02*
X62632D01*
X57554Y351828D01*
Y353098D01*
X58824Y354367D01*
X61363D01*
X62632Y353098D01*
X51206Y346750D02*
Y354367D01*
X55015Y350559D01*
X49937D01*
X924052Y323976D02*
Y331594D01*
X920243D01*
X918974Y330324D01*
Y327785D01*
X920243Y326515D01*
X924052D01*
X921513D02*
X918974Y323976D01*
X911356D02*
X916434D01*
X911356Y329054D01*
Y330324D01*
X912626Y331594D01*
X915165D01*
X916434Y330324D01*
X908817D02*
X907547Y331594D01*
X905008D01*
X903739Y330324D01*
Y329054D01*
X905008Y327785D01*
X906278D01*
X905008D01*
X903739Y326515D01*
Y325246D01*
X905008Y323976D01*
X907547D01*
X908817Y325246D01*
X479500Y188250D02*
X487118D01*
Y192059D01*
X485848Y193328D01*
X483309D01*
X482039Y192059D01*
Y188250D01*
Y190789D02*
X479500Y193328D01*
Y200946D02*
Y195868D01*
X484578Y200946D01*
X485848D01*
X487118Y199676D01*
Y197137D01*
X485848Y195868D01*
X479500Y208563D02*
Y203485D01*
X484578Y208563D01*
X485848D01*
X487118Y207294D01*
Y204755D01*
X485848Y203485D01*
X71000Y362250D02*
Y369868D01*
X67191D01*
X65922Y368598D01*
Y366059D01*
X67191Y364789D01*
X71000D01*
X68461D02*
X65922Y362250D01*
X58304D02*
X63383D01*
X58304Y367328D01*
Y368598D01*
X59574Y369868D01*
X62113D01*
X63383Y368598D01*
X55765Y362250D02*
X53226D01*
X54495D01*
Y369868D01*
X55765Y368598D01*
X929750Y296000D02*
X937367D01*
Y299809D01*
X936098Y301078D01*
X933559D01*
X932289Y299809D01*
Y296000D01*
Y298539D02*
X929750Y301078D01*
Y308696D02*
Y303617D01*
X934828Y308696D01*
X936098D01*
X937367Y307426D01*
Y304887D01*
X936098Y303617D01*
Y311235D02*
X937367Y312505D01*
Y315044D01*
X936098Y316313D01*
X931020D01*
X929750Y315044D01*
Y312505D01*
X931020Y311235D01*
X936098D01*
X470750Y99000D02*
Y106617D01*
X466941D01*
X465672Y105348D01*
Y102809D01*
X466941Y101539D01*
X470750D01*
X468211D02*
X465672Y99000D01*
X463133D02*
X460593D01*
X461863D01*
Y106617D01*
X463133Y105348D01*
X456785Y100270D02*
X455515Y99000D01*
X452976D01*
X451706Y100270D01*
Y105348D01*
X452976Y106617D01*
X455515D01*
X456785Y105348D01*
Y104078D01*
X455515Y102809D01*
X451706D01*
X472750Y160000D02*
Y167617D01*
X468941D01*
X467672Y166348D01*
Y163809D01*
X468941Y162539D01*
X472750D01*
X470211D02*
X467672Y160000D01*
X465132D02*
X462593D01*
X463863D01*
Y167617D01*
X465132Y166348D01*
X458784D02*
X457515Y167617D01*
X454976D01*
X453706Y166348D01*
Y165078D01*
X454976Y163809D01*
X453706Y162539D01*
Y161270D01*
X454976Y160000D01*
X457515D01*
X458784Y161270D01*
Y162539D01*
X457515Y163809D01*
X458784Y165078D01*
Y166348D01*
X457515Y163809D02*
X454976D01*
X833000Y601500D02*
Y609118D01*
X829191D01*
X827922Y607848D01*
Y605309D01*
X829191Y604039D01*
X833000D01*
X830461D02*
X827922Y601500D01*
X825383D02*
X822843D01*
X824113D01*
Y609118D01*
X825383Y607848D01*
X813956Y609118D02*
X816495Y607848D01*
X819035Y605309D01*
Y602770D01*
X817765Y601500D01*
X815226D01*
X813956Y602770D01*
Y604039D01*
X815226Y605309D01*
X819035D01*
X620750Y602000D02*
Y609618D01*
X616941D01*
X615672Y608348D01*
Y605809D01*
X616941Y604539D01*
X620750D01*
X618211D02*
X615672Y602000D01*
X613133D02*
X610593D01*
X611863D01*
Y609618D01*
X613133Y608348D01*
X601706Y609618D02*
X606785D01*
Y605809D01*
X604245Y607078D01*
X602976D01*
X601706Y605809D01*
Y603270D01*
X602976Y602000D01*
X605515D01*
X606785Y603270D01*
X251000Y490250D02*
Y497868D01*
X247191D01*
X245922Y496598D01*
Y494059D01*
X247191Y492789D01*
X251000D01*
X248461D02*
X245922Y490250D01*
X243382D02*
X240843D01*
X242113D01*
Y497868D01*
X243382Y496598D01*
X233226Y490250D02*
Y497868D01*
X237034Y494059D01*
X231956D01*
X832500Y556750D02*
Y564367D01*
X828691D01*
X827422Y563098D01*
Y560559D01*
X828691Y559289D01*
X832500D01*
X829961D02*
X827422Y556750D01*
X824883D02*
X822343D01*
X823613D01*
Y564367D01*
X824883Y563098D01*
X818534D02*
X817265Y564367D01*
X814726D01*
X813456Y563098D01*
Y561828D01*
X814726Y560559D01*
X815995D01*
X814726D01*
X813456Y559289D01*
Y558020D01*
X814726Y556750D01*
X817265D01*
X818534Y558020D01*
X619250Y557250D02*
Y564868D01*
X615441D01*
X614172Y563598D01*
Y561059D01*
X615441Y559789D01*
X619250D01*
X616711D02*
X614172Y557250D01*
X611632D02*
X609093D01*
X610363D01*
Y564868D01*
X611632Y563598D01*
X600206Y557250D02*
X605285D01*
X600206Y562328D01*
Y563598D01*
X601476Y564868D01*
X604015D01*
X605285Y563598D01*
X250250Y534750D02*
Y542368D01*
X246441D01*
X245172Y541098D01*
Y538559D01*
X246441Y537289D01*
X250250D01*
X247711D02*
X245172Y534750D01*
X242633D02*
X240093D01*
X241363D01*
Y542368D01*
X242633Y541098D01*
X236285Y534750D02*
X233745D01*
X235015D01*
Y542368D01*
X236285Y541098D01*
X28000Y597000D02*
Y604618D01*
X24191D01*
X22922Y603348D01*
Y600809D01*
X24191Y599539D01*
X28000D01*
X25461D02*
X22922Y597000D01*
X20382Y604618D02*
X15304D01*
Y603348D01*
X20382Y598270D01*
Y597000D01*
X986000Y562500D02*
Y570117D01*
X982191D01*
X980922Y568848D01*
Y566309D01*
X982191Y565039D01*
X986000D01*
X983461D02*
X980922Y562500D01*
X973304Y570117D02*
X975843Y568848D01*
X978382Y566309D01*
Y563770D01*
X977113Y562500D01*
X974574D01*
X973304Y563770D01*
Y565039D01*
X974574Y566309D01*
X978382D01*
X790500Y525500D02*
Y533117D01*
X786691D01*
X785422Y531848D01*
Y529309D01*
X786691Y528039D01*
X790500D01*
X787961D02*
X785422Y525500D01*
X777804Y533117D02*
X782883D01*
Y529309D01*
X780343Y530578D01*
X779074D01*
X777804Y529309D01*
Y526770D01*
X779074Y525500D01*
X781613D01*
X782883Y526770D01*
X71250Y566000D02*
Y573618D01*
X67441D01*
X66172Y572348D01*
Y569809D01*
X67441Y568539D01*
X71250D01*
X68711D02*
X66172Y566000D01*
X59824D02*
Y573618D01*
X63632Y569809D01*
X58554D01*
X986000Y551500D02*
Y559118D01*
X982191D01*
X980922Y557848D01*
Y555309D01*
X982191Y554039D01*
X986000D01*
X983461D02*
X980922Y551500D01*
X978382Y557848D02*
X977113Y559118D01*
X974574D01*
X973304Y557848D01*
Y556578D01*
X974574Y555309D01*
X975843D01*
X974574D01*
X973304Y554039D01*
Y552770D01*
X974574Y551500D01*
X977113D01*
X978382Y552770D01*
X789750Y509750D02*
Y517368D01*
X785941D01*
X784672Y516098D01*
Y513559D01*
X785941Y512289D01*
X789750D01*
X787211D02*
X784672Y509750D01*
X777054D02*
X782132D01*
X777054Y514828D01*
Y516098D01*
X778324Y517368D01*
X780863D01*
X782132Y516098D01*
X71750Y581500D02*
Y589118D01*
X67941D01*
X66672Y587848D01*
Y585309D01*
X67941Y584039D01*
X71750D01*
X69211D02*
X66672Y581500D01*
X64132D02*
X61593D01*
X62863D01*
Y589118D01*
X64132Y587848D01*
X182922Y814020D02*
Y819098D01*
X184191Y820368D01*
X186730D01*
X188000Y819098D01*
Y814020D01*
X186730Y812750D01*
X184191D01*
X185461Y815289D02*
X182922Y812750D01*
X184191D02*
X182922Y814020D01*
X180382Y812750D02*
X177843D01*
X179113D01*
Y820368D01*
X180382Y819098D01*
X174035Y820368D02*
X168956D01*
Y819098D01*
X174035Y814020D01*
Y812750D01*
X952922Y228270D02*
Y233348D01*
X954191Y234618D01*
X956730D01*
X958000Y233348D01*
Y228270D01*
X956730Y227000D01*
X954191D01*
X955461Y229539D02*
X952922Y227000D01*
X954191D02*
X952922Y228270D01*
X950383Y227000D02*
X947843D01*
X949113D01*
Y234618D01*
X950383Y233348D01*
X938956Y234618D02*
X941495Y233348D01*
X944035Y230809D01*
Y228270D01*
X942765Y227000D01*
X940226D01*
X938956Y228270D01*
Y229539D01*
X940226Y230809D01*
X944035D01*
X324922Y123270D02*
Y128348D01*
X326191Y129618D01*
X328730D01*
X330000Y128348D01*
Y123270D01*
X328730Y122000D01*
X326191D01*
X327461Y124539D02*
X324922Y122000D01*
X326191D02*
X324922Y123270D01*
X322383Y122000D02*
X319843D01*
X321113D01*
Y129618D01*
X322383Y128348D01*
X316035Y122000D02*
X313495D01*
X314765D01*
Y129618D01*
X316035Y128348D01*
X250672Y122020D02*
Y127098D01*
X251941Y128368D01*
X254480D01*
X255750Y127098D01*
Y122020D01*
X254480Y120750D01*
X251941D01*
X253211Y123289D02*
X250672Y120750D01*
X251941D02*
X250672Y122020D01*
X248132Y120750D02*
X245593D01*
X246863D01*
Y128368D01*
X248132Y127098D01*
X241784D02*
X240515Y128368D01*
X237976D01*
X236706Y127098D01*
Y122020D01*
X237976Y120750D01*
X240515D01*
X241784Y122020D01*
Y127098D01*
X174922Y122520D02*
Y127598D01*
X176191Y128868D01*
X178730D01*
X180000Y127598D01*
Y122520D01*
X178730Y121250D01*
X176191D01*
X177461Y123789D02*
X174922Y121250D01*
X176191D02*
X174922Y122520D01*
X172383D02*
X171113Y121250D01*
X168574D01*
X167304Y122520D01*
Y127598D01*
X168574Y128868D01*
X171113D01*
X172383Y127598D01*
Y126328D01*
X171113Y125059D01*
X167304D01*
X98922Y121770D02*
Y126848D01*
X100191Y128118D01*
X102730D01*
X104000Y126848D01*
Y121770D01*
X102730Y120500D01*
X100191D01*
X101461Y123039D02*
X98922Y120500D01*
X100191D02*
X98922Y121770D01*
X96383Y126848D02*
X95113Y128118D01*
X92574D01*
X91304Y126848D01*
Y125578D01*
X92574Y124309D01*
X91304Y123039D01*
Y121770D01*
X92574Y120500D01*
X95113D01*
X96383Y121770D01*
Y123039D01*
X95113Y124309D01*
X96383Y125578D01*
Y126848D01*
X95113Y124309D02*
X92574D01*
X320672Y213020D02*
Y218098D01*
X321941Y219368D01*
X324480D01*
X325750Y218098D01*
Y213020D01*
X324480Y211750D01*
X321941D01*
X323211Y214289D02*
X320672Y211750D01*
X321941D02*
X320672Y213020D01*
X318132Y219368D02*
X313054D01*
Y218098D01*
X318132Y213020D01*
Y211750D01*
X247672Y213270D02*
Y218348D01*
X248941Y219618D01*
X251480D01*
X252750Y218348D01*
Y213270D01*
X251480Y212000D01*
X248941D01*
X250211Y214539D02*
X247672Y212000D01*
X248941D02*
X247672Y213270D01*
X240054Y219618D02*
X242593Y218348D01*
X245133Y215809D01*
Y213270D01*
X243863Y212000D01*
X241324D01*
X240054Y213270D01*
Y214539D01*
X241324Y215809D01*
X245133D01*
X174422Y213020D02*
Y218098D01*
X175691Y219368D01*
X178230D01*
X179500Y218098D01*
Y213020D01*
X178230Y211750D01*
X175691D01*
X176961Y214289D02*
X174422Y211750D01*
X175691D02*
X174422Y213020D01*
X166804Y219368D02*
X171882D01*
Y215559D01*
X169343Y216828D01*
X168074D01*
X166804Y215559D01*
Y213020D01*
X168074Y211750D01*
X170613D01*
X171882Y213020D01*
X101172Y213520D02*
Y218598D01*
X102441Y219867D01*
X104980D01*
X106250Y218598D01*
Y213520D01*
X104980Y212250D01*
X102441D01*
X103711Y214789D02*
X101172Y212250D01*
X102441D02*
X101172Y213520D01*
X94824Y212250D02*
Y219867D01*
X98632Y216059D01*
X93554D01*
X247250Y734618D02*
Y727000D01*
X242172D01*
X234554Y734618D02*
X239632D01*
Y727000D01*
X234554D01*
X239632Y730809D02*
X237093D01*
X232015Y734618D02*
Y727000D01*
X228206D01*
X226937Y728270D01*
Y733348D01*
X228206Y734618D01*
X232015D01*
X224397Y727000D02*
X221858D01*
X223128D01*
Y734618D01*
X224397Y733348D01*
X218049Y734618D02*
X212971D01*
Y733348D01*
X218049Y728270D01*
Y727000D01*
X633672Y137867D02*
X638750D01*
Y134059D01*
X636211D01*
X638750D01*
Y130250D01*
X627324D02*
Y137867D01*
X631133Y134059D01*
X626054D01*
X574672Y138617D02*
X579750D01*
Y134809D01*
X577211D01*
X579750D01*
Y131000D01*
X572132Y137348D02*
X570863Y138617D01*
X568324D01*
X567054Y137348D01*
Y136078D01*
X568324Y134809D01*
X569593D01*
X568324D01*
X567054Y133539D01*
Y132270D01*
X568324Y131000D01*
X570863D01*
X572132Y132270D01*
X429422Y137867D02*
X434500D01*
Y134059D01*
X431961D01*
X434500D01*
Y130250D01*
X421804D02*
X426883D01*
X421804Y135328D01*
Y136598D01*
X423074Y137867D01*
X425613D01*
X426883Y136598D01*
X366672Y139117D02*
X371750D01*
Y135309D01*
X369211D01*
X371750D01*
Y131500D01*
X364132D02*
X361593D01*
X362863D01*
Y139117D01*
X364132Y137848D01*
X603000Y295868D02*
Y288250D01*
X599191D01*
X597922Y289520D01*
Y294598D01*
X599191Y295868D01*
X603000D01*
X595382Y288250D02*
X592843D01*
X594113D01*
Y295868D01*
X595382Y294598D01*
X341598Y693578D02*
X342868Y692309D01*
Y689770D01*
X341598Y688500D01*
X336520D01*
X335250Y689770D01*
Y692309D01*
X336520Y693578D01*
X342868Y696117D02*
Y701196D01*
X341598D01*
X336520Y696117D01*
X335250D01*
Y708813D02*
Y703735D01*
X340328Y708813D01*
X341598D01*
X342868Y707544D01*
Y705005D01*
X341598Y703735D01*
X464172Y760598D02*
X465441Y761868D01*
X467980D01*
X469250Y760598D01*
Y755520D01*
X467980Y754250D01*
X465441D01*
X464172Y755520D01*
X461632Y761868D02*
X456554D01*
Y760598D01*
X461632Y755520D01*
Y754250D01*
X454015D02*
X451476D01*
X452745D01*
Y761868D01*
X454015Y760598D01*
X417172Y866848D02*
X418441Y868118D01*
X420980D01*
X422250Y866848D01*
Y861770D01*
X420980Y860500D01*
X418441D01*
X417172Y861770D01*
X414632Y868118D02*
X409554D01*
Y866848D01*
X414632Y861770D01*
Y860500D01*
X407015Y866848D02*
X405745Y868118D01*
X403206D01*
X401937Y866848D01*
Y861770D01*
X403206Y860500D01*
X405745D01*
X407015Y861770D01*
Y866848D01*
X260848Y811328D02*
X262118Y810059D01*
Y807520D01*
X260848Y806250D01*
X255770D01*
X254500Y807520D01*
Y810059D01*
X255770Y811328D01*
X262118Y818946D02*
X260848Y816407D01*
X258309Y813867D01*
X255770D01*
X254500Y815137D01*
Y817676D01*
X255770Y818946D01*
X257039D01*
X258309Y817676D01*
Y813867D01*
X255770Y821485D02*
X254500Y822755D01*
Y825294D01*
X255770Y826563D01*
X260848D01*
X262118Y825294D01*
Y822755D01*
X260848Y821485D01*
X259578D01*
X258309Y822755D01*
Y826563D01*
X391672Y771848D02*
X392941Y773118D01*
X395480D01*
X396750Y771848D01*
Y766770D01*
X395480Y765500D01*
X392941D01*
X391672Y766770D01*
X384054Y773118D02*
X386593Y771848D01*
X389132Y769309D01*
Y766770D01*
X387863Y765500D01*
X385324D01*
X384054Y766770D01*
Y768039D01*
X385324Y769309D01*
X389132D01*
X381515Y771848D02*
X380245Y773118D01*
X377706D01*
X376437Y771848D01*
Y770578D01*
X377706Y769309D01*
X376437Y768039D01*
Y766770D01*
X377706Y765500D01*
X380245D01*
X381515Y766770D01*
Y768039D01*
X380245Y769309D01*
X381515Y770578D01*
Y771848D01*
X380245Y769309D02*
X377706D01*
X421172Y736348D02*
X422441Y737617D01*
X424980D01*
X426250Y736348D01*
Y731270D01*
X424980Y730000D01*
X422441D01*
X421172Y731270D01*
X413554Y737617D02*
X416093Y736348D01*
X418633Y733809D01*
Y731270D01*
X417363Y730000D01*
X414824D01*
X413554Y731270D01*
Y732539D01*
X414824Y733809D01*
X418633D01*
X411015Y737617D02*
X405937D01*
Y736348D01*
X411015Y731270D01*
Y730000D01*
X381098Y814078D02*
X382368Y812809D01*
Y810270D01*
X381098Y809000D01*
X376020D01*
X374750Y810270D01*
Y812809D01*
X376020Y814078D01*
X382368Y821696D02*
X381098Y819157D01*
X378559Y816618D01*
X376020D01*
X374750Y817887D01*
Y820426D01*
X376020Y821696D01*
X377289D01*
X378559Y820426D01*
Y816618D01*
X382368Y829313D02*
X381098Y826774D01*
X378559Y824235D01*
X376020D01*
X374750Y825505D01*
Y828044D01*
X376020Y829313D01*
X377289D01*
X378559Y828044D01*
Y824235D01*
X400098Y815078D02*
X401367Y813809D01*
Y811270D01*
X400098Y810000D01*
X395020D01*
X393750Y811270D01*
Y813809D01*
X395020Y815078D01*
X401367Y822696D02*
X400098Y820157D01*
X397559Y817617D01*
X395020D01*
X393750Y818887D01*
Y821426D01*
X395020Y822696D01*
X396289D01*
X397559Y821426D01*
Y817617D01*
X401367Y830313D02*
Y825235D01*
X397559D01*
X398828Y827774D01*
Y829044D01*
X397559Y830313D01*
X395020D01*
X393750Y829044D01*
Y826505D01*
X395020Y825235D01*
X466672Y670848D02*
X467941Y672117D01*
X470480D01*
X471750Y670848D01*
Y665770D01*
X470480Y664500D01*
X467941D01*
X466672Y665770D01*
X459054Y672117D02*
X461593Y670848D01*
X464132Y668309D01*
Y665770D01*
X462863Y664500D01*
X460324D01*
X459054Y665770D01*
Y667039D01*
X460324Y668309D01*
X464132D01*
X452706Y664500D02*
Y672117D01*
X456515Y668309D01*
X451437D01*
X455598Y699328D02*
X456867Y698059D01*
Y695520D01*
X455598Y694250D01*
X450520D01*
X449250Y695520D01*
Y698059D01*
X450520Y699328D01*
X456867Y706946D02*
X455598Y704407D01*
X453059Y701868D01*
X450520D01*
X449250Y703137D01*
Y705676D01*
X450520Y706946D01*
X451789D01*
X453059Y705676D01*
Y701868D01*
X455598Y709485D02*
X456867Y710755D01*
Y713294D01*
X455598Y714563D01*
X454328D01*
X453059Y713294D01*
Y712024D01*
Y713294D01*
X451789Y714563D01*
X450520D01*
X449250Y713294D01*
Y710755D01*
X450520Y709485D01*
X601422Y656098D02*
X602691Y657367D01*
X605230D01*
X606500Y656098D01*
Y651020D01*
X605230Y649750D01*
X602691D01*
X601422Y651020D01*
X593804Y657367D02*
X598882D01*
Y653559D01*
X596343Y654828D01*
X595074D01*
X593804Y653559D01*
Y651020D01*
X595074Y649750D01*
X597613D01*
X598882Y651020D01*
X586187Y657367D02*
X591265D01*
Y653559D01*
X588726Y654828D01*
X587456D01*
X586187Y653559D01*
Y651020D01*
X587456Y649750D01*
X589995D01*
X591265Y651020D01*
X504172Y656848D02*
X505441Y658118D01*
X507980D01*
X509250Y656848D01*
Y651770D01*
X507980Y650500D01*
X505441D01*
X504172Y651770D01*
X496554Y658118D02*
X501632D01*
Y654309D01*
X499093Y655578D01*
X497824D01*
X496554Y654309D01*
Y651770D01*
X497824Y650500D01*
X500363D01*
X501632Y651770D01*
X490206Y650500D02*
Y658118D01*
X494015Y654309D01*
X488937D01*
X620172Y671598D02*
X621441Y672868D01*
X623980D01*
X625250Y671598D01*
Y666520D01*
X623980Y665250D01*
X621441D01*
X620172Y666520D01*
X612554Y672868D02*
X617632D01*
Y669059D01*
X615093Y670328D01*
X613824D01*
X612554Y669059D01*
Y666520D01*
X613824Y665250D01*
X616363D01*
X617632Y666520D01*
X610015Y671598D02*
X608745Y672868D01*
X606206D01*
X604937Y671598D01*
Y670328D01*
X606206Y669059D01*
X607476D01*
X606206D01*
X604937Y667789D01*
Y666520D01*
X606206Y665250D01*
X608745D01*
X610015Y666520D01*
X456848Y728328D02*
X458117Y727059D01*
Y724520D01*
X456848Y723250D01*
X451770D01*
X450500Y724520D01*
Y727059D01*
X451770Y728328D01*
X458117Y735946D02*
Y730867D01*
X454309D01*
X455578Y733407D01*
Y734676D01*
X454309Y735946D01*
X451770D01*
X450500Y734676D01*
Y732137D01*
X451770Y730867D01*
X450500Y743563D02*
Y738485D01*
X455578Y743563D01*
X456848D01*
X458117Y742294D01*
Y739755D01*
X456848Y738485D01*
X620672Y764348D02*
X621941Y765618D01*
X624480D01*
X625750Y764348D01*
Y759270D01*
X624480Y758000D01*
X621941D01*
X620672Y759270D01*
X613054Y765618D02*
X618133D01*
Y761809D01*
X615593Y763078D01*
X614324D01*
X613054Y761809D01*
Y759270D01*
X614324Y758000D01*
X616863D01*
X618133Y759270D01*
X610515Y758000D02*
X607976D01*
X609245D01*
Y765618D01*
X610515Y764348D01*
X78098Y961578D02*
X79367Y960309D01*
Y957770D01*
X78098Y956500D01*
X73020D01*
X71750Y957770D01*
Y960309D01*
X73020Y961578D01*
X71750Y967926D02*
X79367D01*
X75559Y964118D01*
Y969196D01*
X78098Y971735D02*
X79367Y973005D01*
Y975544D01*
X78098Y976813D01*
X76828D01*
X75559Y975544D01*
Y974274D01*
Y975544D01*
X74289Y976813D01*
X73020D01*
X71750Y975544D01*
Y973005D01*
X73020Y971735D01*
X197422Y917848D02*
X198691Y919118D01*
X201230D01*
X202500Y917848D01*
Y912770D01*
X201230Y911500D01*
X198691D01*
X197422Y912770D01*
X191074Y911500D02*
Y919118D01*
X194883Y915309D01*
X189804D01*
X182187Y911500D02*
X187265D01*
X182187Y916578D01*
Y917848D01*
X183456Y919118D01*
X185995D01*
X187265Y917848D01*
X50348Y894078D02*
X51617Y892809D01*
Y890270D01*
X50348Y889000D01*
X45270D01*
X44000Y890270D01*
Y892809D01*
X45270Y894078D01*
X44000Y900426D02*
X51617D01*
X47809Y896618D01*
Y901696D01*
X44000Y904235D02*
Y906774D01*
Y905505D01*
X51617D01*
X50348Y904235D01*
X240172Y848598D02*
X241441Y849867D01*
X243980D01*
X245250Y848598D01*
Y843520D01*
X243980Y842250D01*
X241441D01*
X240172Y843520D01*
X233824Y842250D02*
Y849867D01*
X237633Y846059D01*
X232554D01*
X230015Y848598D02*
X228745Y849867D01*
X226206D01*
X224937Y848598D01*
Y843520D01*
X226206Y842250D01*
X228745D01*
X230015Y843520D01*
Y848598D01*
X240922Y912848D02*
X242191Y914118D01*
X244730D01*
X246000Y912848D01*
Y907770D01*
X244730Y906500D01*
X242191D01*
X240922Y907770D01*
X238382Y912848D02*
X237113Y914118D01*
X234574D01*
X233304Y912848D01*
Y911578D01*
X234574Y910309D01*
X235843D01*
X234574D01*
X233304Y909039D01*
Y907770D01*
X234574Y906500D01*
X237113D01*
X238382Y907770D01*
X230765D02*
X229495Y906500D01*
X226956D01*
X225687Y907770D01*
Y912848D01*
X226956Y914118D01*
X229495D01*
X230765Y912848D01*
Y911578D01*
X229495Y910309D01*
X225687D01*
X216348Y895578D02*
X217617Y894309D01*
Y891770D01*
X216348Y890500D01*
X211270D01*
X210000Y891770D01*
Y894309D01*
X211270Y895578D01*
X216348Y898118D02*
X217617Y899387D01*
Y901926D01*
X216348Y903196D01*
X215078D01*
X213809Y901926D01*
Y900657D01*
Y901926D01*
X212539Y903196D01*
X211270D01*
X210000Y901926D01*
Y899387D01*
X211270Y898118D01*
X216348Y905735D02*
X217617Y907005D01*
Y909544D01*
X216348Y910813D01*
X215078D01*
X213809Y909544D01*
X212539Y910813D01*
X211270D01*
X210000Y909544D01*
Y907005D01*
X211270Y905735D01*
X212539D01*
X213809Y907005D01*
X215078Y905735D01*
X216348D01*
X213809Y907005D02*
Y909544D01*
X44402Y870922D02*
X43133Y872191D01*
Y874730D01*
X44402Y876000D01*
X49480D01*
X50750Y874730D01*
Y872191D01*
X49480Y870922D01*
X44402Y868382D02*
X43133Y867113D01*
Y864574D01*
X44402Y863304D01*
X45672D01*
X46941Y864574D01*
Y865843D01*
Y864574D01*
X48211Y863304D01*
X49480D01*
X50750Y864574D01*
Y867113D01*
X49480Y868382D01*
X43133Y860765D02*
Y855687D01*
X44402D01*
X49480Y860765D01*
X50750D01*
X292172Y377848D02*
X293441Y379118D01*
X295980D01*
X297250Y377848D01*
Y372770D01*
X295980Y371500D01*
X293441D01*
X292172Y372770D01*
X284554Y371500D02*
X289632D01*
X284554Y376578D01*
Y377848D01*
X285824Y379118D01*
X288363D01*
X289632Y377848D01*
X282015D02*
X280745Y379118D01*
X278206D01*
X276937Y377848D01*
Y376578D01*
X278206Y375309D01*
X276937Y374039D01*
Y372770D01*
X278206Y371500D01*
X280745D01*
X282015Y372770D01*
Y374039D01*
X280745Y375309D01*
X282015Y376578D01*
Y377848D01*
X280745Y375309D02*
X278206D01*
X418348Y379828D02*
X419618Y378559D01*
Y376020D01*
X418348Y374750D01*
X413270D01*
X412000Y376020D01*
Y378559D01*
X413270Y379828D01*
X412000Y387446D02*
Y382368D01*
X417078Y387446D01*
X418348D01*
X419618Y386176D01*
Y383637D01*
X418348Y382368D01*
X419618Y389985D02*
Y395063D01*
X418348D01*
X413270Y389985D01*
X412000D01*
X433598Y324578D02*
X434868Y323309D01*
Y320770D01*
X433598Y319500D01*
X428520D01*
X427250Y320770D01*
Y323309D01*
X428520Y324578D01*
X427250Y332196D02*
Y327118D01*
X432328Y332196D01*
X433598D01*
X434868Y330926D01*
Y328387D01*
X433598Y327118D01*
X434868Y339813D02*
X433598Y337274D01*
X431059Y334735D01*
X428520D01*
X427250Y336005D01*
Y338544D01*
X428520Y339813D01*
X429789D01*
X431059Y338544D01*
Y334735D01*
X660172Y308348D02*
X661441Y309618D01*
X663980D01*
X665250Y308348D01*
Y303270D01*
X663980Y302000D01*
X661441D01*
X660172Y303270D01*
X652554Y302000D02*
X657633D01*
X652554Y307078D01*
Y308348D01*
X653824Y309618D01*
X656363D01*
X657633Y308348D01*
X644937Y309618D02*
X650015D01*
Y305809D01*
X647476Y307078D01*
X646206D01*
X644937Y305809D01*
Y303270D01*
X646206Y302000D01*
X648745D01*
X650015Y303270D01*
X574598Y354578D02*
X575868Y353309D01*
Y350770D01*
X574598Y349500D01*
X569520D01*
X568250Y350770D01*
Y353309D01*
X569520Y354578D01*
X568250Y362196D02*
Y357118D01*
X573328Y362196D01*
X574598D01*
X575868Y360926D01*
Y358387D01*
X574598Y357118D01*
X568250Y368544D02*
X575868D01*
X572059Y364735D01*
Y369813D01*
X737110Y674240D02*
X738379Y675509D01*
X740918D01*
X742188Y674240D01*
Y669162D01*
X740918Y667892D01*
X738379D01*
X737110Y669162D01*
X729492Y667892D02*
X734570D01*
X729492Y672970D01*
Y674240D01*
X730762Y675509D01*
X733301D01*
X734570Y674240D01*
X726953D02*
X725683Y675509D01*
X723144D01*
X721875Y674240D01*
Y672970D01*
X723144Y671701D01*
X724414D01*
X723144D01*
X721875Y670431D01*
Y669162D01*
X723144Y667892D01*
X725683D01*
X726953Y669162D01*
X329422Y277348D02*
X330691Y278617D01*
X333230D01*
X334500Y277348D01*
Y272270D01*
X333230Y271000D01*
X330691D01*
X329422Y272270D01*
X321804Y271000D02*
X326883D01*
X321804Y276078D01*
Y277348D01*
X323074Y278617D01*
X325613D01*
X326883Y277348D01*
X314187Y271000D02*
X319265D01*
X314187Y276078D01*
Y277348D01*
X315456Y278617D01*
X317995D01*
X319265Y277348D01*
X258172Y340848D02*
X259441Y342118D01*
X261980D01*
X263250Y340848D01*
Y335770D01*
X261980Y334500D01*
X259441D01*
X258172Y335770D01*
X250554Y334500D02*
X255632D01*
X250554Y339578D01*
Y340848D01*
X251824Y342118D01*
X254363D01*
X255632Y340848D01*
X248015Y334500D02*
X245476D01*
X246745D01*
Y342118D01*
X248015Y340848D01*
X673922Y391848D02*
X675191Y393117D01*
X677730D01*
X679000Y391848D01*
Y386770D01*
X677730Y385500D01*
X675191D01*
X673922Y386770D01*
X666304Y385500D02*
X671383D01*
X666304Y390578D01*
Y391848D01*
X667574Y393117D01*
X670113D01*
X671383Y391848D01*
X663765D02*
X662495Y393117D01*
X659956D01*
X658687Y391848D01*
Y386770D01*
X659956Y385500D01*
X662495D01*
X663765Y386770D01*
Y391848D01*
X736672Y325348D02*
X737941Y326618D01*
X740480D01*
X741750Y325348D01*
Y320270D01*
X740480Y319000D01*
X737941D01*
X736672Y320270D01*
X734133Y319000D02*
X731593D01*
X732863D01*
Y326618D01*
X734133Y325348D01*
X727785Y320270D02*
X726515Y319000D01*
X723976D01*
X722706Y320270D01*
Y325348D01*
X723976Y326618D01*
X726515D01*
X727785Y325348D01*
Y324078D01*
X726515Y322809D01*
X722706D01*
X501348Y93828D02*
X502617Y92559D01*
Y90020D01*
X501348Y88750D01*
X496270D01*
X495000Y90020D01*
Y92559D01*
X496270Y93828D01*
X495000Y96368D02*
Y98907D01*
Y97637D01*
X502617D01*
X501348Y96368D01*
Y102716D02*
X502617Y103985D01*
Y106524D01*
X501348Y107794D01*
X500078D01*
X498809Y106524D01*
X497539Y107794D01*
X496270D01*
X495000Y106524D01*
Y103985D01*
X496270Y102716D01*
X497539D01*
X498809Y103985D01*
X500078Y102716D01*
X501348D01*
X498809Y103985D02*
Y106524D01*
X503348Y174078D02*
X504618Y172809D01*
Y170270D01*
X503348Y169000D01*
X498270D01*
X497000Y170270D01*
Y172809D01*
X498270Y174078D01*
X497000Y176618D02*
Y179157D01*
Y177887D01*
X504618D01*
X503348Y176618D01*
X504618Y182966D02*
Y188044D01*
X503348D01*
X498270Y182966D01*
X497000D01*
X69598Y379828D02*
X70868Y378559D01*
Y376020D01*
X69598Y374750D01*
X64520D01*
X63250Y376020D01*
Y378559D01*
X64520Y379828D01*
X63250Y382368D02*
Y384907D01*
Y383637D01*
X70868D01*
X69598Y382368D01*
X70868Y393794D02*
Y388716D01*
X67059D01*
X68328Y391255D01*
Y392524D01*
X67059Y393794D01*
X64520D01*
X63250Y392524D01*
Y389985D01*
X64520Y388716D01*
X935598Y274828D02*
X936868Y273559D01*
Y271020D01*
X935598Y269750D01*
X930520D01*
X929250Y271020D01*
Y273559D01*
X930520Y274828D01*
X929250Y277367D02*
Y279907D01*
Y278637D01*
X936868D01*
X935598Y277367D01*
Y283715D02*
X936868Y284985D01*
Y287524D01*
X935598Y288794D01*
X934328D01*
X933059Y287524D01*
Y286255D01*
Y287524D01*
X931789Y288794D01*
X930520D01*
X929250Y287524D01*
Y284985D01*
X930520Y283715D01*
X758098Y580078D02*
X759368Y578809D01*
Y576270D01*
X758098Y575000D01*
X753020D01*
X751750Y576270D01*
Y578809D01*
X753020Y580078D01*
X751750Y582617D02*
Y585157D01*
Y583887D01*
X759368D01*
X758098Y582617D01*
X751750Y594044D02*
Y588965D01*
X756828Y594044D01*
X758098D01*
X759368Y592774D01*
Y590235D01*
X758098Y588965D01*
X770672Y560848D02*
X771941Y562118D01*
X774480D01*
X775750Y560848D01*
Y555770D01*
X774480Y554500D01*
X771941D01*
X770672Y555770D01*
X768132Y554500D02*
X765593D01*
X766863D01*
Y562118D01*
X768132Y560848D01*
X761785Y554500D02*
X759245D01*
X760515D01*
Y562118D01*
X761785Y560848D01*
X572922Y635598D02*
X574191Y636867D01*
X576730D01*
X578000Y635598D01*
Y630520D01*
X576730Y629250D01*
X574191D01*
X572922Y630520D01*
X570382Y629250D02*
X567843D01*
X569113D01*
Y636867D01*
X570382Y635598D01*
X564035D02*
X562765Y636867D01*
X560226D01*
X558956Y635598D01*
Y630520D01*
X560226Y629250D01*
X562765D01*
X564035Y630520D01*
Y635598D01*
X559422Y560348D02*
X560691Y561618D01*
X563230D01*
X564500Y560348D01*
Y555270D01*
X563230Y554000D01*
X560691D01*
X559422Y555270D01*
X556883D02*
X555613Y554000D01*
X553074D01*
X551804Y555270D01*
Y560348D01*
X553074Y561618D01*
X555613D01*
X556883Y560348D01*
Y559078D01*
X555613Y557809D01*
X551804D01*
X322422Y496348D02*
X323691Y497617D01*
X326230D01*
X327500Y496348D01*
Y491270D01*
X326230Y490000D01*
X323691D01*
X322422Y491270D01*
X319883Y496348D02*
X318613Y497617D01*
X316074D01*
X314804Y496348D01*
Y495078D01*
X316074Y493809D01*
X314804Y492539D01*
Y491270D01*
X316074Y490000D01*
X318613D01*
X319883Y491270D01*
Y492539D01*
X318613Y493809D01*
X319883Y495078D01*
Y496348D01*
X318613Y493809D02*
X316074D01*
X270922Y558348D02*
X272191Y559618D01*
X274730D01*
X276000Y558348D01*
Y553270D01*
X274730Y552000D01*
X272191D01*
X270922Y553270D01*
X268382Y559618D02*
X263304D01*
Y558348D01*
X268382Y553270D01*
Y552000D01*
X980922Y546598D02*
X982191Y547868D01*
X984730D01*
X986000Y546598D01*
Y541520D01*
X984730Y540250D01*
X982191D01*
X980922Y541520D01*
X973304Y547868D02*
X978382D01*
Y544059D01*
X975843Y545328D01*
X974574D01*
X973304Y544059D01*
Y541520D01*
X974574Y540250D01*
X977113D01*
X978382Y541520D01*
X785922Y499848D02*
X787191Y501118D01*
X789730D01*
X791000Y499848D01*
Y494770D01*
X789730Y493500D01*
X787191D01*
X785922Y494770D01*
X783382Y499848D02*
X782113Y501118D01*
X779574D01*
X778304Y499848D01*
Y498578D01*
X779574Y497309D01*
X780843D01*
X779574D01*
X778304Y496039D01*
Y494770D01*
X779574Y493500D01*
X782113D01*
X783382Y494770D01*
X67172Y604098D02*
X68441Y605368D01*
X70980D01*
X72250Y604098D01*
Y599020D01*
X70980Y597750D01*
X68441D01*
X67172Y599020D01*
X64633Y597750D02*
X62093D01*
X63363D01*
Y605368D01*
X64633Y604098D01*
D15*
X636750Y17500D02*
Y30500D01*
X363250Y20500D02*
Y33500D01*
X445250Y115890D02*
Y128890D01*
Y139750D02*
Y152750D01*
X552750Y137750D02*
Y150750D01*
Y113890D02*
Y126890D01*
X369500Y755000D02*
Y788000D01*
X302500Y755000D02*
Y788000D01*
X369500D01*
X302500Y755000D02*
X369500D01*
D115*
X170290Y931636D02*
G03*
X170290Y931636I-2540J0D01*
G01*
M02*
