G04*
G04 #@! TF.GenerationSoftware,Altium Limited,Altium Designer,18.0.12 (696)*
G04*
G04 Layer_Physical_Order=2*
G04 Layer_Color=32768*
%FSLAX44Y44*%
%MOMM*%
G71*
G01*
G75*
%ADD14C,1.0160*%
%ADD66C,1.2700*%
%ADD67C,2.0160*%
G04:AMPARAMS|DCode=68|XSize=2.6256mm|YSize=2.6256mm|CornerRadius=0mm|HoleSize=0mm|Usage=FLASHONLY|Rotation=0.000|XOffset=0mm|YOffset=0mm|HoleType=Round|Shape=Relief|Width=0.3048mm|Gap=0.3048mm|Entries=4|*
%AMTHD68*
7,0,0,2.6256,2.0160,0.3048,45*
%
%ADD68THD68*%
%ADD69C,4.5160*%
%ADD70C,2.2160*%
G04:AMPARAMS|DCode=71|XSize=2.8256mm|YSize=2.8256mm|CornerRadius=0mm|HoleSize=0mm|Usage=FLASHONLY|Rotation=0.000|XOffset=0mm|YOffset=0mm|HoleType=Round|Shape=Relief|Width=0.3048mm|Gap=0.3048mm|Entries=4|*
%AMTHD71*
7,0,0,2.8256,2.2160,0.3048,45*
%
%ADD71THD71*%
%ADD72C,1.7160*%
%ADD73C,2.0160*%
G04:AMPARAMS|DCode=74|XSize=2.6256mm|YSize=2.6256mm|CornerRadius=0mm|HoleSize=0mm|Usage=FLASHONLY|Rotation=0.000|XOffset=0mm|YOffset=0mm|HoleType=Round|Shape=Relief|Width=0.3048mm|Gap=0.3048mm|Entries=4|*
%AMTHD74*
7,0,0,2.6256,2.0160,0.3048,45*
%
%ADD74THD74*%
%ADD75C,1.9160*%
G04:AMPARAMS|DCode=76|XSize=3.9256mm|YSize=3.9256mm|CornerRadius=0mm|HoleSize=0mm|Usage=FLASHONLY|Rotation=0.000|XOffset=0mm|YOffset=0mm|HoleType=Round|Shape=Relief|Width=0.3048mm|Gap=0.3048mm|Entries=4|*
%AMTHD76*
7,0,0,3.9256,3.3160,0.3048,45*
%
%ADD76THD76*%
%ADD77C,2.1160*%
G04:AMPARAMS|DCode=78|XSize=2.7256mm|YSize=2.7256mm|CornerRadius=0mm|HoleSize=0mm|Usage=FLASHONLY|Rotation=0.000|XOffset=0mm|YOffset=0mm|HoleType=Round|Shape=Relief|Width=0.3048mm|Gap=0.3048mm|Entries=4|*
%AMTHD78*
7,0,0,2.7256,2.1160,0.3048,45*
%
%ADD78THD78*%
%ADD79C,1.3160*%
D14*
X0Y49999D02*
G03*
X50000Y-0I49999J-0D01*
G01*
X50000Y1000000D02*
G03*
X-0Y950000I-0J-50000D01*
G01*
X1000000Y950000D02*
G03*
X943000Y1000000I-53499J-3499D01*
G01*
X950000Y0D02*
G03*
X1000000Y50000I38J49962D01*
G01*
X50000Y-0D02*
X950000D01*
X1000000Y50000D02*
Y950000D01*
X50000Y1000000D02*
X943000D01*
X-0Y50000D02*
Y950000D01*
D66*
X368500Y756000D02*
G03*
X368500Y756000I0J0D01*
G01*
X367000Y827750D02*
G03*
X361750Y822500I0J-5250D01*
G01*
X403250Y819500D02*
G03*
X395000Y827750I-8250J0D01*
G01*
X356667Y736500D02*
Y756000D01*
Y736500D02*
X368500D01*
Y756000D01*
X333000Y756000D02*
X368500D01*
X367000Y827750D02*
X395000D01*
X361750Y819500D02*
X403250D01*
X367000Y827750D02*
X387750D01*
D67*
X944700Y721000D02*
D03*
Y746400D02*
D03*
X845600Y721000D02*
D03*
Y746400D02*
D03*
X745600Y721000D02*
D03*
Y746400D02*
D03*
X645600Y721000D02*
D03*
Y746400D02*
D03*
X303054Y896166D02*
D03*
X367790Y896096D02*
D03*
X367526Y921937D02*
D03*
X302790Y922008D02*
D03*
X884000Y153750D02*
D03*
X960000D02*
D03*
X894500Y952500D02*
D03*
Y887500D02*
D03*
X812167Y952500D02*
D03*
Y887500D02*
D03*
X729833Y952500D02*
D03*
Y887500D02*
D03*
X647500Y952500D02*
D03*
Y887500D02*
D03*
D68*
X944700Y695600D02*
D03*
X845600D02*
D03*
X745600D02*
D03*
X645600D02*
D03*
X302790Y851096D02*
D03*
X367790D02*
D03*
X367790Y967008D02*
D03*
X302790D02*
D03*
X849500Y952500D02*
D03*
X849429Y887764D02*
D03*
X767167Y952500D02*
D03*
X767096Y887764D02*
D03*
X684833Y952500D02*
D03*
X684763Y887764D02*
D03*
X602500Y952500D02*
D03*
X602429Y887764D02*
D03*
D69*
X950000Y50000D02*
D03*
Y950000D02*
D03*
X50000D02*
D03*
Y50000D02*
D03*
D70*
X627000Y60000D02*
D03*
X576200D02*
D03*
X423800D02*
D03*
X373000D02*
D03*
D71*
X525400D02*
D03*
X474600D02*
D03*
D72*
X783000Y78250D02*
D03*
X749000D02*
D03*
D73*
X148850Y971750D02*
D03*
X174250D02*
D03*
X752600Y136250D02*
D03*
X264100Y58000D02*
D03*
X289500D02*
D03*
X208267Y58000D02*
D03*
X233667D02*
D03*
X152433D02*
D03*
X177833D02*
D03*
X96600Y58500D02*
D03*
X122000D02*
D03*
X264100Y150000D02*
D03*
X289500D02*
D03*
X208267D02*
D03*
X233667D02*
D03*
X152433D02*
D03*
X177833D02*
D03*
X96600Y150002D02*
D03*
X122000D02*
D03*
X674750Y61750D02*
D03*
Y36350D02*
D03*
X325250Y61900D02*
D03*
Y36500D02*
D03*
D74*
X199650Y971750D02*
D03*
X778000Y136250D02*
D03*
D75*
X487500Y850000D02*
D03*
X512500Y870480D02*
D03*
Y850000D02*
D03*
X487500Y870480D02*
D03*
D76*
X439800Y897580D02*
D03*
X560200D02*
D03*
D77*
X394000Y253800D02*
D03*
X343200D02*
D03*
X317800D02*
D03*
X292400D02*
D03*
X267000D02*
D03*
X241600D02*
D03*
X216200D02*
D03*
X190800D02*
D03*
X165400D02*
D03*
X140000D02*
D03*
X114600D02*
D03*
X89200D02*
D03*
X63800D02*
D03*
X38400D02*
D03*
X394000Y406200D02*
D03*
X368600D02*
D03*
X343200D02*
D03*
X267000D02*
D03*
X292400D02*
D03*
X216200D02*
D03*
X241600D02*
D03*
X165400D02*
D03*
X190800D02*
D03*
X114600D02*
D03*
X140000D02*
D03*
X63800D02*
D03*
X89200D02*
D03*
X38400D02*
D03*
X606400Y406197D02*
D03*
X657200D02*
D03*
X682600D02*
D03*
X708000D02*
D03*
X733400D02*
D03*
X758800D02*
D03*
X784200D02*
D03*
X809600D02*
D03*
X835000D02*
D03*
X860400D02*
D03*
X885800D02*
D03*
X911200D02*
D03*
X936600D02*
D03*
X962000D02*
D03*
X606400Y253797D02*
D03*
X631800D02*
D03*
X657200D02*
D03*
X733400D02*
D03*
X708000D02*
D03*
X784200D02*
D03*
X758800D02*
D03*
X835000D02*
D03*
X809600D02*
D03*
X885800D02*
D03*
X860400D02*
D03*
X936600D02*
D03*
X911200D02*
D03*
X962000D02*
D03*
X606400Y626200D02*
D03*
X657200D02*
D03*
X682600D02*
D03*
X708000D02*
D03*
X733400D02*
D03*
X758800D02*
D03*
X784200D02*
D03*
X809600D02*
D03*
X835000D02*
D03*
X860400D02*
D03*
X885800D02*
D03*
X911200D02*
D03*
X936600D02*
D03*
X962000D02*
D03*
X606400Y473800D02*
D03*
X631800D02*
D03*
X657200D02*
D03*
X733400D02*
D03*
X708000D02*
D03*
X784200D02*
D03*
X758800D02*
D03*
X835000D02*
D03*
X809600D02*
D03*
X885800D02*
D03*
X860400D02*
D03*
X936600D02*
D03*
X911200D02*
D03*
X962000D02*
D03*
X394000D02*
D03*
X343200D02*
D03*
X317800D02*
D03*
X292400D02*
D03*
X267000D02*
D03*
X241600D02*
D03*
X216200D02*
D03*
X190800D02*
D03*
X165400D02*
D03*
X140000D02*
D03*
X114600D02*
D03*
X89200D02*
D03*
X63800D02*
D03*
X38400D02*
D03*
X394000Y626200D02*
D03*
X368600D02*
D03*
X343200D02*
D03*
X267000D02*
D03*
X292400D02*
D03*
X216200D02*
D03*
X241600D02*
D03*
X165400D02*
D03*
X190800D02*
D03*
X114600D02*
D03*
X140000D02*
D03*
X63800D02*
D03*
X89200D02*
D03*
X38400D02*
D03*
D78*
X368600Y253800D02*
D03*
X317800Y406200D02*
D03*
X631800Y406197D02*
D03*
X682600Y253797D02*
D03*
X631800Y626200D02*
D03*
X682600Y473800D02*
D03*
X368600D02*
D03*
X317800Y626200D02*
D03*
D79*
X142000Y532250D02*
D03*
X193000D02*
D03*
X267013Y348517D02*
D03*
X127250Y604750D02*
D03*
X530250Y269750D02*
D03*
X715250Y603750D02*
D03*
X904750Y505000D02*
D03*
X829500Y504500D02*
D03*
X714285Y540526D02*
D03*
X717265Y592956D02*
D03*
X760000Y490250D02*
D03*
X619000Y495000D02*
D03*
X459250Y324500D02*
D03*
X532750Y239250D02*
D03*
X454500Y365000D02*
D03*
X125000Y979000D02*
D03*
X713785Y110250D02*
D03*
X716250Y101750D02*
D03*
X739500Y171250D02*
D03*
X140250Y782250D02*
D03*
X166250Y851000D02*
D03*
X141257Y905544D02*
D03*
X165258Y823040D02*
D03*
X152500Y722100D02*
D03*
X156075Y831250D02*
D03*
X146750Y877250D02*
D03*
X180500Y914136D02*
D03*
X184250Y922136D02*
D03*
X93753Y913795D02*
D03*
X94250Y922136D02*
D03*
X126750Y923750D02*
D03*
X882000Y938750D02*
D03*
X799667D02*
D03*
X717333D02*
D03*
X635000D02*
D03*
X550750Y324750D02*
D03*
X266500Y568250D02*
D03*
X429750Y442250D02*
D03*
X945250Y327000D02*
D03*
X520046Y340655D02*
D03*
X81500Y791750D02*
D03*
X389250Y307500D02*
D03*
X357000Y746250D02*
D03*
Y736500D02*
D03*
X586750Y695500D02*
D03*
X569500Y772750D02*
D03*
X559500D02*
D03*
X626000Y320351D02*
D03*
X610250Y376750D02*
D03*
X70880Y365750D02*
D03*
X913000Y337250D02*
D03*
X931250Y295000D02*
D03*
X256250Y334800D02*
D03*
X70500Y820500D02*
D03*
X568500Y798000D02*
D03*
X581500Y741670D02*
D03*
X550250Y694750D02*
D03*
X497774Y692784D02*
D03*
X508750Y707250D02*
D03*
X495750Y665750D02*
D03*
X363768Y326766D02*
D03*
X141750Y822000D02*
D03*
X765250Y459000D02*
D03*
X479773Y564528D02*
D03*
X201250Y735500D02*
D03*
X423750Y609000D02*
D03*
X480187Y518063D02*
D03*
X519000Y612000D02*
D03*
X368500Y736500D02*
D03*
X520025Y565028D02*
D03*
X543276Y433021D02*
D03*
X525776Y619030D02*
D03*
X559588Y489412D02*
D03*
X803789Y300515D02*
D03*
X810790Y285744D02*
D03*
X361000Y336750D02*
D03*
X490000Y333500D02*
D03*
X480000Y355250D02*
D03*
X510000Y348321D02*
D03*
X97250Y875250D02*
D03*
X529000Y631750D02*
D03*
X440500Y580250D02*
D03*
X163750Y937136D02*
D03*
X546000Y297418D02*
D03*
X454000D02*
D03*
X562698Y379280D02*
D03*
X437302Y599280D02*
D03*
X582000Y536250D02*
D03*
X391250Y497430D02*
D03*
X388539Y286930D02*
D03*
X562250Y391250D02*
D03*
X375750Y534750D02*
D03*
X431250Y240500D02*
D03*
X544527Y769037D02*
D03*
X519500Y771490D02*
D03*
X529500Y772000D02*
D03*
X928250Y310000D02*
D03*
X308000Y211873D02*
D03*
X201733Y213750D02*
D03*
X56000Y121750D02*
D03*
X129000D02*
D03*
X515000Y199750D02*
D03*
X483000D02*
D03*
X664750Y508250D02*
D03*
X611000Y297250D02*
D03*
X358250Y356250D02*
D03*
X234893Y121750D02*
D03*
X275000D02*
D03*
X241600Y369950D02*
D03*
Y589150D02*
D03*
X256250Y554000D02*
D03*
X490000Y557250D02*
D03*
X126750Y867500D02*
D03*
X406750Y935937D02*
D03*
Y882095D02*
D03*
X337750Y669500D02*
D03*
X110750Y836636D02*
D03*
X681250Y654000D02*
D03*
X405450Y679600D02*
D03*
Y692300D02*
D03*
Y705000D02*
D03*
Y717700D02*
D03*
X759550Y585700D02*
D03*
X648850Y500200D02*
D03*
X832750Y512900D02*
D03*
X934750Y500250D02*
D03*
X934250Y525500D02*
D03*
X70880Y350000D02*
D03*
X510000Y557250D02*
D03*
X490000Y525000D02*
D03*
X71000Y569000D02*
D03*
X498500Y705500D02*
D03*
X485000Y684000D02*
D03*
Y772250D02*
D03*
X561500Y708000D02*
D03*
X559500Y684000D02*
D03*
X457000Y725500D02*
D03*
X387750Y827750D02*
D03*
X377375D02*
D03*
X367000D02*
D03*
X403250Y819500D02*
D03*
X392875D02*
D03*
X372125D02*
D03*
X361750D02*
D03*
X368500Y746250D02*
D03*
X333000Y756000D02*
D03*
X356667Y756000D02*
D03*
X344833Y756000D02*
D03*
X368500Y756000D02*
D03*
X382500Y819500D02*
D03*
M02*
