M48
;Layer_Color=9474304
;FILE_FORMAT=4:4
METRIC,LZ
;TYPE=PLATED
T1F00S00C0.3000
T2F00S00C0.7000
T3F00S00C0.9000
T4F00S00C1.0000
T5F00S00C1.1000
T6F00S00C1.2000
T7F00S00C2.3000
;TYPE=NON_PLATED
T8F00S00C3.5000
%
T01
X00949999Y000085
X00975Y00025
X00907142Y000085
X00864285
X00821428
X00778571
X00735714
X00692857
X0065
X00607142
X00564285
X0071225Y00032
X00521428Y000085
X00478571
X00435714
X0043675Y0003875
X00392857Y000085
X0035
X00307143
X00301886Y000355
X00264286
Y000085
X00221429
Y000355
X00178571
Y000085
X00135714
X0013575Y000355
X00092857Y0003325
Y000085
X0005
X00024999Y00025
X0000825Y0005
Y00092857
X0003575Y00086
X00035Y0012175
X00056
X00077Y001235
X0007525Y00142
X000665Y00139
X0000825Y00135714
Y00178571
X0003375Y0016975
X0004225Y0020025
X00033Y0021425
X0006225Y002165
X0000825Y00221429
Y00264286
Y00307143
Y0035
X00033Y0034525
X0004875Y00334
X0006525Y0031775
X0006668Y00298137
X00054Y0030525
X00055253Y0028671
X0004225Y00295
X00033398Y00283826
X00045148Y00274099
X00078119Y00309552
X00094279
X00099185Y00323048
X00083025
X0007088Y0035
Y0036575
Y00381
X0000825Y00392857
Y00435714
X00129Y00213
X0011925Y001875
X0010875Y0018925
X00129Y0012175
X0012175Y0008775
X0010925Y0009775
X0018225Y000965
X0019225Y0008875
X0017525Y001235
X00150257Y00136757
X0017575Y00189
X00201733Y0021375
X002155Y00269
X0018725Y0028525
X00166Y002775
X001655Y00315
X0016075Y003415
X001885Y00348
X0019125Y003815
X00166Y00387
X002416Y0036995
X002615Y003605
X00267013Y00348517
X00273763Y00334016
X0025625Y003348
X0026825Y0038675
X003085Y003865
X0033525Y0038975
X00336Y004245
X0038075Y0043075
X0037475Y0035925
X0035825Y0035625
X00361Y0033675
X00363768Y00326766
X003565Y00297
X0033325Y0029125
X00335266Y00312515
X0038925Y003075
X003975Y0031
X003905Y0029725
X00388539Y0028693
X00405Y002755
X00429Y0030675
X004305Y0032225
X0045925Y003245
X00454Y00297418
X004695Y0027075
X004705Y00234
X00499825Y00245375
Y0026325
Y00281125
Y00299
Y00316875
X0049Y003335
X0048Y0035525
X00470386Y0036482
X004545Y00365
X00427Y00374
X0041675
X00404Y00373
X00499825Y003805
Y00362625
X0051Y00348321
X00520046Y00340655
X00499825Y00398375
Y0041625
Y00434125
X0046325Y0043325
X0043125Y002405
X0043525Y0020525
X0040225Y00204
X0035675Y0020575
X0034025Y00203
X00308Y00211873
X002555Y0018925
X0027375Y00138
X00275Y0012175
X00234893
X0025575Y0009725
X002645Y0008825
X003285Y0009675
X00347385Y0007382
X00346Y00048
X00397Y000515
X0039725Y000825
X00456885Y0008032
X00453635Y0004332
X00498386Y0004607
X0050225Y00072
X004985Y00096
X00525636Y0014707
X00529886Y0016132
X00515Y0019975
X00504333
X00493667
X00483
X00470636Y0016207
X00470386Y0014682
X00440386Y0013382
X00414636Y0013407
X0037925Y0013225
X0039325Y0015875
X00346Y0015925
X003235Y0013725
X00440886Y0016057
X003695Y0023375
X0053275Y0023925
X0053025Y0026975
X00546Y00297418
X00545635Y0031207
X0055075Y0032475
X0059925Y0031425
X00611Y0029725
X00628885Y0029657
Y0028232
X00652385Y0029457
X006875Y0029425
X00681135Y0028432
X00713885Y0028282
X00732635Y0028657
X0073575Y00302
X00728Y00322
X0070625Y003215
X00626Y00320351
X0061025Y0037675
X005845Y0037725
X00562698Y0037928
X0056225Y0039125
X00543276Y00433021
X0064675Y00377
X00664Y0038175
X00833136Y0037657
X00859386Y0037782
X0086Y003595
X0086575Y0032175
X0083Y0032125
X00830885Y0030007
X00803789Y00300515
X0081079Y00285744
X00760135Y0028807
X0074225Y001935
X007395Y0017125
X00774Y00166
X00825Y00165
X0082575Y00206
X00872635Y0022482
X00923136Y0022907
X0092875Y0027825
X0093125Y00295
X0092825Y0031
X00933038Y00343745
X00927777Y0035757
X00913269Y00350452
X00913Y0033725
X00920885Y0042957
X009095Y000695
X00856Y000815
X0083925Y001265
X0079725Y0009425
X0078425Y0004175
X00833Y00041
X0072975Y0008825
X0071625Y0010175
X00713785Y0011025
X0067475Y0009425
X006615Y000775
X00651385Y0007607
X00656886Y0004907
X00602Y000585
X0060175Y00082
X00632886Y0010107
X00634636Y0013432
X00617386Y0015182
X00579136Y0013682
X00557886Y0013182
X00542886Y0017457
X005745Y0018825
X00577136Y0028557
X00665636Y0020032
X00699885Y0019907
X006905Y0015375
X005545Y000755
X0055625Y000405
X0099Y00050001
Y00092858
X0096975Y001005
X0099Y00135715
Y00178572
Y00221429
Y00264286
Y00307143
X00965885Y0031632
X0094525Y00327
X00944465Y00355172
X00939204Y00368997
X00955892Y00366599
X0095063Y00380424
X0096721Y00378134
X0099Y00392858
Y0035
Y00435715
X0094925Y0042275
X00978136Y0044707
X00976636Y0047582
X0098525Y00489
X0099Y00564286
X00977968Y00564925
X00979998Y00580956
X00966502Y00582487
Y00598647
X00979998Y00597117
Y00613276
X0099Y00607143
X0098325Y006305
X0099Y0065
X0096825Y00646
X009495Y0061
X00963912Y00556952
X0099Y00692857
Y00735714
Y00778571
Y00821429
X009465Y008275
X0088425Y0079925
X008335Y007975
X00809Y00818
X00716Y0080775
X0066625Y0080875
X0060775Y0081225
X00584Y0081075
X00579Y0079975
X005685Y00798
X005495Y0080125
X00554608Y00820178
X00584Y0083
X005695Y0077275
X005595
X00544527Y00769037
X005815Y0074167
X00573Y0073125
X00576885Y0071782
X005615Y00708
X0056975Y0069375
X0058675Y006955
X00587385Y0067257
X0059075Y006565
X00602635Y0066282
X0060675Y0067225
X00632635Y0065907
X0068125Y00654
X007205Y006415
X0074625Y0064225
X00747Y00654
X0079575Y0066025
X008475Y00652
X00888385Y0065132
X00925Y006465
X00929386Y0060682
X00923136Y0058557
X0092275Y00569
X0091425Y0055975
X0090575Y0055175
X00920297Y00544253
X00910998Y00531037
X0090975Y00512
X0090475Y00505
X0093475Y0050025
X0093425Y005255
X00931724Y0055568
X00871135Y0056132
X00876886Y0060157
X00906136Y0059782
X0083275Y00606
X008095Y0055
X008115Y0050375
X008295Y005045
X0083275Y005129
X0080375Y00488
X0078875Y0048875
X007705Y004895
X0076Y0049025
X0076525Y00459
X0070575Y00453
X006895Y005025
X0066475Y0050825
X0064885Y005002
X00619Y00495
X00614Y00509
X0061725Y00536
X00582Y0053625
X00561Y0053625
X0055275Y0054675
X00559588Y00489412
X005645Y00443
X0058325Y00453
X0066225Y00537
X006895Y00539
X0070175Y0055025
X00714285Y00540526
X00717265Y00592956
X0071525Y0060375
X006945Y00596
X0064475Y0061025
X00571Y006195
X005595Y00684
X0055025Y0069475
X00629136Y0072107
X0062625Y0073425
X008155Y00719
X0075955Y005857
X0076325Y0057275
X0075925Y0056325
X00520025Y00565028
X005195Y005755
X0050175Y0056825
X0051Y0055725
X0049
X00479773Y00564528
X0046975Y005745
X004495Y005825
X004405Y0058025
X00437302Y0059928
X0042375Y00609
X0039125Y0057375
X003615Y00574
X003605Y0054825
X0038325Y00547
X0037575Y0053475
X00403Y0052075
X004215Y0052925
X0042275Y0053925
X004405Y0054525
X004485Y00525
X0046775Y005245
X00480187Y00518063
X0049Y00525
X00499825Y00533875
Y00505625
Y0048775
Y00469875
Y00452
X0046825Y0046825
X0044875Y0047575
X0043475Y00451
X0042975Y0044225
X004135Y004485
X00392Y0044825
X0039125Y0049743
X0033975Y0044225
X00288Y0044725
X0026575Y0044775
X0021675Y0044125
X0018875Y00442
X0016375Y00441
X0016175Y004985
X00199Y00497
X00193Y0053225
X001905Y0055925
X0019325Y0059375
X0015Y0059875
X0015175Y0056475
X00159385Y0066107
X00161Y0069625
X001525Y007221
X0016025Y0074425
X0020125Y007355
X00243136Y0075257
X002425Y007795
X00257Y00768886
X00275Y00771636
X00263Y0073575
X00292136Y0070182
X00297136Y0068007
X00311886Y0067982
X00310886Y0066157
X002925Y0066325
X002545Y00662
X00203136Y0066107
X002416Y0058915
X002565Y00598
X002665Y0056825
X0025625Y00554
X0027675Y0055325
X0031425Y0054225
X003325Y0054675
X0032675Y00575
X0031575Y00598
X003295Y006075
X0036775Y005945
X0036825Y0066525
X003595Y00669
X00351984Y00679818
X0033775Y006695
X00310636Y0071682
X00333Y00756
X00344833
X00356667Y00756
X00357Y0074625
Y007365
X003685
Y0074625
Y00756
X0038Y00771636
X00395
X0040725Y0078275
X00413Y008005
X0040325Y008195
X00392875
X003825
X00372125
X0036175
X00367Y0082775
X00377375
X0038775
X0042075Y008235
X0043075Y0082325
X0049Y0083
X00518852Y00818116
X00517Y0080775
X005245Y0080175
X005295Y00772
X005195Y0077149
X005065Y0076925
X0049575Y0077425
X00485Y0077225
X0046825Y0077275
Y007835
X00457Y007255
X00457386Y00711
X00443386Y00682
X00462886Y0066382
X0049575Y0066575
X00485Y00684
X00497774Y00692784
X004985Y007055
X0050875Y0070725
X00511025Y00698284
X00532635Y0069507
X00532136Y0072032
X00531886Y0075707
X0042975Y0073975
X00417886Y0073282
X00407114Y0073825
X00404364Y0075625
X0040545Y007177
Y00705
Y006923
Y006796
X00368Y0078325
X0035825Y007835
X003485Y007935
X00348Y00805
X0025575Y0081225
X00210886Y0080807
X002145Y0082425
X00165258Y0082304
X00156075Y0083125
X00529Y0063175
X00525776Y0061903
X00519Y00612
X0012725Y0060475
X00072Y0060025
X00071Y00569
X00052Y0058625
X00029Y0056575
X0000825Y00564285
Y00607142
Y0065
X0003425Y0066107
X00059277
X00084304
X00109331
X00135Y006615
X00128385Y0069832
X0014025Y0078225
X0013975Y00802
X0014175Y00822
X00117Y007935
X000815Y0079175
X000705Y008205
X000355Y00825
X0000825Y00821428
Y00778571
Y00735714
Y00692857
X0006325Y00735
X00087386Y0075357
X00098636Y0076882
X00081585Y00542048
X0007275Y0052675
X00064962Y00519169
X00054287Y0052758
X000615Y0053625
X000305Y0053275
X0004286Y00516153
X00053535Y00507742
X0004525Y004975
X00032048Y00504143
X0000825Y00521428
Y00478571
X0003275Y00448
X0006175Y00438
X000855Y00437
X0013675Y00442
X00142Y0053225
X000935Y0052375
X00088Y0050075
X0011075Y00836636
X0012675Y008675
X001425Y0088725
X00141257Y00905544
X0012675Y0092375
X0009425Y00922136
X00093753Y00913795
X0009301Y0089924
X0009725Y0087525
X00052Y00905886
X0000825Y00907142
Y00864285
Y00949999
X00025Y00975
X0005Y0099
X00092857
X0009575Y00968
X00125Y00979
X00135714Y0099
X00178571
X00221429
X00264286
X0027175Y0096775
X00278136Y0092307
X002655Y0091525
X0026425Y00889
X00242322Y00906285
X0022625Y0092375
X00207Y0090925
X001805Y00914136
X0018425Y00922136
X0016375Y00937136
X0015225Y00912
X0014675Y0087725
X0016625Y00851
X00281437Y008461
X0042345Y00863
X0040675Y00882095
Y00935937
X00392857Y0099
X00435714
X00478571
X00521428
X00515326Y00883874
X0052609Y00871821
X0052775Y008445
X00473Y0088
X004635Y00891
X004735Y0090375
X0035Y0099
X00307143
X00564285
X00607142
X0065
X00692857
X00735714
X00778571
X00821428
X00864285
X00907142
X009075Y0097225
X00882Y0093875
X00799667
X00717333
X00635
X0062Y00842
X0067475Y00848
X00715Y008395
X0073725Y0084075
X00832Y0084825
X00876Y0084675
X009325Y0083725
X0092825Y008875
X00539867Y00863375
X00546791Y00848773
X00560457Y00840148
X0099Y00864286
Y00907143
X009665Y008975
X0099Y0095
X00949999Y0099
T02
X00749Y0007825
X00783
T03
X004875Y0085
Y0087048
X005125
Y0085
T04
X0067475Y0003635
X0032525Y000365
X00122Y000585
X000966
Y00150002
X00122
X00152433Y0015
X00177833
X00208267
X00233667
X002641
X002895
Y00058
X002641
X00233667Y00058
X00208267
X00177833
X00152433
X0032525Y000619
X0067475Y0006175
X007526Y0013625
X00778
X00884Y0015375
X0096
X009447Y006956
Y00721
Y007464
X008456
Y00721
Y006956
X007456
Y00721
Y007464
X006456
Y00721
Y006956
X0036779Y00851096
X0036779Y00896096
X00367526Y00921937
X0036779Y00967008
X0030279
X0030279Y00922008
X00303054Y00896166
X0030279Y00851096
X0019965Y0097175
X0017425
X0014885
X006025Y009525
X006475Y009525
X00684833Y009525
X00729833Y009525
X00767167Y009525
X00812167Y009525
X008495Y009525
X008945Y009525
Y008875
X00849429Y00887764
X00812167Y008875
X00767096Y00887764
X00729833Y008875
X00684763Y00887764
X006475Y008875
X00602429Y00887764
T05
X000384Y002538
X000638
X000892
X001146
X0014
Y004062
X001146
X000892
X000638
X000384
X001654
X001908
X002162
X002416
X00267
X002924
X003178
X003432
X003686
X00394
Y002538
X003686
X003432
X003178
X002924
X00267
X002416
X002162
X001908
X001654
X006064Y00253797
X006318
X006572
X006826
X00708
X007334
X007588
X007842
X008096
X00835
X008604
X008858
X009112
X009366
Y00406197
X009112
X008858
X008604
X00835
X008096
X007842
X007588
X007334
X00708
X006826
X006572
X006318
X006064
X00962
Y00253797
Y004738
Y006262
X009366
X009112
X008858
X008604
X00835
X008096
X007842
X007588
X007334
X00708
X006826
X006572
X006318
X006064
Y004738
X006318
X006572
X006826
X00708
X007334
X007588
X007842
X008096
X00835
X008604
X008858
X009112
X009366
X00394
X003686
X003432
X003178
X002924
X00267
X002416
X002162
X001908
X001654
Y006262
X001908
X002162
X002416
X00267
X002924
X003178
X003432
X003686
X00394
X0014
X001146
X000892
X000638
X000384
Y004738
X000638
X000892
X001146
X0014
T06
X00373Y0006
X004238
X004746
X005254
X005762
X00627
T07
X004398Y0089758
X005602
T08
X0005Y0005
X0095
X0005Y0095
X0095
M30
